%TF.GenerationSoftware,KiCad,Pcbnew,(6.0.1)*%
%TF.CreationDate,2022-03-08T14:51:08-06:00*%
%TF.ProjectId,arliang2_good2go_2,61726c69-616e-4673-925f-676f6f643267,rev?*%
%TF.SameCoordinates,Original*%
%TF.FileFunction,Legend,Top*%
%TF.FilePolarity,Positive*%
%FSLAX46Y46*%
G04 Gerber Fmt 4.6, Leading zero omitted, Abs format (unit mm)*
G04 Created by KiCad (PCBNEW (6.0.1)) date 2022-03-08 14:51:08*
%MOMM*%
%LPD*%
G01*
G04 APERTURE LIST*
G04 Aperture macros list*
%AMRoundRect*
0 Rectangle with rounded corners*
0 $1 Rounding radius*
0 $2 $3 $4 $5 $6 $7 $8 $9 X,Y pos of 4 corners*
0 Add a 4 corners polygon primitive as box body*
4,1,4,$2,$3,$4,$5,$6,$7,$8,$9,$2,$3,0*
0 Add four circle primitives for the rounded corners*
1,1,$1+$1,$2,$3*
1,1,$1+$1,$4,$5*
1,1,$1+$1,$6,$7*
1,1,$1+$1,$8,$9*
0 Add four rect primitives between the rounded corners*
20,1,$1+$1,$2,$3,$4,$5,0*
20,1,$1+$1,$4,$5,$6,$7,0*
20,1,$1+$1,$6,$7,$8,$9,0*
20,1,$1+$1,$8,$9,$2,$3,0*%
G04 Aperture macros list end*
%ADD10C,0.300000*%
%ADD11C,0.150000*%
%ADD12C,0.120000*%
%ADD13RoundRect,0.250000X-0.350000X-0.450000X0.350000X-0.450000X0.350000X0.450000X-0.350000X0.450000X0*%
%ADD14O,1.740000X2.190000*%
%ADD15RoundRect,0.250000X-0.620000X-0.845000X0.620000X-0.845000X0.620000X0.845000X-0.620000X0.845000X0*%
%ADD16C,1.500000*%
%ADD17C,3.200000*%
%ADD18RoundRect,0.250000X0.350000X0.450000X-0.350000X0.450000X-0.350000X-0.450000X0.350000X-0.450000X0*%
%ADD19RoundRect,0.250000X-0.845000X0.620000X-0.845000X-0.620000X0.845000X-0.620000X0.845000X0.620000X0*%
%ADD20O,2.190000X1.740000*%
%ADD21C,2.900000*%
%ADD22R,2.100000X1.900000*%
%ADD23O,2.100000X1.900000*%
%ADD24R,1.600000X1.600000*%
%ADD25O,1.600000X1.600000*%
%ADD26RoundRect,0.250000X0.620000X0.845000X-0.620000X0.845000X-0.620000X-0.845000X0.620000X-0.845000X0*%
%ADD27C,1.700000*%
%ADD28RoundRect,0.250000X0.600000X0.600000X-0.600000X0.600000X-0.600000X-0.600000X0.600000X-0.600000X0*%
%ADD29R,1.700000X0.650000*%
%ADD30RoundRect,0.250000X0.845000X-0.620000X0.845000X0.620000X-0.845000X0.620000X-0.845000X-0.620000X0*%
%ADD31R,0.900000X1.200000*%
%ADD32RoundRect,0.250000X0.337500X0.475000X-0.337500X0.475000X-0.337500X-0.475000X0.337500X-0.475000X0*%
%ADD33RoundRect,0.250000X-0.450000X0.350000X-0.450000X-0.350000X0.450000X-0.350000X0.450000X0.350000X0*%
%ADD34C,1.600000*%
%ADD35C,3.000000*%
%ADD36R,1.500000X2.000000*%
%ADD37R,3.800000X2.000000*%
%ADD38RoundRect,0.250000X-0.600000X-0.600000X0.600000X-0.600000X0.600000X0.600000X-0.600000X0.600000X0*%
%ADD39RoundRect,0.250000X0.475000X-0.337500X0.475000X0.337500X-0.475000X0.337500X-0.475000X-0.337500X0*%
%ADD40RoundRect,0.150000X-0.512500X-0.150000X0.512500X-0.150000X0.512500X0.150000X-0.512500X0.150000X0*%
G04 APERTURE END LIST*
D10*
X136603619Y-108793915D02*
X136470571Y-108727391D01*
X136271000Y-108727391D01*
X136071428Y-108793915D01*
X135938380Y-108926962D01*
X135871857Y-109060010D01*
X135805333Y-109326105D01*
X135805333Y-109525676D01*
X135871857Y-109791772D01*
X135938380Y-109924819D01*
X136071428Y-110057867D01*
X136271000Y-110124391D01*
X136404047Y-110124391D01*
X136603619Y-110057867D01*
X136670142Y-109991343D01*
X136670142Y-109525676D01*
X136404047Y-109525676D01*
X137468428Y-110124391D02*
X137335380Y-110057867D01*
X137268857Y-109991343D01*
X137202333Y-109858295D01*
X137202333Y-109459153D01*
X137268857Y-109326105D01*
X137335380Y-109259581D01*
X137468428Y-109193057D01*
X137668000Y-109193057D01*
X137801047Y-109259581D01*
X137867571Y-109326105D01*
X137934095Y-109459153D01*
X137934095Y-109858295D01*
X137867571Y-109991343D01*
X137801047Y-110057867D01*
X137668000Y-110124391D01*
X137468428Y-110124391D01*
X138732380Y-110124391D02*
X138599333Y-110057867D01*
X138532809Y-109991343D01*
X138466285Y-109858295D01*
X138466285Y-109459153D01*
X138532809Y-109326105D01*
X138599333Y-109259581D01*
X138732380Y-109193057D01*
X138931952Y-109193057D01*
X139065000Y-109259581D01*
X139131523Y-109326105D01*
X139198047Y-109459153D01*
X139198047Y-109858295D01*
X139131523Y-109991343D01*
X139065000Y-110057867D01*
X138931952Y-110124391D01*
X138732380Y-110124391D01*
X140395476Y-110124391D02*
X140395476Y-108727391D01*
X140395476Y-110057867D02*
X140262428Y-110124391D01*
X139996333Y-110124391D01*
X139863285Y-110057867D01*
X139796761Y-109991343D01*
X139730238Y-109858295D01*
X139730238Y-109459153D01*
X139796761Y-109326105D01*
X139863285Y-109259581D01*
X139996333Y-109193057D01*
X140262428Y-109193057D01*
X140395476Y-109259581D01*
X140994190Y-108860438D02*
X141060714Y-108793915D01*
X141193761Y-108727391D01*
X141526380Y-108727391D01*
X141659428Y-108793915D01*
X141725952Y-108860438D01*
X141792476Y-108993486D01*
X141792476Y-109126534D01*
X141725952Y-109326105D01*
X140927666Y-110124391D01*
X141792476Y-110124391D01*
X143122952Y-108793915D02*
X142989904Y-108727391D01*
X142790333Y-108727391D01*
X142590761Y-108793915D01*
X142457714Y-108926962D01*
X142391190Y-109060010D01*
X142324666Y-109326105D01*
X142324666Y-109525676D01*
X142391190Y-109791772D01*
X142457714Y-109924819D01*
X142590761Y-110057867D01*
X142790333Y-110124391D01*
X142923380Y-110124391D01*
X143122952Y-110057867D01*
X143189476Y-109991343D01*
X143189476Y-109525676D01*
X142923380Y-109525676D01*
X143987761Y-110124391D02*
X143854714Y-110057867D01*
X143788190Y-109991343D01*
X143721666Y-109858295D01*
X143721666Y-109459153D01*
X143788190Y-109326105D01*
X143854714Y-109259581D01*
X143987761Y-109193057D01*
X144187333Y-109193057D01*
X144320380Y-109259581D01*
X144386904Y-109326105D01*
X144453428Y-109459153D01*
X144453428Y-109858295D01*
X144386904Y-109991343D01*
X144320380Y-110057867D01*
X144187333Y-110124391D01*
X143987761Y-110124391D01*
X146116523Y-110124391D02*
X146116523Y-108727391D01*
X146449142Y-108727391D01*
X146648714Y-108793915D01*
X146781761Y-108926962D01*
X146848285Y-109060010D01*
X146914809Y-109326105D01*
X146914809Y-109525676D01*
X146848285Y-109791772D01*
X146781761Y-109924819D01*
X146648714Y-110057867D01*
X146449142Y-110124391D01*
X146116523Y-110124391D01*
X147513523Y-110124391D02*
X147513523Y-109193057D01*
X147513523Y-108727391D02*
X147447000Y-108793915D01*
X147513523Y-108860438D01*
X147580047Y-108793915D01*
X147513523Y-108727391D01*
X147513523Y-108860438D01*
X148112238Y-110057867D02*
X148245285Y-110124391D01*
X148511380Y-110124391D01*
X148644428Y-110057867D01*
X148710952Y-109924819D01*
X148710952Y-109858295D01*
X148644428Y-109725248D01*
X148511380Y-109658724D01*
X148311809Y-109658724D01*
X148178761Y-109592200D01*
X148112238Y-109459153D01*
X148112238Y-109392629D01*
X148178761Y-109259581D01*
X148311809Y-109193057D01*
X148511380Y-109193057D01*
X148644428Y-109259581D01*
X149309666Y-109193057D02*
X149309666Y-110590057D01*
X149309666Y-109259581D02*
X149442714Y-109193057D01*
X149708809Y-109193057D01*
X149841857Y-109259581D01*
X149908380Y-109326105D01*
X149974904Y-109459153D01*
X149974904Y-109858295D01*
X149908380Y-109991343D01*
X149841857Y-110057867D01*
X149708809Y-110124391D01*
X149442714Y-110124391D01*
X149309666Y-110057867D01*
X151105809Y-110057867D02*
X150972761Y-110124391D01*
X150706666Y-110124391D01*
X150573619Y-110057867D01*
X150507095Y-109924819D01*
X150507095Y-109392629D01*
X150573619Y-109259581D01*
X150706666Y-109193057D01*
X150972761Y-109193057D01*
X151105809Y-109259581D01*
X151172333Y-109392629D01*
X151172333Y-109525676D01*
X150507095Y-109658724D01*
X151771047Y-109193057D02*
X151771047Y-110124391D01*
X151771047Y-109326105D02*
X151837571Y-109259581D01*
X151970619Y-109193057D01*
X152170190Y-109193057D01*
X152303238Y-109259581D01*
X152369761Y-109392629D01*
X152369761Y-110124391D01*
X152968476Y-110057867D02*
X153101523Y-110124391D01*
X153367619Y-110124391D01*
X153500666Y-110057867D01*
X153567190Y-109924819D01*
X153567190Y-109858295D01*
X153500666Y-109725248D01*
X153367619Y-109658724D01*
X153168047Y-109658724D01*
X153035000Y-109592200D01*
X152968476Y-109459153D01*
X152968476Y-109392629D01*
X153035000Y-109259581D01*
X153168047Y-109193057D01*
X153367619Y-109193057D01*
X153500666Y-109259581D01*
X154698095Y-110057867D02*
X154565047Y-110124391D01*
X154298952Y-110124391D01*
X154165904Y-110057867D01*
X154099380Y-109924819D01*
X154099380Y-109392629D01*
X154165904Y-109259581D01*
X154298952Y-109193057D01*
X154565047Y-109193057D01*
X154698095Y-109259581D01*
X154764619Y-109392629D01*
X154764619Y-109525676D01*
X154099380Y-109658724D01*
X155363333Y-110124391D02*
X155363333Y-109193057D01*
X155363333Y-109459153D02*
X155429857Y-109326105D01*
X155496380Y-109259581D01*
X155629428Y-109193057D01*
X155762476Y-109193057D01*
X157292523Y-109592200D02*
X158356904Y-109592200D01*
X160020000Y-110057867D02*
X160219571Y-110124391D01*
X160552190Y-110124391D01*
X160685238Y-110057867D01*
X160751761Y-109991343D01*
X160818285Y-109858295D01*
X160818285Y-109725248D01*
X160751761Y-109592200D01*
X160685238Y-109525676D01*
X160552190Y-109459153D01*
X160286095Y-109392629D01*
X160153047Y-109326105D01*
X160086523Y-109259581D01*
X160020000Y-109126534D01*
X160020000Y-108993486D01*
X160086523Y-108860438D01*
X160153047Y-108793915D01*
X160286095Y-108727391D01*
X160618714Y-108727391D01*
X160818285Y-108793915D01*
X161949190Y-110057867D02*
X161816142Y-110124391D01*
X161550047Y-110124391D01*
X161417000Y-110057867D01*
X161350476Y-109924819D01*
X161350476Y-109392629D01*
X161417000Y-109259581D01*
X161550047Y-109193057D01*
X161816142Y-109193057D01*
X161949190Y-109259581D01*
X162015714Y-109392629D01*
X162015714Y-109525676D01*
X161350476Y-109658724D01*
X162614428Y-109193057D02*
X162614428Y-110124391D01*
X162614428Y-109326105D02*
X162680952Y-109259581D01*
X162814000Y-109193057D01*
X163013571Y-109193057D01*
X163146619Y-109259581D01*
X163213142Y-109392629D01*
X163213142Y-110124391D01*
X163878380Y-110124391D02*
X163878380Y-109193057D01*
X163878380Y-108727391D02*
X163811857Y-108793915D01*
X163878380Y-108860438D01*
X163944904Y-108793915D01*
X163878380Y-108727391D01*
X163878380Y-108860438D01*
X164743190Y-110124391D02*
X164610142Y-110057867D01*
X164543619Y-109991343D01*
X164477095Y-109858295D01*
X164477095Y-109459153D01*
X164543619Y-109326105D01*
X164610142Y-109259581D01*
X164743190Y-109193057D01*
X164942761Y-109193057D01*
X165075809Y-109259581D01*
X165142333Y-109326105D01*
X165208857Y-109459153D01*
X165208857Y-109858295D01*
X165142333Y-109991343D01*
X165075809Y-110057867D01*
X164942761Y-110124391D01*
X164743190Y-110124391D01*
X165807571Y-110124391D02*
X165807571Y-109193057D01*
X165807571Y-109459153D02*
X165874095Y-109326105D01*
X165940619Y-109259581D01*
X166073666Y-109193057D01*
X166206714Y-109193057D01*
X167736761Y-110124391D02*
X167736761Y-108727391D01*
X168069380Y-108727391D01*
X168268952Y-108793915D01*
X168401999Y-108926962D01*
X168468523Y-109060010D01*
X168535047Y-109326105D01*
X168535047Y-109525676D01*
X168468523Y-109791772D01*
X168401999Y-109924819D01*
X168268952Y-110057867D01*
X168069380Y-110124391D01*
X167736761Y-110124391D01*
X169665952Y-110057867D02*
X169532904Y-110124391D01*
X169266809Y-110124391D01*
X169133761Y-110057867D01*
X169067238Y-109924819D01*
X169067238Y-109392629D01*
X169133761Y-109259581D01*
X169266809Y-109193057D01*
X169532904Y-109193057D01*
X169665952Y-109259581D01*
X169732476Y-109392629D01*
X169732476Y-109525676D01*
X169067238Y-109658724D01*
X170264666Y-110057867D02*
X170397714Y-110124391D01*
X170663809Y-110124391D01*
X170796857Y-110057867D01*
X170863380Y-109924819D01*
X170863380Y-109858295D01*
X170796857Y-109725248D01*
X170663809Y-109658724D01*
X170464238Y-109658724D01*
X170331190Y-109592200D01*
X170264666Y-109459153D01*
X170264666Y-109392629D01*
X170331190Y-109259581D01*
X170464238Y-109193057D01*
X170663809Y-109193057D01*
X170796857Y-109259581D01*
X171462095Y-110124391D02*
X171462095Y-109193057D01*
X171462095Y-108727391D02*
X171395571Y-108793915D01*
X171462095Y-108860438D01*
X171528619Y-108793915D01*
X171462095Y-108727391D01*
X171462095Y-108860438D01*
X172726047Y-109193057D02*
X172726047Y-110323962D01*
X172659523Y-110457010D01*
X172593000Y-110523534D01*
X172459952Y-110590057D01*
X172260380Y-110590057D01*
X172127333Y-110523534D01*
X172726047Y-110057867D02*
X172593000Y-110124391D01*
X172326904Y-110124391D01*
X172193857Y-110057867D01*
X172127333Y-109991343D01*
X172060809Y-109858295D01*
X172060809Y-109459153D01*
X172127333Y-109326105D01*
X172193857Y-109259581D01*
X172326904Y-109193057D01*
X172593000Y-109193057D01*
X172726047Y-109259581D01*
X173391285Y-109193057D02*
X173391285Y-110124391D01*
X173391285Y-109326105D02*
X173457809Y-109259581D01*
X173590857Y-109193057D01*
X173790428Y-109193057D01*
X173923476Y-109259581D01*
X173990000Y-109392629D01*
X173990000Y-110124391D01*
X175653095Y-110057867D02*
X175852666Y-110124391D01*
X176185285Y-110124391D01*
X176318333Y-110057867D01*
X176384857Y-109991343D01*
X176451380Y-109858295D01*
X176451380Y-109725248D01*
X176384857Y-109592200D01*
X176318333Y-109525676D01*
X176185285Y-109459153D01*
X175919190Y-109392629D01*
X175786142Y-109326105D01*
X175719619Y-109259581D01*
X175653095Y-109126534D01*
X175653095Y-108993486D01*
X175719619Y-108860438D01*
X175786142Y-108793915D01*
X175919190Y-108727391D01*
X176251809Y-108727391D01*
X176451380Y-108793915D01*
X177050095Y-110124391D02*
X177050095Y-108727391D01*
X177582285Y-108727391D01*
X177715333Y-108793915D01*
X177781857Y-108860438D01*
X177848380Y-108993486D01*
X177848380Y-109193057D01*
X177781857Y-109326105D01*
X177715333Y-109392629D01*
X177582285Y-109459153D01*
X177050095Y-109459153D01*
X178380571Y-108860438D02*
X178447095Y-108793915D01*
X178580142Y-108727391D01*
X178912761Y-108727391D01*
X179045809Y-108793915D01*
X179112333Y-108860438D01*
X179178857Y-108993486D01*
X179178857Y-109126534D01*
X179112333Y-109326105D01*
X178314047Y-110124391D01*
X179178857Y-110124391D01*
X180043666Y-108727391D02*
X180176714Y-108727391D01*
X180309761Y-108793915D01*
X180376285Y-108860438D01*
X180442809Y-108993486D01*
X180509333Y-109259581D01*
X180509333Y-109592200D01*
X180442809Y-109858295D01*
X180376285Y-109991343D01*
X180309761Y-110057867D01*
X180176714Y-110124391D01*
X180043666Y-110124391D01*
X179910619Y-110057867D01*
X179844095Y-109991343D01*
X179777571Y-109858295D01*
X179711047Y-109592200D01*
X179711047Y-109259581D01*
X179777571Y-108993486D01*
X179844095Y-108860438D01*
X179910619Y-108793915D01*
X180043666Y-108727391D01*
X181041523Y-108860438D02*
X181108047Y-108793915D01*
X181241095Y-108727391D01*
X181573714Y-108727391D01*
X181706761Y-108793915D01*
X181773285Y-108860438D01*
X181839809Y-108993486D01*
X181839809Y-109126534D01*
X181773285Y-109326105D01*
X180975000Y-110124391D01*
X181839809Y-110124391D01*
X182372000Y-108860438D02*
X182438523Y-108793915D01*
X182571571Y-108727391D01*
X182904190Y-108727391D01*
X183037238Y-108793915D01*
X183103761Y-108860438D01*
X183170285Y-108993486D01*
X183170285Y-109126534D01*
X183103761Y-109326105D01*
X182305476Y-110124391D01*
X183170285Y-110124391D01*
X139663714Y-111974418D02*
X140328952Y-111974418D01*
X139530666Y-112373561D02*
X139996333Y-110976561D01*
X140462000Y-112373561D01*
X140927666Y-112373561D02*
X140927666Y-111442227D01*
X140927666Y-111708323D02*
X140994190Y-111575275D01*
X141060714Y-111508751D01*
X141193761Y-111442227D01*
X141326809Y-111442227D01*
X141792476Y-112373561D02*
X141792476Y-111442227D01*
X141792476Y-110976561D02*
X141725952Y-111043085D01*
X141792476Y-111109608D01*
X141859000Y-111043085D01*
X141792476Y-110976561D01*
X141792476Y-111109608D01*
X142657285Y-112373561D02*
X142524238Y-112307037D01*
X142457714Y-112240513D01*
X142391190Y-112107465D01*
X142391190Y-111708323D01*
X142457714Y-111575275D01*
X142524238Y-111508751D01*
X142657285Y-111442227D01*
X142856857Y-111442227D01*
X142989904Y-111508751D01*
X143056428Y-111575275D01*
X143122952Y-111708323D01*
X143122952Y-112107465D01*
X143056428Y-112240513D01*
X142989904Y-112307037D01*
X142856857Y-112373561D01*
X142657285Y-112373561D01*
X144320380Y-112307037D02*
X144187333Y-112373561D01*
X143921238Y-112373561D01*
X143788190Y-112307037D01*
X143721666Y-112240513D01*
X143655142Y-112107465D01*
X143655142Y-111708323D01*
X143721666Y-111575275D01*
X143788190Y-111508751D01*
X143921238Y-111442227D01*
X144187333Y-111442227D01*
X144320380Y-111508751D01*
X144919095Y-112373561D02*
X144919095Y-111442227D01*
X144919095Y-110976561D02*
X144852571Y-111043085D01*
X144919095Y-111109608D01*
X144985619Y-111043085D01*
X144919095Y-110976561D01*
X144919095Y-111109608D01*
X146116523Y-112307037D02*
X145983476Y-112373561D01*
X145717380Y-112373561D01*
X145584333Y-112307037D01*
X145517809Y-112173989D01*
X145517809Y-111641799D01*
X145584333Y-111508751D01*
X145717380Y-111442227D01*
X145983476Y-111442227D01*
X146116523Y-111508751D01*
X146183047Y-111641799D01*
X146183047Y-111774846D01*
X145517809Y-111907894D01*
X148511380Y-112373561D02*
X147846142Y-112373561D01*
X147846142Y-110976561D01*
X148977047Y-112373561D02*
X148977047Y-111442227D01*
X148977047Y-110976561D02*
X148910523Y-111043085D01*
X148977047Y-111109608D01*
X149043571Y-111043085D01*
X148977047Y-110976561D01*
X148977047Y-111109608D01*
X150241000Y-112373561D02*
X150241000Y-111641799D01*
X150174476Y-111508751D01*
X150041428Y-111442227D01*
X149775333Y-111442227D01*
X149642285Y-111508751D01*
X150241000Y-112307037D02*
X150107952Y-112373561D01*
X149775333Y-112373561D01*
X149642285Y-112307037D01*
X149575761Y-112173989D01*
X149575761Y-112040942D01*
X149642285Y-111907894D01*
X149775333Y-111841370D01*
X150107952Y-111841370D01*
X150241000Y-111774846D01*
X150906238Y-111442227D02*
X150906238Y-112373561D01*
X150906238Y-111575275D02*
X150972761Y-111508751D01*
X151105809Y-111442227D01*
X151305380Y-111442227D01*
X151438428Y-111508751D01*
X151504952Y-111641799D01*
X151504952Y-112373561D01*
X152768904Y-111442227D02*
X152768904Y-112573132D01*
X152702380Y-112706180D01*
X152635857Y-112772704D01*
X152502809Y-112839227D01*
X152303238Y-112839227D01*
X152170190Y-112772704D01*
X152768904Y-112307037D02*
X152635857Y-112373561D01*
X152369761Y-112373561D01*
X152236714Y-112307037D01*
X152170190Y-112240513D01*
X152103666Y-112107465D01*
X152103666Y-111708323D01*
X152170190Y-111575275D01*
X152236714Y-111508751D01*
X152369761Y-111442227D01*
X152635857Y-111442227D01*
X152768904Y-111508751D01*
X154498523Y-112240513D02*
X154565047Y-112307037D01*
X154498523Y-112373561D01*
X154432000Y-112307037D01*
X154498523Y-112240513D01*
X154498523Y-112373561D01*
X154498523Y-111508751D02*
X154565047Y-111575275D01*
X154498523Y-111641799D01*
X154432000Y-111575275D01*
X154498523Y-111508751D01*
X154498523Y-111641799D01*
X156627285Y-110976561D02*
X156627285Y-111974418D01*
X156560761Y-112173989D01*
X156427714Y-112307037D01*
X156228142Y-112373561D01*
X156095095Y-112373561D01*
X157492095Y-112373561D02*
X157359047Y-112307037D01*
X157292523Y-112240513D01*
X157226000Y-112107465D01*
X157226000Y-111708323D01*
X157292523Y-111575275D01*
X157359047Y-111508751D01*
X157492095Y-111442227D01*
X157691666Y-111442227D01*
X157824714Y-111508751D01*
X157891238Y-111575275D01*
X157957761Y-111708323D01*
X157957761Y-112107465D01*
X157891238Y-112240513D01*
X157824714Y-112307037D01*
X157691666Y-112373561D01*
X157492095Y-112373561D01*
X158556476Y-112373561D02*
X158556476Y-110976561D01*
X159155190Y-112373561D02*
X159155190Y-111641799D01*
X159088666Y-111508751D01*
X158955619Y-111442227D01*
X158756047Y-111442227D01*
X158623000Y-111508751D01*
X158556476Y-111575275D01*
X159820428Y-111442227D02*
X159820428Y-112373561D01*
X159820428Y-111575275D02*
X159886952Y-111508751D01*
X160020000Y-111442227D01*
X160219571Y-111442227D01*
X160352619Y-111508751D01*
X160419142Y-111641799D01*
X160419142Y-112373561D01*
X162148761Y-112373561D02*
X162148761Y-110976561D01*
X162947047Y-112373561D02*
X162348333Y-111575275D01*
X162947047Y-110976561D02*
X162148761Y-111774846D01*
X163545761Y-112373561D02*
X163545761Y-111442227D01*
X163545761Y-110976561D02*
X163479238Y-111043085D01*
X163545761Y-111109608D01*
X163612285Y-111043085D01*
X163545761Y-110976561D01*
X163545761Y-111109608D01*
X164211000Y-112373561D02*
X164211000Y-111442227D01*
X164211000Y-111575275D02*
X164277523Y-111508751D01*
X164410571Y-111442227D01*
X164610142Y-111442227D01*
X164743190Y-111508751D01*
X164809714Y-111641799D01*
X164809714Y-112373561D01*
X164809714Y-111641799D02*
X164876238Y-111508751D01*
X165009285Y-111442227D01*
X165208857Y-111442227D01*
X165341904Y-111508751D01*
X165408428Y-111641799D01*
X165408428Y-112373561D01*
X167138047Y-112240513D02*
X167204571Y-112307037D01*
X167138047Y-112373561D01*
X167071523Y-112307037D01*
X167138047Y-112240513D01*
X167138047Y-112373561D01*
X167138047Y-111508751D02*
X167204571Y-111575275D01*
X167138047Y-111641799D01*
X167071523Y-111575275D01*
X167138047Y-111508751D01*
X167138047Y-111641799D01*
X168867666Y-112373561D02*
X168867666Y-110976561D01*
X168867666Y-111641799D02*
X169665952Y-111641799D01*
X169665952Y-112373561D02*
X169665952Y-110976561D01*
X170863380Y-112307037D02*
X170730333Y-112373561D01*
X170464238Y-112373561D01*
X170331190Y-112307037D01*
X170264666Y-112173989D01*
X170264666Y-111641799D01*
X170331190Y-111508751D01*
X170464238Y-111442227D01*
X170730333Y-111442227D01*
X170863380Y-111508751D01*
X170929904Y-111641799D01*
X170929904Y-111774846D01*
X170264666Y-111907894D01*
X171528619Y-111442227D02*
X171528619Y-112373561D01*
X171528619Y-111575275D02*
X171595142Y-111508751D01*
X171728190Y-111442227D01*
X171927761Y-111442227D01*
X172060809Y-111508751D01*
X172127333Y-111641799D01*
X172127333Y-112373561D01*
X172792571Y-112373561D02*
X172792571Y-111442227D01*
X172792571Y-111708323D02*
X172859095Y-111575275D01*
X172925619Y-111508751D01*
X173058666Y-111442227D01*
X173191714Y-111442227D01*
X173524333Y-111442227D02*
X173856952Y-112373561D01*
X174189571Y-111442227D02*
X173856952Y-112373561D01*
X173723904Y-112706180D01*
X173657380Y-112772704D01*
X173524333Y-112839227D01*
X176517904Y-111043085D02*
X176384857Y-110976561D01*
X176185285Y-110976561D01*
X175985714Y-111043085D01*
X175852666Y-111176132D01*
X175786142Y-111309180D01*
X175719619Y-111575275D01*
X175719619Y-111774846D01*
X175786142Y-112040942D01*
X175852666Y-112173989D01*
X175985714Y-112307037D01*
X176185285Y-112373561D01*
X176318333Y-112373561D01*
X176517904Y-112307037D01*
X176584428Y-112240513D01*
X176584428Y-111774846D01*
X176318333Y-111774846D01*
X177781857Y-111442227D02*
X177781857Y-112373561D01*
X177183142Y-111442227D02*
X177183142Y-112173989D01*
X177249666Y-112307037D01*
X177382714Y-112373561D01*
X177582285Y-112373561D01*
X177715333Y-112307037D01*
X177781857Y-112240513D01*
X179045809Y-112373561D02*
X179045809Y-111641799D01*
X178979285Y-111508751D01*
X178846238Y-111442227D01*
X178580142Y-111442227D01*
X178447095Y-111508751D01*
X179045809Y-112307037D02*
X178912761Y-112373561D01*
X178580142Y-112373561D01*
X178447095Y-112307037D01*
X178380571Y-112173989D01*
X178380571Y-112040942D01*
X178447095Y-111907894D01*
X178580142Y-111841370D01*
X178912761Y-111841370D01*
X179045809Y-111774846D01*
X179711047Y-111442227D02*
X179711047Y-112373561D01*
X179711047Y-111575275D02*
X179777571Y-111508751D01*
X179910619Y-111442227D01*
X180110190Y-111442227D01*
X180243238Y-111508751D01*
X180309761Y-111641799D01*
X180309761Y-112373561D01*
D11*
%TO.C,R11*%
X179834142Y-129103380D02*
X179500809Y-128627190D01*
X179262714Y-129103380D02*
X179262714Y-128103380D01*
X179643666Y-128103380D01*
X179738904Y-128151000D01*
X179786523Y-128198619D01*
X179834142Y-128293857D01*
X179834142Y-128436714D01*
X179786523Y-128531952D01*
X179738904Y-128579571D01*
X179643666Y-128627190D01*
X179262714Y-128627190D01*
X180786523Y-129103380D02*
X180215095Y-129103380D01*
X180500809Y-129103380D02*
X180500809Y-128103380D01*
X180405571Y-128246238D01*
X180310333Y-128341476D01*
X180215095Y-128389095D01*
X181738904Y-129103380D02*
X181167476Y-129103380D01*
X181453190Y-129103380D02*
X181453190Y-128103380D01*
X181357952Y-128246238D01*
X181262714Y-128341476D01*
X181167476Y-128389095D01*
%TO.C,J12*%
X183660987Y-95203869D02*
X183660987Y-95918155D01*
X183613368Y-96061012D01*
X183518130Y-96156250D01*
X183375272Y-96203869D01*
X183280034Y-96203869D01*
X184660987Y-96203869D02*
X184089558Y-96203869D01*
X184375272Y-96203869D02*
X184375272Y-95203869D01*
X184280034Y-95346727D01*
X184184796Y-95441965D01*
X184089558Y-95489584D01*
X185041939Y-95299108D02*
X185089558Y-95251489D01*
X185184796Y-95203869D01*
X185422891Y-95203869D01*
X185518130Y-95251489D01*
X185565749Y-95299108D01*
X185613368Y-95394346D01*
X185613368Y-95489584D01*
X185565749Y-95632441D01*
X184994320Y-96203869D01*
X185613368Y-96203869D01*
%TO.C,R4*%
X171095844Y-104363869D02*
X170762511Y-103887679D01*
X170524415Y-104363869D02*
X170524415Y-103363869D01*
X170905368Y-103363869D01*
X171000606Y-103411489D01*
X171048225Y-103459108D01*
X171095844Y-103554346D01*
X171095844Y-103697203D01*
X171048225Y-103792441D01*
X171000606Y-103840060D01*
X170905368Y-103887679D01*
X170524415Y-103887679D01*
X171952987Y-103697203D02*
X171952987Y-104363869D01*
X171714891Y-103316250D02*
X171476796Y-104030536D01*
X172095844Y-104030536D01*
%TO.C,Y1*%
X106016701Y-89005190D02*
X106492891Y-89005190D01*
X105492891Y-89338523D02*
X106016701Y-89005190D01*
X105492891Y-88671857D01*
X106492891Y-87814714D02*
X106492891Y-88386142D01*
X106492891Y-88100428D02*
X105492891Y-88100428D01*
X105635749Y-88195666D01*
X105730987Y-88290904D01*
X105778606Y-88386142D01*
%TO.C,R14*%
X179834142Y-136723380D02*
X179500809Y-136247190D01*
X179262714Y-136723380D02*
X179262714Y-135723380D01*
X179643666Y-135723380D01*
X179738904Y-135771000D01*
X179786523Y-135818619D01*
X179834142Y-135913857D01*
X179834142Y-136056714D01*
X179786523Y-136151952D01*
X179738904Y-136199571D01*
X179643666Y-136247190D01*
X179262714Y-136247190D01*
X180786523Y-136723380D02*
X180215095Y-136723380D01*
X180500809Y-136723380D02*
X180500809Y-135723380D01*
X180405571Y-135866238D01*
X180310333Y-135961476D01*
X180215095Y-136009095D01*
X181643666Y-136056714D02*
X181643666Y-136723380D01*
X181405571Y-135675761D02*
X181167476Y-136390047D01*
X181786523Y-136390047D01*
%TO.C,H2*%
X103378095Y-108266380D02*
X103378095Y-107266380D01*
X103378095Y-107742571D02*
X103949523Y-107742571D01*
X103949523Y-108266380D02*
X103949523Y-107266380D01*
X104378095Y-107361619D02*
X104425714Y-107314000D01*
X104520952Y-107266380D01*
X104759047Y-107266380D01*
X104854285Y-107314000D01*
X104901904Y-107361619D01*
X104949523Y-107456857D01*
X104949523Y-107552095D01*
X104901904Y-107694952D01*
X104330476Y-108266380D01*
X104949523Y-108266380D01*
%TO.C,R1*%
X112700844Y-62808380D02*
X112367511Y-62332190D01*
X112129415Y-62808380D02*
X112129415Y-61808380D01*
X112510368Y-61808380D01*
X112605606Y-61856000D01*
X112653225Y-61903619D01*
X112700844Y-61998857D01*
X112700844Y-62141714D01*
X112653225Y-62236952D01*
X112605606Y-62284571D01*
X112510368Y-62332190D01*
X112129415Y-62332190D01*
X113653225Y-62808380D02*
X113081796Y-62808380D01*
X113367511Y-62808380D02*
X113367511Y-61808380D01*
X113272272Y-61951238D01*
X113177034Y-62046476D01*
X113081796Y-62094095D01*
%TO.C,H9*%
X187579095Y-117283380D02*
X187579095Y-116283380D01*
X187579095Y-116759571D02*
X188150523Y-116759571D01*
X188150523Y-117283380D02*
X188150523Y-116283380D01*
X188674333Y-117283380D02*
X188864809Y-117283380D01*
X188960047Y-117235761D01*
X189007666Y-117188142D01*
X189102904Y-117045285D01*
X189150523Y-116854809D01*
X189150523Y-116473857D01*
X189102904Y-116378619D01*
X189055285Y-116331000D01*
X188960047Y-116283380D01*
X188769571Y-116283380D01*
X188674333Y-116331000D01*
X188626714Y-116378619D01*
X188579095Y-116473857D01*
X188579095Y-116711952D01*
X188626714Y-116807190D01*
X188674333Y-116854809D01*
X188769571Y-116902428D01*
X188960047Y-116902428D01*
X189055285Y-116854809D01*
X189102904Y-116807190D01*
X189150523Y-116711952D01*
%TO.C,A1*%
X156324225Y-63326155D02*
X156800415Y-63326155D01*
X156228987Y-63611869D02*
X156562320Y-62611869D01*
X156895653Y-63611869D01*
X157752796Y-63611869D02*
X157181368Y-63611869D01*
X157467082Y-63611869D02*
X157467082Y-62611869D01*
X157371844Y-62754727D01*
X157276606Y-62849965D01*
X157181368Y-62897584D01*
%TO.C,U1*%
X118465606Y-63680380D02*
X118465606Y-64489904D01*
X118513225Y-64585142D01*
X118560844Y-64632761D01*
X118656082Y-64680380D01*
X118846558Y-64680380D01*
X118941796Y-64632761D01*
X118989415Y-64585142D01*
X119037034Y-64489904D01*
X119037034Y-63680380D01*
X120037034Y-64680380D02*
X119465606Y-64680380D01*
X119751320Y-64680380D02*
X119751320Y-63680380D01*
X119656082Y-63823238D01*
X119560844Y-63918476D01*
X119465606Y-63966095D01*
%TO.C,J8*%
X163055177Y-51221869D02*
X163055177Y-51936155D01*
X163007558Y-52079012D01*
X162912320Y-52174250D01*
X162769463Y-52221869D01*
X162674225Y-52221869D01*
X163674225Y-51650441D02*
X163578987Y-51602822D01*
X163531368Y-51555203D01*
X163483749Y-51459965D01*
X163483749Y-51412346D01*
X163531368Y-51317108D01*
X163578987Y-51269489D01*
X163674225Y-51221869D01*
X163864701Y-51221869D01*
X163959939Y-51269489D01*
X164007558Y-51317108D01*
X164055177Y-51412346D01*
X164055177Y-51459965D01*
X164007558Y-51555203D01*
X163959939Y-51602822D01*
X163864701Y-51650441D01*
X163674225Y-51650441D01*
X163578987Y-51698060D01*
X163531368Y-51745679D01*
X163483749Y-51840917D01*
X163483749Y-52031393D01*
X163531368Y-52126631D01*
X163578987Y-52174250D01*
X163674225Y-52221869D01*
X163864701Y-52221869D01*
X163959939Y-52174250D01*
X164007558Y-52126631D01*
X164055177Y-52031393D01*
X164055177Y-51840917D01*
X164007558Y-51745679D01*
X163959939Y-51698060D01*
X163864701Y-51650441D01*
%TO.C,J2*%
X107708177Y-95154380D02*
X107708177Y-95868666D01*
X107660558Y-96011523D01*
X107565320Y-96106761D01*
X107422463Y-96154380D01*
X107327225Y-96154380D01*
X108136749Y-95249619D02*
X108184368Y-95202000D01*
X108279606Y-95154380D01*
X108517701Y-95154380D01*
X108612939Y-95202000D01*
X108660558Y-95249619D01*
X108708177Y-95344857D01*
X108708177Y-95440095D01*
X108660558Y-95582952D01*
X108089130Y-96154380D01*
X108708177Y-96154380D01*
%TO.C,J15*%
X172992987Y-63996869D02*
X172992987Y-64711155D01*
X172945368Y-64854012D01*
X172850130Y-64949250D01*
X172707272Y-64996869D01*
X172612034Y-64996869D01*
X173992987Y-64996869D02*
X173421558Y-64996869D01*
X173707272Y-64996869D02*
X173707272Y-63996869D01*
X173612034Y-64139727D01*
X173516796Y-64234965D01*
X173421558Y-64282584D01*
X174897749Y-63996869D02*
X174421558Y-63996869D01*
X174373939Y-64473060D01*
X174421558Y-64425441D01*
X174516796Y-64377822D01*
X174754891Y-64377822D01*
X174850130Y-64425441D01*
X174897749Y-64473060D01*
X174945368Y-64568298D01*
X174945368Y-64806393D01*
X174897749Y-64901631D01*
X174850130Y-64949250D01*
X174754891Y-64996869D01*
X174516796Y-64996869D01*
X174421558Y-64949250D01*
X174373939Y-64901631D01*
%TO.C,H10*%
X157638904Y-138374380D02*
X157638904Y-137374380D01*
X157638904Y-137850571D02*
X158210333Y-137850571D01*
X158210333Y-138374380D02*
X158210333Y-137374380D01*
X159210333Y-138374380D02*
X158638904Y-138374380D01*
X158924619Y-138374380D02*
X158924619Y-137374380D01*
X158829380Y-137517238D01*
X158734142Y-137612476D01*
X158638904Y-137660095D01*
X159829380Y-137374380D02*
X159924619Y-137374380D01*
X160019857Y-137422000D01*
X160067476Y-137469619D01*
X160115095Y-137564857D01*
X160162714Y-137755333D01*
X160162714Y-137993428D01*
X160115095Y-138183904D01*
X160067476Y-138279142D01*
X160019857Y-138326761D01*
X159924619Y-138374380D01*
X159829380Y-138374380D01*
X159734142Y-138326761D01*
X159686523Y-138279142D01*
X159638904Y-138183904D01*
X159591285Y-137993428D01*
X159591285Y-137755333D01*
X159638904Y-137564857D01*
X159686523Y-137469619D01*
X159734142Y-137422000D01*
X159829380Y-137374380D01*
%TO.C,U5*%
X173548606Y-68308869D02*
X173548606Y-69118393D01*
X173596225Y-69213631D01*
X173643844Y-69261250D01*
X173739082Y-69308869D01*
X173929558Y-69308869D01*
X174024796Y-69261250D01*
X174072415Y-69213631D01*
X174120034Y-69118393D01*
X174120034Y-68308869D01*
X175072415Y-68308869D02*
X174596225Y-68308869D01*
X174548606Y-68785060D01*
X174596225Y-68737441D01*
X174691463Y-68689822D01*
X174929558Y-68689822D01*
X175024796Y-68737441D01*
X175072415Y-68785060D01*
X175120034Y-68880298D01*
X175120034Y-69118393D01*
X175072415Y-69213631D01*
X175024796Y-69261250D01*
X174929558Y-69308869D01*
X174691463Y-69308869D01*
X174596225Y-69261250D01*
X174548606Y-69213631D01*
%TO.C,D2*%
X184367415Y-69532869D02*
X184367415Y-68532869D01*
X184605511Y-68532869D01*
X184748368Y-68580489D01*
X184843606Y-68675727D01*
X184891225Y-68770965D01*
X184938844Y-68961441D01*
X184938844Y-69104298D01*
X184891225Y-69294774D01*
X184843606Y-69390012D01*
X184748368Y-69485250D01*
X184605511Y-69532869D01*
X184367415Y-69532869D01*
X185319796Y-68628108D02*
X185367415Y-68580489D01*
X185462653Y-68532869D01*
X185700749Y-68532869D01*
X185795987Y-68580489D01*
X185843606Y-68628108D01*
X185891225Y-68723346D01*
X185891225Y-68818584D01*
X185843606Y-68961441D01*
X185272177Y-69532869D01*
X185891225Y-69532869D01*
%TO.C,H1*%
X101346095Y-44766380D02*
X101346095Y-43766380D01*
X101346095Y-44242571D02*
X101917523Y-44242571D01*
X101917523Y-44766380D02*
X101917523Y-43766380D01*
X102917523Y-44766380D02*
X102346095Y-44766380D01*
X102631809Y-44766380D02*
X102631809Y-43766380D01*
X102536571Y-43909238D01*
X102441333Y-44004476D01*
X102346095Y-44052095D01*
%TO.C,H5*%
X131826095Y-44766380D02*
X131826095Y-43766380D01*
X131826095Y-44242571D02*
X132397523Y-44242571D01*
X132397523Y-44766380D02*
X132397523Y-43766380D01*
X133349904Y-43766380D02*
X132873714Y-43766380D01*
X132826095Y-44242571D01*
X132873714Y-44194952D01*
X132968952Y-44147333D01*
X133207047Y-44147333D01*
X133302285Y-44194952D01*
X133349904Y-44242571D01*
X133397523Y-44337809D01*
X133397523Y-44575904D01*
X133349904Y-44671142D01*
X133302285Y-44718761D01*
X133207047Y-44766380D01*
X132968952Y-44766380D01*
X132873714Y-44718761D01*
X132826095Y-44671142D01*
%TO.C,C4*%
X186081844Y-72800631D02*
X186034225Y-72848250D01*
X185891368Y-72895869D01*
X185796130Y-72895869D01*
X185653272Y-72848250D01*
X185558034Y-72753012D01*
X185510415Y-72657774D01*
X185462796Y-72467298D01*
X185462796Y-72324441D01*
X185510415Y-72133965D01*
X185558034Y-72038727D01*
X185653272Y-71943489D01*
X185796130Y-71895869D01*
X185891368Y-71895869D01*
X186034225Y-71943489D01*
X186081844Y-71991108D01*
X186938987Y-72229203D02*
X186938987Y-72895869D01*
X186700891Y-71848250D02*
X186462796Y-72562536D01*
X187081844Y-72562536D01*
%TO.C,C2*%
X103281344Y-88651142D02*
X103233725Y-88698761D01*
X103090868Y-88746380D01*
X102995630Y-88746380D01*
X102852772Y-88698761D01*
X102757534Y-88603523D01*
X102709915Y-88508285D01*
X102662296Y-88317809D01*
X102662296Y-88174952D01*
X102709915Y-87984476D01*
X102757534Y-87889238D01*
X102852772Y-87794000D01*
X102995630Y-87746380D01*
X103090868Y-87746380D01*
X103233725Y-87794000D01*
X103281344Y-87841619D01*
X103662296Y-87841619D02*
X103709915Y-87794000D01*
X103805153Y-87746380D01*
X104043249Y-87746380D01*
X104138487Y-87794000D01*
X104186106Y-87841619D01*
X104233725Y-87936857D01*
X104233725Y-88032095D01*
X104186106Y-88174952D01*
X103614677Y-88746380D01*
X104233725Y-88746380D01*
%TO.C,R13*%
X179834142Y-134310380D02*
X179500809Y-133834190D01*
X179262714Y-134310380D02*
X179262714Y-133310380D01*
X179643666Y-133310380D01*
X179738904Y-133358000D01*
X179786523Y-133405619D01*
X179834142Y-133500857D01*
X179834142Y-133643714D01*
X179786523Y-133738952D01*
X179738904Y-133786571D01*
X179643666Y-133834190D01*
X179262714Y-133834190D01*
X180786523Y-134310380D02*
X180215095Y-134310380D01*
X180500809Y-134310380D02*
X180500809Y-133310380D01*
X180405571Y-133453238D01*
X180310333Y-133548476D01*
X180215095Y-133596095D01*
X181119857Y-133310380D02*
X181738904Y-133310380D01*
X181405571Y-133691333D01*
X181548428Y-133691333D01*
X181643666Y-133738952D01*
X181691285Y-133786571D01*
X181738904Y-133881809D01*
X181738904Y-134119904D01*
X181691285Y-134215142D01*
X181643666Y-134262761D01*
X181548428Y-134310380D01*
X181262714Y-134310380D01*
X181167476Y-134262761D01*
X181119857Y-134215142D01*
%TO.C,H3*%
X131826095Y-108266380D02*
X131826095Y-107266380D01*
X131826095Y-107742571D02*
X132397523Y-107742571D01*
X132397523Y-108266380D02*
X132397523Y-107266380D01*
X132778476Y-107266380D02*
X133397523Y-107266380D01*
X133064190Y-107647333D01*
X133207047Y-107647333D01*
X133302285Y-107694952D01*
X133349904Y-107742571D01*
X133397523Y-107837809D01*
X133397523Y-108075904D01*
X133349904Y-108171142D01*
X133302285Y-108218761D01*
X133207047Y-108266380D01*
X132921333Y-108266380D01*
X132826095Y-108218761D01*
X132778476Y-108171142D01*
%TO.C,R6*%
X168030891Y-78423155D02*
X167554701Y-78756489D01*
X168030891Y-78994584D02*
X167030891Y-78994584D01*
X167030891Y-78613631D01*
X167078511Y-78518393D01*
X167126130Y-78470774D01*
X167221368Y-78423155D01*
X167364225Y-78423155D01*
X167459463Y-78470774D01*
X167507082Y-78518393D01*
X167554701Y-78613631D01*
X167554701Y-78994584D01*
X167030891Y-77566012D02*
X167030891Y-77756489D01*
X167078511Y-77851727D01*
X167126130Y-77899346D01*
X167268987Y-77994584D01*
X167459463Y-78042203D01*
X167840415Y-78042203D01*
X167935653Y-77994584D01*
X167983272Y-77946965D01*
X168030891Y-77851727D01*
X168030891Y-77661250D01*
X167983272Y-77566012D01*
X167935653Y-77518393D01*
X167840415Y-77470774D01*
X167602320Y-77470774D01*
X167507082Y-77518393D01*
X167459463Y-77566012D01*
X167411844Y-77661250D01*
X167411844Y-77851727D01*
X167459463Y-77946965D01*
X167507082Y-77994584D01*
X167602320Y-78042203D01*
%TO.C,J9*%
X149649177Y-59521869D02*
X149649177Y-60236155D01*
X149601558Y-60379012D01*
X149506320Y-60474250D01*
X149363463Y-60521869D01*
X149268225Y-60521869D01*
X150172987Y-60521869D02*
X150363463Y-60521869D01*
X150458701Y-60474250D01*
X150506320Y-60426631D01*
X150601558Y-60283774D01*
X150649177Y-60093298D01*
X150649177Y-59712346D01*
X150601558Y-59617108D01*
X150553939Y-59569489D01*
X150458701Y-59521869D01*
X150268225Y-59521869D01*
X150172987Y-59569489D01*
X150125368Y-59617108D01*
X150077749Y-59712346D01*
X150077749Y-59950441D01*
X150125368Y-60045679D01*
X150172987Y-60093298D01*
X150268225Y-60140917D01*
X150458701Y-60140917D01*
X150553939Y-60093298D01*
X150601558Y-60045679D01*
X150649177Y-59950441D01*
%TO.C,U2*%
X109072891Y-66293904D02*
X109882415Y-66293904D01*
X109977653Y-66246285D01*
X110025272Y-66198666D01*
X110072891Y-66103428D01*
X110072891Y-65912952D01*
X110025272Y-65817714D01*
X109977653Y-65770095D01*
X109882415Y-65722476D01*
X109072891Y-65722476D01*
X109168130Y-65293904D02*
X109120511Y-65246285D01*
X109072891Y-65151047D01*
X109072891Y-64912952D01*
X109120511Y-64817714D01*
X109168130Y-64770095D01*
X109263368Y-64722476D01*
X109358606Y-64722476D01*
X109501463Y-64770095D01*
X110072891Y-65341523D01*
X110072891Y-64722476D01*
%TO.C,R8*%
X179802333Y-121356380D02*
X179469000Y-120880190D01*
X179230904Y-121356380D02*
X179230904Y-120356380D01*
X179611857Y-120356380D01*
X179707095Y-120404000D01*
X179754714Y-120451619D01*
X179802333Y-120546857D01*
X179802333Y-120689714D01*
X179754714Y-120784952D01*
X179707095Y-120832571D01*
X179611857Y-120880190D01*
X179230904Y-120880190D01*
X180373761Y-120784952D02*
X180278523Y-120737333D01*
X180230904Y-120689714D01*
X180183285Y-120594476D01*
X180183285Y-120546857D01*
X180230904Y-120451619D01*
X180278523Y-120404000D01*
X180373761Y-120356380D01*
X180564238Y-120356380D01*
X180659476Y-120404000D01*
X180707095Y-120451619D01*
X180754714Y-120546857D01*
X180754714Y-120594476D01*
X180707095Y-120689714D01*
X180659476Y-120737333D01*
X180564238Y-120784952D01*
X180373761Y-120784952D01*
X180278523Y-120832571D01*
X180230904Y-120880190D01*
X180183285Y-120975428D01*
X180183285Y-121165904D01*
X180230904Y-121261142D01*
X180278523Y-121308761D01*
X180373761Y-121356380D01*
X180564238Y-121356380D01*
X180659476Y-121308761D01*
X180707095Y-121261142D01*
X180754714Y-121165904D01*
X180754714Y-120975428D01*
X180707095Y-120880190D01*
X180659476Y-120832571D01*
X180564238Y-120784952D01*
%TO.C,J13*%
X185692987Y-81462869D02*
X185692987Y-82177155D01*
X185645368Y-82320012D01*
X185550130Y-82415250D01*
X185407272Y-82462869D01*
X185312034Y-82462869D01*
X186692987Y-82462869D02*
X186121558Y-82462869D01*
X186407272Y-82462869D02*
X186407272Y-81462869D01*
X186312034Y-81605727D01*
X186216796Y-81700965D01*
X186121558Y-81748584D01*
X187026320Y-81462869D02*
X187645368Y-81462869D01*
X187312034Y-81843822D01*
X187454891Y-81843822D01*
X187550130Y-81891441D01*
X187597749Y-81939060D01*
X187645368Y-82034298D01*
X187645368Y-82272393D01*
X187597749Y-82367631D01*
X187550130Y-82415250D01*
X187454891Y-82462869D01*
X187169177Y-82462869D01*
X187073939Y-82415250D01*
X187026320Y-82367631D01*
%TO.C,J1*%
X120281177Y-101885380D02*
X120281177Y-102599666D01*
X120233558Y-102742523D01*
X120138320Y-102837761D01*
X119995463Y-102885380D01*
X119900225Y-102885380D01*
X121281177Y-102885380D02*
X120709749Y-102885380D01*
X120995463Y-102885380D02*
X120995463Y-101885380D01*
X120900225Y-102028238D01*
X120804987Y-102123476D01*
X120709749Y-102171095D01*
%TO.C,J4*%
X131502166Y-86184380D02*
X131502166Y-86898666D01*
X131454547Y-87041523D01*
X131359309Y-87136761D01*
X131216452Y-87184380D01*
X131121214Y-87184380D01*
X132406928Y-86517714D02*
X132406928Y-87184380D01*
X132168833Y-86136761D02*
X131930738Y-86851047D01*
X132549785Y-86851047D01*
%TO.C,H7*%
X183515095Y-108012380D02*
X183515095Y-107012380D01*
X183515095Y-107488571D02*
X184086523Y-107488571D01*
X184086523Y-108012380D02*
X184086523Y-107012380D01*
X184467476Y-107012380D02*
X185134142Y-107012380D01*
X184705571Y-108012380D01*
%TO.C,J10*%
X184041987Y-54665869D02*
X184041987Y-55380155D01*
X183994368Y-55523012D01*
X183899130Y-55618250D01*
X183756272Y-55665869D01*
X183661034Y-55665869D01*
X185041987Y-55665869D02*
X184470558Y-55665869D01*
X184756272Y-55665869D02*
X184756272Y-54665869D01*
X184661034Y-54808727D01*
X184565796Y-54903965D01*
X184470558Y-54951584D01*
X185661034Y-54665869D02*
X185756272Y-54665869D01*
X185851511Y-54713489D01*
X185899130Y-54761108D01*
X185946749Y-54856346D01*
X185994368Y-55046822D01*
X185994368Y-55284917D01*
X185946749Y-55475393D01*
X185899130Y-55570631D01*
X185851511Y-55618250D01*
X185756272Y-55665869D01*
X185661034Y-55665869D01*
X185565796Y-55618250D01*
X185518177Y-55570631D01*
X185470558Y-55475393D01*
X185422939Y-55284917D01*
X185422939Y-55046822D01*
X185470558Y-54856346D01*
X185518177Y-54761108D01*
X185565796Y-54713489D01*
X185661034Y-54665869D01*
%TO.C,U7*%
X169180095Y-118280380D02*
X169180095Y-119089904D01*
X169227714Y-119185142D01*
X169275333Y-119232761D01*
X169370571Y-119280380D01*
X169561047Y-119280380D01*
X169656285Y-119232761D01*
X169703904Y-119185142D01*
X169751523Y-119089904D01*
X169751523Y-118280380D01*
X170132476Y-118280380D02*
X170799142Y-118280380D01*
X170370571Y-119280380D01*
%TO.C,R15*%
X179834142Y-139263380D02*
X179500809Y-138787190D01*
X179262714Y-139263380D02*
X179262714Y-138263380D01*
X179643666Y-138263380D01*
X179738904Y-138311000D01*
X179786523Y-138358619D01*
X179834142Y-138453857D01*
X179834142Y-138596714D01*
X179786523Y-138691952D01*
X179738904Y-138739571D01*
X179643666Y-138787190D01*
X179262714Y-138787190D01*
X180786523Y-139263380D02*
X180215095Y-139263380D01*
X180500809Y-139263380D02*
X180500809Y-138263380D01*
X180405571Y-138406238D01*
X180310333Y-138501476D01*
X180215095Y-138549095D01*
X181691285Y-138263380D02*
X181215095Y-138263380D01*
X181167476Y-138739571D01*
X181215095Y-138691952D01*
X181310333Y-138644333D01*
X181548428Y-138644333D01*
X181643666Y-138691952D01*
X181691285Y-138739571D01*
X181738904Y-138834809D01*
X181738904Y-139072904D01*
X181691285Y-139168142D01*
X181643666Y-139215761D01*
X181548428Y-139263380D01*
X181310333Y-139263380D01*
X181215095Y-139215761D01*
X181167476Y-139168142D01*
%TO.C,R12*%
X179834142Y-131643380D02*
X179500809Y-131167190D01*
X179262714Y-131643380D02*
X179262714Y-130643380D01*
X179643666Y-130643380D01*
X179738904Y-130691000D01*
X179786523Y-130738619D01*
X179834142Y-130833857D01*
X179834142Y-130976714D01*
X179786523Y-131071952D01*
X179738904Y-131119571D01*
X179643666Y-131167190D01*
X179262714Y-131167190D01*
X180786523Y-131643380D02*
X180215095Y-131643380D01*
X180500809Y-131643380D02*
X180500809Y-130643380D01*
X180405571Y-130786238D01*
X180310333Y-130881476D01*
X180215095Y-130929095D01*
X181167476Y-130738619D02*
X181215095Y-130691000D01*
X181310333Y-130643380D01*
X181548428Y-130643380D01*
X181643666Y-130691000D01*
X181691285Y-130738619D01*
X181738904Y-130833857D01*
X181738904Y-130929095D01*
X181691285Y-131071952D01*
X181119857Y-131643380D01*
X181738904Y-131643380D01*
%TO.C,R7*%
X168383891Y-67120155D02*
X167907701Y-67453489D01*
X168383891Y-67691584D02*
X167383891Y-67691584D01*
X167383891Y-67310631D01*
X167431511Y-67215393D01*
X167479130Y-67167774D01*
X167574368Y-67120155D01*
X167717225Y-67120155D01*
X167812463Y-67167774D01*
X167860082Y-67215393D01*
X167907701Y-67310631D01*
X167907701Y-67691584D01*
X167383891Y-66786822D02*
X167383891Y-66120155D01*
X168383891Y-66548727D01*
%TO.C,R10*%
X179834142Y-126436380D02*
X179500809Y-125960190D01*
X179262714Y-126436380D02*
X179262714Y-125436380D01*
X179643666Y-125436380D01*
X179738904Y-125484000D01*
X179786523Y-125531619D01*
X179834142Y-125626857D01*
X179834142Y-125769714D01*
X179786523Y-125864952D01*
X179738904Y-125912571D01*
X179643666Y-125960190D01*
X179262714Y-125960190D01*
X180786523Y-126436380D02*
X180215095Y-126436380D01*
X180500809Y-126436380D02*
X180500809Y-125436380D01*
X180405571Y-125579238D01*
X180310333Y-125674476D01*
X180215095Y-125722095D01*
X181405571Y-125436380D02*
X181500809Y-125436380D01*
X181596047Y-125484000D01*
X181643666Y-125531619D01*
X181691285Y-125626857D01*
X181738904Y-125817333D01*
X181738904Y-126055428D01*
X181691285Y-126245904D01*
X181643666Y-126341142D01*
X181596047Y-126388761D01*
X181500809Y-126436380D01*
X181405571Y-126436380D01*
X181310333Y-126388761D01*
X181262714Y-126341142D01*
X181215095Y-126245904D01*
X181167476Y-126055428D01*
X181167476Y-125817333D01*
X181215095Y-125626857D01*
X181262714Y-125531619D01*
X181310333Y-125484000D01*
X181405571Y-125436380D01*
%TO.C,U3*%
X173802606Y-94983869D02*
X173802606Y-95793393D01*
X173850225Y-95888631D01*
X173897844Y-95936250D01*
X173993082Y-95983869D01*
X174183558Y-95983869D01*
X174278796Y-95936250D01*
X174326415Y-95888631D01*
X174374034Y-95793393D01*
X174374034Y-94983869D01*
X174754987Y-94983869D02*
X175374034Y-94983869D01*
X175040701Y-95364822D01*
X175183558Y-95364822D01*
X175278796Y-95412441D01*
X175326415Y-95460060D01*
X175374034Y-95555298D01*
X175374034Y-95793393D01*
X175326415Y-95888631D01*
X175278796Y-95936250D01*
X175183558Y-95983869D01*
X174897844Y-95983869D01*
X174802606Y-95936250D01*
X174754987Y-95888631D01*
%TO.C,D1*%
X128385415Y-55983380D02*
X128385415Y-54983380D01*
X128623511Y-54983380D01*
X128766368Y-55031000D01*
X128861606Y-55126238D01*
X128909225Y-55221476D01*
X128956844Y-55411952D01*
X128956844Y-55554809D01*
X128909225Y-55745285D01*
X128861606Y-55840523D01*
X128766368Y-55935761D01*
X128623511Y-55983380D01*
X128385415Y-55983380D01*
X129909225Y-55983380D02*
X129337796Y-55983380D01*
X129623511Y-55983380D02*
X129623511Y-54983380D01*
X129528272Y-55126238D01*
X129433034Y-55221476D01*
X129337796Y-55269095D01*
%TO.C,R3*%
X166269844Y-104363869D02*
X165936511Y-103887679D01*
X165698415Y-104363869D02*
X165698415Y-103363869D01*
X166079368Y-103363869D01*
X166174606Y-103411489D01*
X166222225Y-103459108D01*
X166269844Y-103554346D01*
X166269844Y-103697203D01*
X166222225Y-103792441D01*
X166174606Y-103840060D01*
X166079368Y-103887679D01*
X165698415Y-103887679D01*
X166603177Y-103363869D02*
X167222225Y-103363869D01*
X166888891Y-103744822D01*
X167031749Y-103744822D01*
X167126987Y-103792441D01*
X167174606Y-103840060D01*
X167222225Y-103935298D01*
X167222225Y-104173393D01*
X167174606Y-104268631D01*
X167126987Y-104316250D01*
X167031749Y-104363869D01*
X166746034Y-104363869D01*
X166650796Y-104316250D01*
X166603177Y-104268631D01*
%TO.C,U4*%
X157197891Y-59206393D02*
X158007415Y-59206393D01*
X158102653Y-59158774D01*
X158150272Y-59111155D01*
X158197891Y-59015917D01*
X158197891Y-58825441D01*
X158150272Y-58730203D01*
X158102653Y-58682584D01*
X158007415Y-58634965D01*
X157197891Y-58634965D01*
X157531225Y-57730203D02*
X158197891Y-57730203D01*
X157150272Y-57968298D02*
X157864558Y-58206393D01*
X157864558Y-57587346D01*
%TO.C,J14*%
X170150891Y-85416012D02*
X170865177Y-85416012D01*
X171008034Y-85463631D01*
X171103272Y-85558869D01*
X171150891Y-85701727D01*
X171150891Y-85796965D01*
X171150891Y-84416012D02*
X171150891Y-84987441D01*
X171150891Y-84701727D02*
X170150891Y-84701727D01*
X170293749Y-84796965D01*
X170388987Y-84892203D01*
X170436606Y-84987441D01*
X170484225Y-83558869D02*
X171150891Y-83558869D01*
X170103272Y-83796965D02*
X170817558Y-84035060D01*
X170817558Y-83416012D01*
%TO.C,U6*%
X164907106Y-97025869D02*
X164907106Y-97835393D01*
X164954725Y-97930631D01*
X165002344Y-97978250D01*
X165097582Y-98025869D01*
X165288058Y-98025869D01*
X165383296Y-97978250D01*
X165430915Y-97930631D01*
X165478534Y-97835393D01*
X165478534Y-97025869D01*
X166383296Y-97025869D02*
X166192820Y-97025869D01*
X166097582Y-97073489D01*
X166049963Y-97121108D01*
X165954725Y-97263965D01*
X165907106Y-97454441D01*
X165907106Y-97835393D01*
X165954725Y-97930631D01*
X166002344Y-97978250D01*
X166097582Y-98025869D01*
X166288058Y-98025869D01*
X166383296Y-97978250D01*
X166430915Y-97930631D01*
X166478534Y-97835393D01*
X166478534Y-97597298D01*
X166430915Y-97502060D01*
X166383296Y-97454441D01*
X166288058Y-97406822D01*
X166097582Y-97406822D01*
X166002344Y-97454441D01*
X165954725Y-97502060D01*
X165907106Y-97597298D01*
%TO.C,R9*%
X179802333Y-124023380D02*
X179469000Y-123547190D01*
X179230904Y-124023380D02*
X179230904Y-123023380D01*
X179611857Y-123023380D01*
X179707095Y-123071000D01*
X179754714Y-123118619D01*
X179802333Y-123213857D01*
X179802333Y-123356714D01*
X179754714Y-123451952D01*
X179707095Y-123499571D01*
X179611857Y-123547190D01*
X179230904Y-123547190D01*
X180278523Y-124023380D02*
X180469000Y-124023380D01*
X180564238Y-123975761D01*
X180611857Y-123928142D01*
X180707095Y-123785285D01*
X180754714Y-123594809D01*
X180754714Y-123213857D01*
X180707095Y-123118619D01*
X180659476Y-123071000D01*
X180564238Y-123023380D01*
X180373761Y-123023380D01*
X180278523Y-123071000D01*
X180230904Y-123118619D01*
X180183285Y-123213857D01*
X180183285Y-123451952D01*
X180230904Y-123547190D01*
X180278523Y-123594809D01*
X180373761Y-123642428D01*
X180564238Y-123642428D01*
X180659476Y-123594809D01*
X180707095Y-123547190D01*
X180754714Y-123451952D01*
%TO.C,J11*%
X185184987Y-72826869D02*
X185184987Y-73541155D01*
X185137368Y-73684012D01*
X185042130Y-73779250D01*
X184899272Y-73826869D01*
X184804034Y-73826869D01*
X186184987Y-73826869D02*
X185613558Y-73826869D01*
X185899272Y-73826869D02*
X185899272Y-72826869D01*
X185804034Y-72969727D01*
X185708796Y-73064965D01*
X185613558Y-73112584D01*
X187137368Y-73826869D02*
X186565939Y-73826869D01*
X186851653Y-73826869D02*
X186851653Y-72826869D01*
X186756415Y-72969727D01*
X186661177Y-73064965D01*
X186565939Y-73112584D01*
%TO.C,J7*%
X124745380Y-78311333D02*
X125459666Y-78311333D01*
X125602523Y-78358952D01*
X125697761Y-78454190D01*
X125745380Y-78597047D01*
X125745380Y-78692285D01*
X124745380Y-77930380D02*
X124745380Y-77263714D01*
X125745380Y-77692285D01*
%TO.C,J6*%
X111105891Y-77422333D02*
X111820177Y-77422333D01*
X111963034Y-77469952D01*
X112058272Y-77565190D01*
X112105891Y-77708047D01*
X112105891Y-77803285D01*
X111105891Y-76517571D02*
X111105891Y-76708047D01*
X111153511Y-76803285D01*
X111201130Y-76850904D01*
X111343987Y-76946142D01*
X111534463Y-76993761D01*
X111915415Y-76993761D01*
X112010653Y-76946142D01*
X112058272Y-76898523D01*
X112105891Y-76803285D01*
X112105891Y-76612809D01*
X112058272Y-76517571D01*
X112010653Y-76469952D01*
X111915415Y-76422333D01*
X111677320Y-76422333D01*
X111582082Y-76469952D01*
X111534463Y-76517571D01*
X111486844Y-76612809D01*
X111486844Y-76803285D01*
X111534463Y-76898523D01*
X111582082Y-76946142D01*
X111677320Y-76993761D01*
%TO.C,C1*%
X103937844Y-93350142D02*
X103890225Y-93397761D01*
X103747368Y-93445380D01*
X103652130Y-93445380D01*
X103509272Y-93397761D01*
X103414034Y-93302523D01*
X103366415Y-93207285D01*
X103318796Y-93016809D01*
X103318796Y-92873952D01*
X103366415Y-92683476D01*
X103414034Y-92588238D01*
X103509272Y-92493000D01*
X103652130Y-92445380D01*
X103747368Y-92445380D01*
X103890225Y-92493000D01*
X103937844Y-92540619D01*
X104890225Y-93445380D02*
X104318796Y-93445380D01*
X104604511Y-93445380D02*
X104604511Y-92445380D01*
X104509272Y-92588238D01*
X104414034Y-92683476D01*
X104318796Y-92731095D01*
%TO.C,R2*%
X128321844Y-83511380D02*
X127988511Y-83035190D01*
X127750415Y-83511380D02*
X127750415Y-82511380D01*
X128131368Y-82511380D01*
X128226606Y-82559000D01*
X128274225Y-82606619D01*
X128321844Y-82701857D01*
X128321844Y-82844714D01*
X128274225Y-82939952D01*
X128226606Y-82987571D01*
X128131368Y-83035190D01*
X127750415Y-83035190D01*
X128702796Y-82606619D02*
X128750415Y-82559000D01*
X128845653Y-82511380D01*
X129083749Y-82511380D01*
X129178987Y-82559000D01*
X129226606Y-82606619D01*
X129274225Y-82701857D01*
X129274225Y-82797095D01*
X129226606Y-82939952D01*
X128655177Y-83511380D01*
X129274225Y-83511380D01*
%TO.C,R5*%
X168030891Y-74359155D02*
X167554701Y-74692489D01*
X168030891Y-74930584D02*
X167030891Y-74930584D01*
X167030891Y-74549631D01*
X167078511Y-74454393D01*
X167126130Y-74406774D01*
X167221368Y-74359155D01*
X167364225Y-74359155D01*
X167459463Y-74406774D01*
X167507082Y-74454393D01*
X167554701Y-74549631D01*
X167554701Y-74930584D01*
X167030891Y-73454393D02*
X167030891Y-73930584D01*
X167507082Y-73978203D01*
X167459463Y-73930584D01*
X167411844Y-73835346D01*
X167411844Y-73597250D01*
X167459463Y-73502012D01*
X167507082Y-73454393D01*
X167602320Y-73406774D01*
X167840415Y-73406774D01*
X167935653Y-73454393D01*
X167983272Y-73502012D01*
X168030891Y-73597250D01*
X168030891Y-73835346D01*
X167983272Y-73930584D01*
X167935653Y-73978203D01*
%TO.C,J5*%
X107691891Y-54816333D02*
X108406177Y-54816333D01*
X108549034Y-54863952D01*
X108644272Y-54959190D01*
X108691891Y-55102047D01*
X108691891Y-55197285D01*
X107691891Y-53863952D02*
X107691891Y-54340142D01*
X108168082Y-54387761D01*
X108120463Y-54340142D01*
X108072844Y-54244904D01*
X108072844Y-54006809D01*
X108120463Y-53911571D01*
X108168082Y-53863952D01*
X108263320Y-53816333D01*
X108501415Y-53816333D01*
X108596653Y-53863952D01*
X108644272Y-53911571D01*
X108691891Y-54006809D01*
X108691891Y-54244904D01*
X108644272Y-54340142D01*
X108596653Y-54387761D01*
%TO.C,H6*%
X183515095Y-44766380D02*
X183515095Y-43766380D01*
X183515095Y-44242571D02*
X184086523Y-44242571D01*
X184086523Y-44766380D02*
X184086523Y-43766380D01*
X184991285Y-43766380D02*
X184800809Y-43766380D01*
X184705571Y-43814000D01*
X184657952Y-43861619D01*
X184562714Y-44004476D01*
X184515095Y-44194952D01*
X184515095Y-44575904D01*
X184562714Y-44671142D01*
X184610333Y-44718761D01*
X184705571Y-44766380D01*
X184896047Y-44766380D01*
X184991285Y-44718761D01*
X185038904Y-44671142D01*
X185086523Y-44575904D01*
X185086523Y-44337809D01*
X185038904Y-44242571D01*
X184991285Y-44194952D01*
X184896047Y-44147333D01*
X184705571Y-44147333D01*
X184610333Y-44194952D01*
X184562714Y-44242571D01*
X184515095Y-44337809D01*
D12*
%TO.C,R11*%
X176826936Y-128678000D02*
X177281064Y-128678000D01*
X176826936Y-130148000D02*
X177281064Y-130148000D01*
%TO.C,J12*%
X182730511Y-97441489D02*
X182730511Y-96841489D01*
X180550511Y-102861489D02*
X188390511Y-102861489D01*
X180260511Y-97871489D02*
X180260511Y-101871489D01*
X186210511Y-97441489D02*
X187810511Y-97441489D01*
X188390511Y-102861489D02*
X188390511Y-96841489D01*
X185270511Y-97441489D02*
X185270511Y-96841489D01*
X187810511Y-97441489D02*
X187810511Y-96841489D01*
X181930511Y-101861489D02*
X182180511Y-101331489D01*
X188390511Y-96841489D02*
X180550511Y-96841489D01*
X186760511Y-101331489D02*
X187010511Y-101861489D01*
X186760511Y-102861489D02*
X186760511Y-101861489D01*
X187010511Y-101861489D02*
X187010511Y-102861489D01*
X182180511Y-101331489D02*
X186760511Y-101331489D01*
X182180511Y-102861489D02*
X182180511Y-101861489D01*
X183670511Y-96841489D02*
X183670511Y-97441489D01*
X181930511Y-101861489D02*
X187010511Y-101861489D01*
X180550511Y-96841489D02*
X180550511Y-102861489D01*
X183670511Y-97441489D02*
X185270511Y-97441489D01*
X186210511Y-96841489D02*
X186210511Y-97441489D01*
X181130511Y-96841489D02*
X181130511Y-97441489D01*
X181930511Y-102861489D02*
X181930511Y-101861489D01*
X181130511Y-97441489D02*
X182730511Y-97441489D01*
%TO.C,R4*%
X171035447Y-106296489D02*
X171489575Y-106296489D01*
X171035447Y-104826489D02*
X171489575Y-104826489D01*
%TO.C,Y1*%
X112090511Y-91654000D02*
X112090511Y-85404000D01*
X107040511Y-91654000D02*
X107040511Y-85404000D01*
X107040511Y-91654000D02*
G75*
G03*
X112090511Y-91654000I2525000J0D01*
G01*
X112090511Y-85404000D02*
G75*
G03*
X107040511Y-85404000I-2525000J0D01*
G01*
%TO.C,R14*%
X176794936Y-137768000D02*
X177249064Y-137768000D01*
X176794936Y-136298000D02*
X177249064Y-136298000D01*
%TO.C,R1*%
X113094575Y-59971000D02*
X112640447Y-59971000D01*
X113094575Y-61441000D02*
X112640447Y-61441000D01*
%TO.C,A1*%
X164143511Y-69874489D02*
X164143511Y-102894489D01*
X160113511Y-97914489D02*
X162853511Y-97914489D01*
X138503511Y-69874489D02*
X138503511Y-102894489D01*
X138373511Y-68834489D02*
X138373511Y-67084489D01*
X142533511Y-97914489D02*
X142533511Y-72314489D01*
X162853511Y-97914489D02*
X162853511Y-72314489D01*
X139793511Y-97914489D02*
X142533511Y-97914489D01*
X138373511Y-67084489D02*
X140123511Y-67084489D01*
X141163511Y-105554489D02*
X161483511Y-105554489D01*
X141163511Y-67214489D02*
X161483511Y-67214489D01*
X142533511Y-72314489D02*
X139793511Y-72314489D01*
X139793511Y-72314489D02*
X139793511Y-97914489D01*
X160113511Y-72314489D02*
X160113511Y-97914489D01*
X162853511Y-72314489D02*
X160113511Y-72314489D01*
X141163511Y-67214489D02*
G75*
G03*
X138503511Y-69874489I0J-2660000D01*
G01*
X161483511Y-105554489D02*
G75*
G03*
X164143511Y-102894489I0J2660000D01*
G01*
X138503511Y-102894489D02*
G75*
G03*
X141163511Y-105554489I2660000J0D01*
G01*
X164143511Y-69874489D02*
G75*
G03*
X161483511Y-67214489I-2660000J0D01*
G01*
%TO.C,U1*%
X114087511Y-65168000D02*
X114087511Y-100968000D01*
X118227511Y-65228000D02*
X116577511Y-65228000D01*
X121877511Y-65228000D02*
X120227511Y-65228000D01*
X116577511Y-65228000D02*
X116577511Y-100908000D01*
X121877511Y-100908000D02*
X121877511Y-65228000D01*
X124367511Y-65168000D02*
X114087511Y-65168000D01*
X116577511Y-100908000D02*
X121877511Y-100908000D01*
X124367511Y-100968000D02*
X124367511Y-65168000D01*
X114087511Y-100968000D02*
X124367511Y-100968000D01*
X118227511Y-65228000D02*
G75*
G03*
X120227511Y-65228000I1000000J0D01*
G01*
%TO.C,J8*%
X162918511Y-50679489D02*
X162918511Y-50079489D01*
X165458511Y-50079489D02*
X163858511Y-50079489D01*
X162918511Y-50079489D02*
X161318511Y-50079489D01*
X162118511Y-45659489D02*
X162118511Y-44659489D01*
X166038511Y-50679489D02*
X166038511Y-44659489D01*
X164408511Y-44659489D02*
X164408511Y-45659489D01*
X163858511Y-50079489D02*
X163858511Y-50679489D01*
X162368511Y-46189489D02*
X162118511Y-45659489D01*
X160738511Y-50679489D02*
X166038511Y-50679489D01*
X162368511Y-44659489D02*
X162368511Y-45659489D01*
X166038511Y-44659489D02*
X160738511Y-44659489D01*
X164658511Y-45659489D02*
X164408511Y-46189489D01*
X164658511Y-45659489D02*
X162118511Y-45659489D01*
X164408511Y-46189489D02*
X162368511Y-46189489D01*
X166328511Y-49649489D02*
X166328511Y-45649489D01*
X160738511Y-44659489D02*
X160738511Y-50679489D01*
X165458511Y-50679489D02*
X165458511Y-50079489D01*
X164658511Y-44659489D02*
X164658511Y-45659489D01*
X161318511Y-50079489D02*
X161318511Y-50679489D01*
%TO.C,J2*%
X111051511Y-97392000D02*
X112651511Y-97392000D01*
X111051511Y-96792000D02*
X111051511Y-97392000D01*
X104481511Y-101282000D02*
X111601511Y-101282000D01*
X113231511Y-96792000D02*
X102851511Y-96792000D01*
X105031511Y-97392000D02*
X105031511Y-96792000D01*
X107571511Y-97392000D02*
X107571511Y-96792000D01*
X103431511Y-97392000D02*
X105031511Y-97392000D01*
X112651511Y-97392000D02*
X112651511Y-96792000D01*
X104231511Y-102812000D02*
X104231511Y-101812000D01*
X108511511Y-96792000D02*
X108511511Y-97392000D01*
X110111511Y-97392000D02*
X110111511Y-96792000D01*
X102851511Y-96792000D02*
X102851511Y-102812000D01*
X102851511Y-102812000D02*
X113231511Y-102812000D01*
X102561511Y-97822000D02*
X102561511Y-101822000D01*
X108511511Y-97392000D02*
X110111511Y-97392000D01*
X111601511Y-102812000D02*
X111601511Y-101812000D01*
X104231511Y-101812000D02*
X104481511Y-101282000D01*
X111601511Y-101282000D02*
X111851511Y-101812000D01*
X104231511Y-101812000D02*
X111851511Y-101812000D01*
X113231511Y-102812000D02*
X113231511Y-96792000D01*
X105971511Y-97392000D02*
X107571511Y-97392000D01*
X111851511Y-101812000D02*
X111851511Y-102812000D01*
X105971511Y-96792000D02*
X105971511Y-97392000D01*
X104481511Y-102812000D02*
X104481511Y-101812000D01*
X103431511Y-96792000D02*
X103431511Y-97392000D01*
%TO.C,J15*%
X178362511Y-63654489D02*
X169242511Y-63654489D01*
X169242511Y-63654489D02*
X169242511Y-48154489D01*
X178752511Y-58444489D02*
X179752511Y-58944489D01*
X177052511Y-62354489D02*
X170552511Y-62354489D01*
X170552511Y-62354489D02*
X170552511Y-49454489D01*
X170552511Y-49454489D02*
X177052511Y-49454489D01*
X169242511Y-48154489D02*
X178362511Y-48154489D01*
X178362511Y-48154489D02*
X178362511Y-63654489D01*
X177052511Y-53854489D02*
X178362511Y-53854489D01*
X179752511Y-58944489D02*
X179752511Y-57944489D01*
X177052511Y-57954489D02*
X177052511Y-62354489D01*
X177052511Y-49454489D02*
X177052511Y-53854489D01*
X178362511Y-57954489D02*
X177052511Y-57954489D01*
X177052511Y-53854489D02*
X177052511Y-53854489D01*
X179752511Y-57944489D02*
X178752511Y-58444489D01*
D11*
%TO.C,U5*%
X171560511Y-75291489D02*
X171560511Y-74991489D01*
X171560511Y-69781489D02*
X177060511Y-69781489D01*
X177060511Y-69781489D02*
X177060511Y-70081489D01*
X171560511Y-69986489D02*
X169810511Y-69986489D01*
X171560511Y-69781489D02*
X171560511Y-69986489D01*
X177060511Y-75291489D02*
X177060511Y-74991489D01*
X171560511Y-75291489D02*
X177060511Y-75291489D01*
D12*
%TO.C,J3*%
X130478511Y-71501000D02*
X129948511Y-71251000D01*
X130478511Y-71501000D02*
X130478511Y-63881000D01*
X126058511Y-72301000D02*
X126058511Y-70701000D01*
X129948511Y-64131000D02*
X130478511Y-63881000D01*
X131478511Y-71251000D02*
X130478511Y-71251000D01*
X129948511Y-71251000D02*
X129948511Y-64131000D01*
X126058511Y-67221000D02*
X126058511Y-65621000D01*
X126058511Y-63081000D02*
X125458511Y-63081000D01*
X131478511Y-62501000D02*
X125458511Y-62501000D01*
X130478511Y-63881000D02*
X131478511Y-63881000D01*
X126058511Y-65621000D02*
X125458511Y-65621000D01*
X125458511Y-72881000D02*
X131478511Y-72881000D01*
X126058511Y-64681000D02*
X126058511Y-63081000D01*
X131478511Y-71501000D02*
X130478511Y-71501000D01*
X125458511Y-67221000D02*
X126058511Y-67221000D01*
X125458511Y-69761000D02*
X126058511Y-69761000D01*
X126058511Y-68161000D02*
X125458511Y-68161000D01*
X125458511Y-64681000D02*
X126058511Y-64681000D01*
X131478511Y-64131000D02*
X130478511Y-64131000D01*
X126058511Y-70701000D02*
X125458511Y-70701000D01*
X126488511Y-73171000D02*
X130488511Y-73171000D01*
X125458511Y-72301000D02*
X126058511Y-72301000D01*
X126058511Y-69761000D02*
X126058511Y-68161000D01*
X125458511Y-62501000D02*
X125458511Y-72881000D01*
X131478511Y-72881000D02*
X131478511Y-62501000D01*
%TO.C,D2*%
X187355511Y-68080489D02*
X187355511Y-66080489D01*
X187355511Y-68080489D02*
X183455511Y-68080489D01*
X187355511Y-66080489D02*
X183455511Y-66080489D01*
%TO.C,C4*%
X186509763Y-70028489D02*
X185987259Y-70028489D01*
X186509763Y-71498489D02*
X185987259Y-71498489D01*
%TO.C,C2*%
X103709263Y-87349000D02*
X103186759Y-87349000D01*
X103709263Y-85879000D02*
X103186759Y-85879000D01*
%TO.C,R13*%
X176810936Y-135228000D02*
X177265064Y-135228000D01*
X176810936Y-133758000D02*
X177265064Y-133758000D01*
%TO.C,R6*%
X165193511Y-78029425D02*
X165193511Y-78483553D01*
X166663511Y-78029425D02*
X166663511Y-78483553D01*
%TO.C,J9*%
X156232511Y-45319489D02*
X157232511Y-45319489D01*
X143732511Y-45319489D02*
X143732511Y-53319489D01*
X143732511Y-56819489D02*
X143732511Y-58819489D01*
X156232511Y-58819489D02*
X156232511Y-56819489D01*
X143732511Y-58819489D02*
X156232511Y-58819489D01*
X156232511Y-53319489D02*
X156232511Y-45319489D01*
X157232511Y-45319489D02*
X157232511Y-44819489D01*
X153982511Y-59069489D02*
X152982511Y-59069489D01*
X157232511Y-44819489D02*
X142732511Y-44819489D01*
X142732511Y-44819489D02*
X142732511Y-45319489D01*
X142732511Y-45319489D02*
X143732511Y-45319489D01*
%TO.C,U2*%
X108530511Y-67442000D02*
X107270511Y-67442000D01*
X101710511Y-67442000D02*
X102970511Y-67442000D01*
X101710511Y-63682000D02*
X101710511Y-67442000D01*
X108530511Y-61432000D02*
X108530511Y-67442000D01*
%TO.C,R8*%
X176826936Y-122528000D02*
X177281064Y-122528000D01*
X176826936Y-121058000D02*
X177281064Y-121058000D01*
%TO.C,J13*%
X181892511Y-83700489D02*
X183492511Y-83700489D01*
X182692511Y-88120489D02*
X190312511Y-88120489D01*
X181892511Y-83100489D02*
X181892511Y-83700489D01*
X190062511Y-87590489D02*
X190312511Y-88120489D01*
X182942511Y-87590489D02*
X190062511Y-87590489D01*
X186032511Y-83700489D02*
X186032511Y-83100489D01*
X181022511Y-84130489D02*
X181022511Y-88130489D01*
X190062511Y-89120489D02*
X190062511Y-88120489D01*
X184432511Y-83100489D02*
X184432511Y-83700489D01*
X190312511Y-88120489D02*
X190312511Y-89120489D01*
X182692511Y-88120489D02*
X182942511Y-87590489D01*
X188572511Y-83700489D02*
X188572511Y-83100489D01*
X191692511Y-89120489D02*
X191692511Y-83100489D01*
X181312511Y-83100489D02*
X181312511Y-89120489D01*
X186972511Y-83700489D02*
X188572511Y-83700489D01*
X189512511Y-83700489D02*
X191112511Y-83700489D01*
X182942511Y-89120489D02*
X182942511Y-88120489D01*
X191112511Y-83700489D02*
X191112511Y-83100489D01*
X189512511Y-83100489D02*
X189512511Y-83700489D01*
X181312511Y-89120489D02*
X191692511Y-89120489D01*
X186972511Y-83100489D02*
X186972511Y-83700489D01*
X182692511Y-89120489D02*
X182692511Y-88120489D01*
X191692511Y-83100489D02*
X181312511Y-83100489D01*
X183492511Y-83700489D02*
X183492511Y-83100489D01*
X184432511Y-83700489D02*
X186032511Y-83700489D01*
%TO.C,J1*%
X116804511Y-109543000D02*
X116804511Y-108543000D01*
X123624511Y-103523000D02*
X123624511Y-104123000D01*
X115424511Y-103523000D02*
X115424511Y-109543000D01*
X116004511Y-104123000D02*
X117604511Y-104123000D01*
X117604511Y-104123000D02*
X117604511Y-103523000D01*
X116804511Y-108543000D02*
X124424511Y-108543000D01*
X121084511Y-103523000D02*
X121084511Y-104123000D01*
X120144511Y-104123000D02*
X120144511Y-103523000D01*
X122684511Y-104123000D02*
X122684511Y-103523000D01*
X123624511Y-104123000D02*
X125224511Y-104123000D01*
X125804511Y-103523000D02*
X115424511Y-103523000D01*
X117054511Y-108013000D02*
X124174511Y-108013000D01*
X124174511Y-109543000D02*
X124174511Y-108543000D01*
X121084511Y-104123000D02*
X122684511Y-104123000D01*
X124174511Y-108013000D02*
X124424511Y-108543000D01*
X115424511Y-109543000D02*
X125804511Y-109543000D01*
X118544511Y-104123000D02*
X120144511Y-104123000D01*
X116004511Y-103523000D02*
X116004511Y-104123000D01*
X118544511Y-103523000D02*
X118544511Y-104123000D01*
X117054511Y-109543000D02*
X117054511Y-108543000D01*
X125804511Y-109543000D02*
X125804511Y-103523000D01*
X125224511Y-104123000D02*
X125224511Y-103523000D01*
X124424511Y-108543000D02*
X124424511Y-109543000D01*
X116804511Y-108543000D02*
X117054511Y-108013000D01*
X115134511Y-104553000D02*
X115134511Y-108553000D01*
%TO.C,J4*%
X128585500Y-93322000D02*
X128585500Y-88922000D01*
X128585500Y-97422000D02*
X127275500Y-97422000D01*
X135085500Y-101822000D02*
X128585500Y-101822000D01*
X125885500Y-93332000D02*
X126885500Y-92832000D01*
X136395500Y-87622000D02*
X136395500Y-103122000D01*
X136395500Y-103122000D02*
X127275500Y-103122000D01*
X135085500Y-88922000D02*
X135085500Y-101822000D01*
X127275500Y-87622000D02*
X136395500Y-87622000D01*
X128585500Y-88922000D02*
X135085500Y-88922000D01*
X125885500Y-92332000D02*
X125885500Y-93332000D01*
X128585500Y-101822000D02*
X128585500Y-97422000D01*
X128585500Y-97422000D02*
X128585500Y-97422000D01*
X127275500Y-93322000D02*
X128585500Y-93322000D01*
X126885500Y-92832000D02*
X125885500Y-92332000D01*
X127275500Y-103122000D02*
X127275500Y-87622000D01*
%TO.C,J10*%
X185651511Y-56903489D02*
X185651511Y-56303489D01*
X184051511Y-56903489D02*
X185651511Y-56903489D01*
X181511511Y-56303489D02*
X181511511Y-56903489D01*
X188771511Y-56303489D02*
X180931511Y-56303489D01*
X182311511Y-62323489D02*
X182311511Y-61323489D01*
X186591511Y-56903489D02*
X188191511Y-56903489D01*
X187391511Y-61323489D02*
X187391511Y-62323489D01*
X186591511Y-56303489D02*
X186591511Y-56903489D01*
X181511511Y-56903489D02*
X183111511Y-56903489D01*
X188771511Y-62323489D02*
X188771511Y-56303489D01*
X184051511Y-56303489D02*
X184051511Y-56903489D01*
X180931511Y-62323489D02*
X188771511Y-62323489D01*
X180931511Y-56303489D02*
X180931511Y-62323489D01*
X183111511Y-56903489D02*
X183111511Y-56303489D01*
X180641511Y-57333489D02*
X180641511Y-61333489D01*
X182561511Y-60793489D02*
X187141511Y-60793489D01*
X182311511Y-61323489D02*
X182561511Y-60793489D01*
X182311511Y-61323489D02*
X187391511Y-61323489D01*
X182561511Y-62323489D02*
X182561511Y-61323489D01*
X187141511Y-60793489D02*
X187391511Y-61323489D01*
X188191511Y-56903489D02*
X188191511Y-56303489D01*
X187141511Y-62323489D02*
X187141511Y-61323489D01*
%TO.C,U7*%
X167292000Y-119828000D02*
X167292000Y-140268000D01*
X167292000Y-140268000D02*
X172592000Y-140268000D01*
X168942000Y-119828000D02*
X167292000Y-119828000D01*
X172592000Y-140268000D02*
X172592000Y-119828000D01*
X172592000Y-119828000D02*
X170942000Y-119828000D01*
X168942000Y-119828000D02*
G75*
G03*
X170942000Y-119828000I1000000J0D01*
G01*
%TO.C,R15*%
X176826936Y-140308000D02*
X177281064Y-140308000D01*
X176826936Y-138838000D02*
X177281064Y-138838000D01*
%TO.C,R12*%
X176810936Y-131218000D02*
X177265064Y-131218000D01*
X176810936Y-132688000D02*
X177265064Y-132688000D01*
%TO.C,R7*%
X168876511Y-67214741D02*
X168876511Y-66692237D01*
X170346511Y-67214741D02*
X170346511Y-66692237D01*
%TO.C,R10*%
X176810936Y-127608000D02*
X177265064Y-127608000D01*
X176810936Y-126138000D02*
X177265064Y-126138000D01*
D11*
%TO.C,U3*%
X171814511Y-96661489D02*
X170064511Y-96661489D01*
X171814511Y-96456489D02*
X171814511Y-96661489D01*
X171814511Y-96456489D02*
X177314511Y-96456489D01*
X171814511Y-101966489D02*
X177314511Y-101966489D01*
X177314511Y-101966489D02*
X177314511Y-101666489D01*
X177314511Y-96456489D02*
X177314511Y-96756489D01*
X171814511Y-101966489D02*
X171814511Y-101666489D01*
D12*
%TO.C,D1*%
X126873511Y-56531000D02*
X126873511Y-58531000D01*
X126873511Y-56531000D02*
X130773511Y-56531000D01*
X126873511Y-58531000D02*
X130773511Y-58531000D01*
%TO.C,R3*%
X166209447Y-106296489D02*
X166663575Y-106296489D01*
X166209447Y-104826489D02*
X166663575Y-104826489D01*
%TO.C,U4*%
X165655511Y-60294489D02*
X165655511Y-56534489D01*
X158835511Y-56534489D02*
X160095511Y-56534489D01*
X158835511Y-62544489D02*
X158835511Y-56534489D01*
X165655511Y-56534489D02*
X164395511Y-56534489D01*
%TO.C,J14*%
X176808511Y-80796489D02*
X177808511Y-80796489D01*
X171788511Y-79416489D02*
X171788511Y-89796489D01*
X171788511Y-89796489D02*
X177808511Y-89796489D01*
X172388511Y-81596489D02*
X172388511Y-79996489D01*
X172388511Y-85076489D02*
X171788511Y-85076489D01*
X172818511Y-90086489D02*
X176818511Y-90086489D01*
X171788511Y-86676489D02*
X172388511Y-86676489D01*
X177808511Y-88166489D02*
X176808511Y-88166489D01*
X177808511Y-81046489D02*
X176808511Y-81046489D01*
X172388511Y-87616489D02*
X171788511Y-87616489D01*
X177808511Y-89796489D02*
X177808511Y-79416489D01*
X177808511Y-88416489D02*
X176808511Y-88416489D01*
X172388511Y-89216489D02*
X172388511Y-87616489D01*
X176278511Y-88166489D02*
X176278511Y-81046489D01*
X171788511Y-81596489D02*
X172388511Y-81596489D01*
X172388511Y-84136489D02*
X172388511Y-82536489D01*
X176278511Y-81046489D02*
X176808511Y-80796489D01*
X172388511Y-82536489D02*
X171788511Y-82536489D01*
X171788511Y-84136489D02*
X172388511Y-84136489D01*
X172388511Y-79996489D02*
X171788511Y-79996489D01*
X177808511Y-79416489D02*
X171788511Y-79416489D01*
X176808511Y-88416489D02*
X176278511Y-88166489D01*
X171788511Y-89216489D02*
X172388511Y-89216489D01*
X176808511Y-88416489D02*
X176808511Y-80796489D01*
X172388511Y-86676489D02*
X172388511Y-85076489D01*
%TO.C,U6*%
X165669011Y-98413489D02*
X166469011Y-98413489D01*
X165669011Y-101533489D02*
X166469011Y-101533489D01*
X165669011Y-101533489D02*
X164869011Y-101533489D01*
X165669011Y-98413489D02*
X163869011Y-98413489D01*
%TO.C,R9*%
X176810936Y-123598000D02*
X177265064Y-123598000D01*
X176810936Y-125068000D02*
X177265064Y-125068000D01*
%TO.C,J11*%
X187734511Y-74464489D02*
X187734511Y-75064489D01*
X183704511Y-80484489D02*
X183704511Y-79484489D01*
X189334511Y-75064489D02*
X189334511Y-74464489D01*
X183454511Y-79484489D02*
X188534511Y-79484489D01*
X185194511Y-74464489D02*
X185194511Y-75064489D01*
X182074511Y-74464489D02*
X182074511Y-80484489D01*
X185194511Y-75064489D02*
X186794511Y-75064489D01*
X183454511Y-80484489D02*
X183454511Y-79484489D01*
X188284511Y-80484489D02*
X188284511Y-79484489D01*
X189914511Y-80484489D02*
X189914511Y-74464489D01*
X187734511Y-75064489D02*
X189334511Y-75064489D01*
X183704511Y-78954489D02*
X188284511Y-78954489D01*
X182654511Y-75064489D02*
X184254511Y-75064489D01*
X186794511Y-75064489D02*
X186794511Y-74464489D01*
X188534511Y-79484489D02*
X188534511Y-80484489D01*
X188284511Y-78954489D02*
X188534511Y-79484489D01*
X189914511Y-74464489D02*
X182074511Y-74464489D01*
X182654511Y-74464489D02*
X182654511Y-75064489D01*
X182074511Y-80484489D02*
X189914511Y-80484489D01*
X181784511Y-75494489D02*
X181784511Y-79494489D01*
X184254511Y-75064489D02*
X184254511Y-74464489D01*
X183454511Y-79484489D02*
X183704511Y-78954489D01*
%TO.C,J7*%
X126383000Y-75328000D02*
X126383000Y-80628000D01*
X132403000Y-78998000D02*
X131403000Y-78998000D01*
X132403000Y-80628000D02*
X132403000Y-75328000D01*
X126383000Y-77508000D02*
X126983000Y-77508000D01*
X126383000Y-80048000D02*
X126983000Y-80048000D01*
X126983000Y-77508000D02*
X126983000Y-75908000D01*
X132403000Y-79248000D02*
X131403000Y-79248000D01*
X126983000Y-80048000D02*
X126983000Y-78448000D01*
X130873000Y-76958000D02*
X131403000Y-76708000D01*
X132403000Y-76958000D02*
X131403000Y-76958000D01*
X126983000Y-78448000D02*
X126383000Y-78448000D01*
X131403000Y-76708000D02*
X132403000Y-76708000D01*
X126383000Y-80628000D02*
X132403000Y-80628000D01*
X131403000Y-79248000D02*
X130873000Y-78998000D01*
X126983000Y-75908000D02*
X126383000Y-75908000D01*
X132403000Y-75328000D02*
X126383000Y-75328000D01*
X130873000Y-78998000D02*
X130873000Y-76958000D01*
X127413000Y-80918000D02*
X131413000Y-80918000D01*
X131403000Y-79248000D02*
X131403000Y-76708000D01*
%TO.C,J6*%
X109963511Y-76289000D02*
X109963511Y-77889000D01*
X105543511Y-79629000D02*
X104543511Y-79629000D01*
X109533511Y-72879000D02*
X105533511Y-72879000D01*
X109963511Y-77889000D02*
X110563511Y-77889000D01*
X104543511Y-81009000D02*
X110563511Y-81009000D01*
X104543511Y-74549000D02*
X105543511Y-74549000D01*
X105543511Y-74549000D02*
X106073511Y-74799000D01*
X110563511Y-73169000D02*
X104543511Y-73169000D01*
X109963511Y-73749000D02*
X109963511Y-75349000D01*
X104543511Y-79379000D02*
X105543511Y-79379000D01*
X110563511Y-78829000D02*
X109963511Y-78829000D01*
X109963511Y-80429000D02*
X110563511Y-80429000D01*
X104543511Y-73169000D02*
X104543511Y-81009000D01*
X106073511Y-74799000D02*
X106073511Y-79379000D01*
X110563511Y-73749000D02*
X109963511Y-73749000D01*
X109963511Y-75349000D02*
X110563511Y-75349000D01*
X110563511Y-76289000D02*
X109963511Y-76289000D01*
X104543511Y-74799000D02*
X105543511Y-74799000D01*
X105543511Y-74549000D02*
X105543511Y-79629000D01*
X110563511Y-81009000D02*
X110563511Y-73169000D01*
X106073511Y-79379000D02*
X105543511Y-79629000D01*
X109963511Y-78829000D02*
X109963511Y-80429000D01*
%TO.C,C1*%
X104365763Y-92048000D02*
X103843259Y-92048000D01*
X104365763Y-90578000D02*
X103843259Y-90578000D01*
%TO.C,R2*%
X128261447Y-83974000D02*
X128715575Y-83974000D01*
X128261447Y-85444000D02*
X128715575Y-85444000D01*
%TO.C,R5*%
X165193511Y-73965425D02*
X165193511Y-74419553D01*
X166663511Y-73965425D02*
X166663511Y-74419553D01*
%TO.C,J5*%
X100277511Y-54699000D02*
X99677511Y-54699000D01*
X100277511Y-57239000D02*
X99677511Y-57239000D01*
X105697511Y-59419000D02*
X105697511Y-54119000D01*
X105697511Y-57789000D02*
X104697511Y-57789000D01*
X99677511Y-59419000D02*
X105697511Y-59419000D01*
X99677511Y-56299000D02*
X100277511Y-56299000D01*
X100277511Y-56299000D02*
X100277511Y-54699000D01*
X99677511Y-58839000D02*
X100277511Y-58839000D01*
X105697511Y-55749000D02*
X104697511Y-55749000D01*
X99677511Y-54119000D02*
X99677511Y-59419000D01*
X104697511Y-58039000D02*
X104167511Y-57789000D01*
X105697511Y-58039000D02*
X104697511Y-58039000D01*
X104167511Y-57789000D02*
X104167511Y-55749000D01*
X100707511Y-59709000D02*
X104707511Y-59709000D01*
X104167511Y-55749000D02*
X104697511Y-55499000D01*
X104697511Y-58039000D02*
X104697511Y-55499000D01*
X100277511Y-58839000D02*
X100277511Y-57239000D01*
X104697511Y-55499000D02*
X105697511Y-55499000D01*
X105697511Y-54119000D02*
X99677511Y-54119000D01*
%TD*%
%LPC*%
D13*
%TO.C,R11*%
X178054000Y-129413000D03*
X176054000Y-129413000D03*
%TD*%
D14*
%TO.C,J12*%
X187010511Y-99871489D03*
X184470511Y-99871489D03*
D15*
X181930511Y-99871489D03*
%TD*%
D13*
%TO.C,R4*%
X170262511Y-105561489D03*
X172262511Y-105561489D03*
%TD*%
D16*
%TO.C,Y1*%
X109565511Y-90969000D03*
X109565511Y-86089000D03*
%TD*%
D13*
%TO.C,R14*%
X178022000Y-137033000D03*
X176022000Y-137033000D03*
%TD*%
D17*
%TO.C,H2*%
X102108000Y-112014000D03*
%TD*%
D18*
%TO.C,R1*%
X113867511Y-60706000D03*
X111867511Y-60706000D03*
%TD*%
D19*
%TO.C,J16*%
X180737000Y-122047000D03*
D20*
X180737000Y-124587000D03*
X180737000Y-127127000D03*
X180737000Y-129667000D03*
X180737000Y-132207000D03*
X180737000Y-134747000D03*
X180737000Y-137287000D03*
X180737000Y-139827000D03*
%TD*%
D17*
%TO.C,H9*%
X188341000Y-121031000D03*
%TD*%
D21*
%TO.C,A1*%
X161483511Y-102894489D03*
X141163511Y-102894489D03*
X141163511Y-69874489D03*
X161483511Y-69874489D03*
D22*
X141163511Y-73684489D03*
D23*
X141163511Y-76224489D03*
X141163511Y-78764489D03*
X141163511Y-81304489D03*
X141163511Y-83844489D03*
X141163511Y-86384489D03*
X141163511Y-88924489D03*
X141163511Y-91464489D03*
X141163511Y-94004489D03*
X141163511Y-96544489D03*
X161483511Y-96544489D03*
X161483511Y-94004489D03*
X161483511Y-91464489D03*
X161483511Y-88924489D03*
X161483511Y-86384489D03*
X161483511Y-83844489D03*
X161483511Y-81304489D03*
X161483511Y-78764489D03*
X161483511Y-76224489D03*
X161483511Y-73684489D03*
%TD*%
D24*
%TO.C,U1*%
X115417511Y-66558000D03*
D25*
X115417511Y-69098000D03*
X115417511Y-71638000D03*
X115417511Y-74178000D03*
X115417511Y-76718000D03*
X115417511Y-79258000D03*
X115417511Y-81798000D03*
X115417511Y-84338000D03*
X115417511Y-86878000D03*
X115417511Y-89418000D03*
X115417511Y-91958000D03*
X115417511Y-94498000D03*
X115417511Y-97038000D03*
X115417511Y-99578000D03*
X123037511Y-99578000D03*
X123037511Y-97038000D03*
X123037511Y-94498000D03*
X123037511Y-91958000D03*
X123037511Y-89418000D03*
X123037511Y-86878000D03*
X123037511Y-84338000D03*
X123037511Y-81798000D03*
X123037511Y-79258000D03*
X123037511Y-76718000D03*
X123037511Y-74178000D03*
X123037511Y-71638000D03*
X123037511Y-69098000D03*
X123037511Y-66558000D03*
%TD*%
D26*
%TO.C,J8*%
X164658511Y-47649489D03*
D14*
X162118511Y-47649489D03*
%TD*%
D15*
%TO.C,J2*%
X104231511Y-99822000D03*
D14*
X106771511Y-99822000D03*
X109311511Y-99822000D03*
X111851511Y-99822000D03*
%TD*%
D27*
%TO.C,J15*%
X172532511Y-53364489D03*
X175072511Y-53364489D03*
X172532511Y-55904489D03*
X175072511Y-55904489D03*
X172532511Y-58444489D03*
D28*
X175072511Y-58444489D03*
%TD*%
D17*
%TO.C,H10*%
X158893000Y-138176000D03*
%TD*%
D29*
%TO.C,U5*%
X170660511Y-70631489D03*
X170660511Y-71901489D03*
X170660511Y-73171489D03*
X170660511Y-74441489D03*
X177960511Y-74441489D03*
X177960511Y-73171489D03*
X177960511Y-71901489D03*
X177960511Y-70631489D03*
%TD*%
D30*
%TO.C,J3*%
X128488511Y-71501000D03*
D20*
X128488511Y-68961000D03*
X128488511Y-66421000D03*
X128488511Y-63881000D03*
%TD*%
D31*
%TO.C,D2*%
X183455511Y-67080489D03*
X186755511Y-67080489D03*
%TD*%
D17*
%TO.C,H1*%
X102108000Y-48514000D03*
%TD*%
%TO.C,H5*%
X132588000Y-48514000D03*
%TD*%
D32*
%TO.C,C4*%
X185211011Y-70763489D03*
X187286011Y-70763489D03*
%TD*%
%TO.C,C2*%
X104485511Y-86614000D03*
X102410511Y-86614000D03*
%TD*%
D13*
%TO.C,R13*%
X178038000Y-134493000D03*
X176038000Y-134493000D03*
%TD*%
D17*
%TO.C,H3*%
X132588000Y-112014000D03*
%TD*%
D20*
%TO.C,J17*%
X160290000Y-131318000D03*
X160290000Y-128778000D03*
X160290000Y-126238000D03*
X160290000Y-123698000D03*
D19*
X160290000Y-121158000D03*
%TD*%
D33*
%TO.C,R6*%
X165928511Y-77256489D03*
X165928511Y-79256489D03*
%TD*%
D24*
%TO.C,J9*%
X153482511Y-57809489D03*
D34*
X150982511Y-57809489D03*
X148982511Y-57809489D03*
X146482511Y-57809489D03*
D35*
X143412511Y-55099489D03*
X156552511Y-55099489D03*
%TD*%
D36*
%TO.C,U2*%
X107420511Y-62382000D03*
X105120511Y-62382000D03*
X102820511Y-62382000D03*
D37*
X105120511Y-68682000D03*
%TD*%
D13*
%TO.C,R8*%
X178054000Y-121793000D03*
X176054000Y-121793000D03*
%TD*%
D14*
%TO.C,J13*%
X190312511Y-86130489D03*
X187772511Y-86130489D03*
X185232511Y-86130489D03*
D15*
X182692511Y-86130489D03*
%TD*%
%TO.C,J1*%
X116804511Y-106553000D03*
D14*
X119344511Y-106553000D03*
X121884511Y-106553000D03*
X124424511Y-106553000D03*
%TD*%
D38*
%TO.C,J4*%
X130565500Y-92832000D03*
D27*
X133105500Y-92832000D03*
X130565500Y-95372000D03*
X133105500Y-95372000D03*
X130565500Y-97912000D03*
X133105500Y-97912000D03*
%TD*%
D17*
%TO.C,H7*%
X184277000Y-111760000D03*
%TD*%
D14*
%TO.C,J10*%
X187391511Y-59333489D03*
X184851511Y-59333489D03*
D15*
X182311511Y-59333489D03*
%TD*%
D24*
%TO.C,U7*%
X166132000Y-121158000D03*
D25*
X166132000Y-123698000D03*
X166132000Y-126238000D03*
X166132000Y-128778000D03*
X166132000Y-131318000D03*
X166132000Y-133858000D03*
X166132000Y-136398000D03*
X166132000Y-138938000D03*
X173752000Y-138938000D03*
X173752000Y-136398000D03*
X173752000Y-133858000D03*
X173752000Y-131318000D03*
X173752000Y-128778000D03*
X173752000Y-126238000D03*
X173752000Y-123698000D03*
X173752000Y-121158000D03*
%TD*%
D13*
%TO.C,R15*%
X178054000Y-139573000D03*
X176054000Y-139573000D03*
%TD*%
%TO.C,R12*%
X178038000Y-131953000D03*
X176038000Y-131953000D03*
%TD*%
D39*
%TO.C,R7*%
X169611511Y-67990989D03*
X169611511Y-65915989D03*
%TD*%
D13*
%TO.C,R10*%
X178038000Y-126873000D03*
X176038000Y-126873000D03*
%TD*%
D29*
%TO.C,U3*%
X170914511Y-97306489D03*
X170914511Y-98576489D03*
X170914511Y-99846489D03*
X170914511Y-101116489D03*
X178214511Y-101116489D03*
X178214511Y-99846489D03*
X178214511Y-98576489D03*
X178214511Y-97306489D03*
%TD*%
D31*
%TO.C,D1*%
X127473511Y-57531000D03*
X130773511Y-57531000D03*
%TD*%
D13*
%TO.C,R3*%
X165436511Y-105561489D03*
X167436511Y-105561489D03*
%TD*%
D36*
%TO.C,U4*%
X159945511Y-61594489D03*
X162245511Y-61594489D03*
X164545511Y-61594489D03*
D37*
X162245511Y-55294489D03*
%TD*%
D30*
%TO.C,J14*%
X174818511Y-88416489D03*
D20*
X174818511Y-85876489D03*
X174818511Y-83336489D03*
X174818511Y-80796489D03*
%TD*%
D40*
%TO.C,U6*%
X164531511Y-99023489D03*
X164531511Y-99973489D03*
X164531511Y-100923489D03*
X166806511Y-100923489D03*
X166806511Y-99023489D03*
%TD*%
D13*
%TO.C,R9*%
X178038000Y-124333000D03*
X176038000Y-124333000D03*
%TD*%
D14*
%TO.C,J11*%
X188534511Y-77494489D03*
X185994511Y-77494489D03*
D15*
X183454511Y-77494489D03*
%TD*%
D30*
%TO.C,J7*%
X129413000Y-79248000D03*
D20*
X129413000Y-76708000D03*
%TD*%
D19*
%TO.C,J6*%
X107533511Y-74549000D03*
D20*
X107533511Y-77089000D03*
X107533511Y-79629000D03*
%TD*%
D32*
%TO.C,C1*%
X105142011Y-91313000D03*
X103067011Y-91313000D03*
%TD*%
D13*
%TO.C,R2*%
X127488511Y-84709000D03*
X129488511Y-84709000D03*
%TD*%
D33*
%TO.C,R5*%
X165928511Y-73192489D03*
X165928511Y-75192489D03*
%TD*%
D30*
%TO.C,J5*%
X102707511Y-58039000D03*
D20*
X102707511Y-55499000D03*
%TD*%
D17*
%TO.C,H6*%
X184277000Y-48514000D03*
%TD*%
M02*
