%TF.GenerationSoftware,KiCad,Pcbnew,(6.0.1)*%
%TF.CreationDate,2022-03-08T14:51:08-06:00*%
%TF.ProjectId,arliang2_good2go_2,61726c69-616e-4673-925f-676f6f643267,rev?*%
%TF.SameCoordinates,Original*%
%TF.FileFunction,Legend,Bot*%
%TF.FilePolarity,Positive*%
%FSLAX46Y46*%
G04 Gerber Fmt 4.6, Leading zero omitted, Abs format (unit mm)*
G04 Created by KiCad (PCBNEW (6.0.1)) date 2022-03-08 14:51:08*
%MOMM*%
%LPD*%
G01*
G04 APERTURE LIST*
G04 Aperture macros list*
%AMRoundRect*
0 Rectangle with rounded corners*
0 $1 Rounding radius*
0 $2 $3 $4 $5 $6 $7 $8 $9 X,Y pos of 4 corners*
0 Add a 4 corners polygon primitive as box body*
4,1,4,$2,$3,$4,$5,$6,$7,$8,$9,$2,$3,0*
0 Add four circle primitives for the rounded corners*
1,1,$1+$1,$2,$3*
1,1,$1+$1,$4,$5*
1,1,$1+$1,$6,$7*
1,1,$1+$1,$8,$9*
0 Add four rect primitives between the rounded corners*
20,1,$1+$1,$2,$3,$4,$5,0*
20,1,$1+$1,$4,$5,$6,$7,0*
20,1,$1+$1,$6,$7,$8,$9,0*
20,1,$1+$1,$8,$9,$2,$3,0*%
G04 Aperture macros list end*
%ADD10C,0.300000*%
%ADD11C,0.150000*%
%ADD12C,0.120000*%
%ADD13O,1.740000X2.190000*%
%ADD14RoundRect,0.250000X-0.620000X-0.845000X0.620000X-0.845000X0.620000X0.845000X-0.620000X0.845000X0*%
%ADD15C,1.500000*%
%ADD16C,3.200000*%
%ADD17RoundRect,0.250000X-0.845000X0.620000X-0.845000X-0.620000X0.845000X-0.620000X0.845000X0.620000X0*%
%ADD18O,2.190000X1.740000*%
%ADD19C,2.900000*%
%ADD20R,2.100000X1.900000*%
%ADD21O,2.100000X1.900000*%
%ADD22R,1.600000X1.600000*%
%ADD23O,1.600000X1.600000*%
%ADD24RoundRect,0.250000X0.620000X0.845000X-0.620000X0.845000X-0.620000X-0.845000X0.620000X-0.845000X0*%
%ADD25C,1.700000*%
%ADD26RoundRect,0.250000X0.600000X0.600000X-0.600000X0.600000X-0.600000X-0.600000X0.600000X-0.600000X0*%
%ADD27RoundRect,0.250000X0.845000X-0.620000X0.845000X0.620000X-0.845000X0.620000X-0.845000X-0.620000X0*%
%ADD28C,1.600000*%
%ADD29C,3.000000*%
%ADD30RoundRect,0.250000X-0.600000X-0.600000X0.600000X-0.600000X0.600000X0.600000X-0.600000X0.600000X0*%
G04 APERTURE END LIST*
D10*
X157411511Y-96233631D02*
X157482939Y-96376489D01*
X157482939Y-96590774D01*
X157411511Y-96805060D01*
X157268653Y-96947917D01*
X157125796Y-97019346D01*
X156840082Y-97090774D01*
X156625796Y-97090774D01*
X156340082Y-97019346D01*
X156197225Y-96947917D01*
X156054368Y-96805060D01*
X155982939Y-96590774D01*
X155982939Y-96447917D01*
X156054368Y-96233631D01*
X156125796Y-96162203D01*
X156625796Y-96162203D01*
X156625796Y-96447917D01*
X155982939Y-95305060D02*
X156054368Y-95447917D01*
X156125796Y-95519346D01*
X156268653Y-95590774D01*
X156697225Y-95590774D01*
X156840082Y-95519346D01*
X156911511Y-95447917D01*
X156982939Y-95305060D01*
X156982939Y-95090774D01*
X156911511Y-94947917D01*
X156840082Y-94876489D01*
X156697225Y-94805060D01*
X156268653Y-94805060D01*
X156125796Y-94876489D01*
X156054368Y-94947917D01*
X155982939Y-95090774D01*
X155982939Y-95305060D01*
X155982939Y-93947917D02*
X156054368Y-94090774D01*
X156125796Y-94162203D01*
X156268653Y-94233631D01*
X156697225Y-94233631D01*
X156840082Y-94162203D01*
X156911511Y-94090774D01*
X156982939Y-93947917D01*
X156982939Y-93733631D01*
X156911511Y-93590774D01*
X156840082Y-93519346D01*
X156697225Y-93447917D01*
X156268653Y-93447917D01*
X156125796Y-93519346D01*
X156054368Y-93590774D01*
X155982939Y-93733631D01*
X155982939Y-93947917D01*
X155982939Y-92162203D02*
X157482939Y-92162203D01*
X156054368Y-92162203D02*
X155982939Y-92305060D01*
X155982939Y-92590774D01*
X156054368Y-92733631D01*
X156125796Y-92805060D01*
X156268653Y-92876489D01*
X156697225Y-92876489D01*
X156840082Y-92805060D01*
X156911511Y-92733631D01*
X156982939Y-92590774D01*
X156982939Y-92305060D01*
X156911511Y-92162203D01*
X157340082Y-91519346D02*
X157411511Y-91447917D01*
X157482939Y-91305060D01*
X157482939Y-90947917D01*
X157411511Y-90805060D01*
X157340082Y-90733631D01*
X157197225Y-90662203D01*
X157054368Y-90662203D01*
X156840082Y-90733631D01*
X155982939Y-91590774D01*
X155982939Y-90662203D01*
X157411511Y-89233631D02*
X157482939Y-89376489D01*
X157482939Y-89590774D01*
X157411511Y-89805060D01*
X157268653Y-89947917D01*
X157125796Y-90019346D01*
X156840082Y-90090774D01*
X156625796Y-90090774D01*
X156340082Y-90019346D01*
X156197225Y-89947917D01*
X156054368Y-89805060D01*
X155982939Y-89590774D01*
X155982939Y-89447917D01*
X156054368Y-89233631D01*
X156125796Y-89162203D01*
X156625796Y-89162203D01*
X156625796Y-89447917D01*
X155982939Y-88305060D02*
X156054368Y-88447917D01*
X156125796Y-88519346D01*
X156268653Y-88590774D01*
X156697225Y-88590774D01*
X156840082Y-88519346D01*
X156911511Y-88447917D01*
X156982939Y-88305060D01*
X156982939Y-88090774D01*
X156911511Y-87947917D01*
X156840082Y-87876489D01*
X156697225Y-87805060D01*
X156268653Y-87805060D01*
X156125796Y-87876489D01*
X156054368Y-87947917D01*
X155982939Y-88090774D01*
X155982939Y-88305060D01*
X155982939Y-86019346D02*
X157482939Y-86019346D01*
X157482939Y-85662203D01*
X157411511Y-85447917D01*
X157268653Y-85305060D01*
X157125796Y-85233631D01*
X156840082Y-85162203D01*
X156625796Y-85162203D01*
X156340082Y-85233631D01*
X156197225Y-85305060D01*
X156054368Y-85447917D01*
X155982939Y-85662203D01*
X155982939Y-86019346D01*
X155982939Y-84519346D02*
X156982939Y-84519346D01*
X157482939Y-84519346D02*
X157411511Y-84590774D01*
X157340082Y-84519346D01*
X157411511Y-84447917D01*
X157482939Y-84519346D01*
X157340082Y-84519346D01*
X156054368Y-83876489D02*
X155982939Y-83733631D01*
X155982939Y-83447917D01*
X156054368Y-83305060D01*
X156197225Y-83233631D01*
X156268653Y-83233631D01*
X156411511Y-83305060D01*
X156482939Y-83447917D01*
X156482939Y-83662203D01*
X156554368Y-83805060D01*
X156697225Y-83876489D01*
X156768653Y-83876489D01*
X156911511Y-83805060D01*
X156982939Y-83662203D01*
X156982939Y-83447917D01*
X156911511Y-83305060D01*
X156982939Y-82590774D02*
X155482939Y-82590774D01*
X156911511Y-82590774D02*
X156982939Y-82447917D01*
X156982939Y-82162203D01*
X156911511Y-82019346D01*
X156840082Y-81947917D01*
X156697225Y-81876489D01*
X156268653Y-81876489D01*
X156125796Y-81947917D01*
X156054368Y-82019346D01*
X155982939Y-82162203D01*
X155982939Y-82447917D01*
X156054368Y-82590774D01*
X156054368Y-80662203D02*
X155982939Y-80805060D01*
X155982939Y-81090774D01*
X156054368Y-81233631D01*
X156197225Y-81305060D01*
X156768653Y-81305060D01*
X156911511Y-81233631D01*
X156982939Y-81090774D01*
X156982939Y-80805060D01*
X156911511Y-80662203D01*
X156768653Y-80590774D01*
X156625796Y-80590774D01*
X156482939Y-81305060D01*
X156982939Y-79947917D02*
X155982939Y-79947917D01*
X156840082Y-79947917D02*
X156911511Y-79876489D01*
X156982939Y-79733631D01*
X156982939Y-79519346D01*
X156911511Y-79376489D01*
X156768653Y-79305060D01*
X155982939Y-79305060D01*
X156054368Y-78662203D02*
X155982939Y-78519346D01*
X155982939Y-78233631D01*
X156054368Y-78090774D01*
X156197225Y-78019346D01*
X156268653Y-78019346D01*
X156411511Y-78090774D01*
X156482939Y-78233631D01*
X156482939Y-78447917D01*
X156554368Y-78590774D01*
X156697225Y-78662203D01*
X156768653Y-78662203D01*
X156911511Y-78590774D01*
X156982939Y-78447917D01*
X156982939Y-78233631D01*
X156911511Y-78090774D01*
X156054368Y-76805060D02*
X155982939Y-76947917D01*
X155982939Y-77233631D01*
X156054368Y-77376489D01*
X156197225Y-77447917D01*
X156768653Y-77447917D01*
X156911511Y-77376489D01*
X156982939Y-77233631D01*
X156982939Y-76947917D01*
X156911511Y-76805060D01*
X156768653Y-76733631D01*
X156625796Y-76733631D01*
X156482939Y-77447917D01*
X155982939Y-76090774D02*
X156982939Y-76090774D01*
X156697225Y-76090774D02*
X156840082Y-76019346D01*
X156911511Y-75947917D01*
X156982939Y-75805060D01*
X156982939Y-75662203D01*
X153639368Y-98876489D02*
X153567939Y-98662203D01*
X153567939Y-98305060D01*
X153639368Y-98162203D01*
X153710796Y-98090774D01*
X153853653Y-98019346D01*
X153996511Y-98019346D01*
X154139368Y-98090774D01*
X154210796Y-98162203D01*
X154282225Y-98305060D01*
X154353653Y-98590774D01*
X154425082Y-98733631D01*
X154496511Y-98805060D01*
X154639368Y-98876489D01*
X154782225Y-98876489D01*
X154925082Y-98805060D01*
X154996511Y-98733631D01*
X155067939Y-98590774D01*
X155067939Y-98233631D01*
X154996511Y-98019346D01*
X153639368Y-96805060D02*
X153567939Y-96947917D01*
X153567939Y-97233631D01*
X153639368Y-97376489D01*
X153782225Y-97447917D01*
X154353653Y-97447917D01*
X154496511Y-97376489D01*
X154567939Y-97233631D01*
X154567939Y-96947917D01*
X154496511Y-96805060D01*
X154353653Y-96733631D01*
X154210796Y-96733631D01*
X154067939Y-97447917D01*
X154567939Y-96090774D02*
X153567939Y-96090774D01*
X154425082Y-96090774D02*
X154496511Y-96019346D01*
X154567939Y-95876489D01*
X154567939Y-95662203D01*
X154496511Y-95519346D01*
X154353653Y-95447917D01*
X153567939Y-95447917D01*
X153567939Y-94733631D02*
X154567939Y-94733631D01*
X155067939Y-94733631D02*
X154996511Y-94805060D01*
X154925082Y-94733631D01*
X154996511Y-94662203D01*
X155067939Y-94733631D01*
X154925082Y-94733631D01*
X153567939Y-93805060D02*
X153639368Y-93947917D01*
X153710796Y-94019346D01*
X153853653Y-94090774D01*
X154282225Y-94090774D01*
X154425082Y-94019346D01*
X154496511Y-93947917D01*
X154567939Y-93805060D01*
X154567939Y-93590774D01*
X154496511Y-93447917D01*
X154425082Y-93376489D01*
X154282225Y-93305060D01*
X153853653Y-93305060D01*
X153710796Y-93376489D01*
X153639368Y-93447917D01*
X153567939Y-93590774D01*
X153567939Y-93805060D01*
X153567939Y-92662203D02*
X154567939Y-92662203D01*
X154282225Y-92662203D02*
X154425082Y-92590774D01*
X154496511Y-92519346D01*
X154567939Y-92376489D01*
X154567939Y-92233631D01*
X153567939Y-90590774D02*
X155067939Y-90590774D01*
X155067939Y-90233631D01*
X154996511Y-90019346D01*
X154853653Y-89876489D01*
X154710796Y-89805060D01*
X154425082Y-89733631D01*
X154210796Y-89733631D01*
X153925082Y-89805060D01*
X153782225Y-89876489D01*
X153639368Y-90019346D01*
X153567939Y-90233631D01*
X153567939Y-90590774D01*
X153639368Y-88519346D02*
X153567939Y-88662203D01*
X153567939Y-88947917D01*
X153639368Y-89090774D01*
X153782225Y-89162203D01*
X154353653Y-89162203D01*
X154496511Y-89090774D01*
X154567939Y-88947917D01*
X154567939Y-88662203D01*
X154496511Y-88519346D01*
X154353653Y-88447917D01*
X154210796Y-88447917D01*
X154067939Y-89162203D01*
X153639368Y-87876489D02*
X153567939Y-87733631D01*
X153567939Y-87447917D01*
X153639368Y-87305060D01*
X153782225Y-87233631D01*
X153853653Y-87233631D01*
X153996511Y-87305060D01*
X154067939Y-87447917D01*
X154067939Y-87662203D01*
X154139368Y-87805060D01*
X154282225Y-87876489D01*
X154353653Y-87876489D01*
X154496511Y-87805060D01*
X154567939Y-87662203D01*
X154567939Y-87447917D01*
X154496511Y-87305060D01*
X153567939Y-86590774D02*
X154567939Y-86590774D01*
X155067939Y-86590774D02*
X154996511Y-86662203D01*
X154925082Y-86590774D01*
X154996511Y-86519346D01*
X155067939Y-86590774D01*
X154925082Y-86590774D01*
X154567939Y-85233631D02*
X153353653Y-85233631D01*
X153210796Y-85305060D01*
X153139368Y-85376489D01*
X153067939Y-85519346D01*
X153067939Y-85733631D01*
X153139368Y-85876489D01*
X153639368Y-85233631D02*
X153567939Y-85376489D01*
X153567939Y-85662203D01*
X153639368Y-85805060D01*
X153710796Y-85876489D01*
X153853653Y-85947917D01*
X154282225Y-85947917D01*
X154425082Y-85876489D01*
X154496511Y-85805060D01*
X154567939Y-85662203D01*
X154567939Y-85376489D01*
X154496511Y-85233631D01*
X154567939Y-84519346D02*
X153567939Y-84519346D01*
X154425082Y-84519346D02*
X154496511Y-84447917D01*
X154567939Y-84305060D01*
X154567939Y-84090774D01*
X154496511Y-83947917D01*
X154353653Y-83876489D01*
X153567939Y-83876489D01*
X153639368Y-82090774D02*
X153567939Y-81876489D01*
X153567939Y-81519346D01*
X153639368Y-81376489D01*
X153710796Y-81305060D01*
X153853653Y-81233631D01*
X153996511Y-81233631D01*
X154139368Y-81305060D01*
X154210796Y-81376489D01*
X154282225Y-81519346D01*
X154353653Y-81805060D01*
X154425082Y-81947917D01*
X154496511Y-82019346D01*
X154639368Y-82090774D01*
X154782225Y-82090774D01*
X154925082Y-82019346D01*
X154996511Y-81947917D01*
X155067939Y-81805060D01*
X155067939Y-81447917D01*
X154996511Y-81233631D01*
X153567939Y-80590774D02*
X155067939Y-80590774D01*
X155067939Y-80019346D01*
X154996511Y-79876489D01*
X154925082Y-79805060D01*
X154782225Y-79733631D01*
X154567939Y-79733631D01*
X154425082Y-79805060D01*
X154353653Y-79876489D01*
X154282225Y-80019346D01*
X154282225Y-80590774D01*
X154925082Y-79162203D02*
X154996511Y-79090774D01*
X155067939Y-78947917D01*
X155067939Y-78590774D01*
X154996511Y-78447917D01*
X154925082Y-78376489D01*
X154782225Y-78305060D01*
X154639368Y-78305060D01*
X154425082Y-78376489D01*
X153567939Y-79233631D01*
X153567939Y-78305060D01*
X155067939Y-77376489D02*
X155067939Y-77233631D01*
X154996511Y-77090774D01*
X154925082Y-77019346D01*
X154782225Y-76947917D01*
X154496511Y-76876489D01*
X154139368Y-76876489D01*
X153853653Y-76947917D01*
X153710796Y-77019346D01*
X153639368Y-77090774D01*
X153567939Y-77233631D01*
X153567939Y-77376489D01*
X153639368Y-77519346D01*
X153710796Y-77590774D01*
X153853653Y-77662203D01*
X154139368Y-77733631D01*
X154496511Y-77733631D01*
X154782225Y-77662203D01*
X154925082Y-77590774D01*
X154996511Y-77519346D01*
X155067939Y-77376489D01*
X154925082Y-76305060D02*
X154996511Y-76233631D01*
X155067939Y-76090774D01*
X155067939Y-75733631D01*
X154996511Y-75590774D01*
X154925082Y-75519346D01*
X154782225Y-75447917D01*
X154639368Y-75447917D01*
X154425082Y-75519346D01*
X153567939Y-76376489D01*
X153567939Y-75447917D01*
X154925082Y-74876489D02*
X154996511Y-74805060D01*
X155067939Y-74662203D01*
X155067939Y-74305060D01*
X154996511Y-74162203D01*
X154925082Y-74090774D01*
X154782225Y-74019346D01*
X154639368Y-74019346D01*
X154425082Y-74090774D01*
X153567939Y-74947917D01*
X153567939Y-74019346D01*
X151581511Y-92947917D02*
X151581511Y-92233631D01*
X151152939Y-93090774D02*
X152652939Y-92590774D01*
X151152939Y-92090774D01*
X151152939Y-91590774D02*
X152152939Y-91590774D01*
X151867225Y-91590774D02*
X152010082Y-91519346D01*
X152081511Y-91447917D01*
X152152939Y-91305060D01*
X152152939Y-91162203D01*
X151152939Y-90662203D02*
X152152939Y-90662203D01*
X152652939Y-90662203D02*
X152581511Y-90733631D01*
X152510082Y-90662203D01*
X152581511Y-90590774D01*
X152652939Y-90662203D01*
X152510082Y-90662203D01*
X151152939Y-89733631D02*
X151224368Y-89876489D01*
X151295796Y-89947917D01*
X151438653Y-90019346D01*
X151867225Y-90019346D01*
X152010082Y-89947917D01*
X152081511Y-89876489D01*
X152152939Y-89733631D01*
X152152939Y-89519346D01*
X152081511Y-89376489D01*
X152010082Y-89305060D01*
X151867225Y-89233631D01*
X151438653Y-89233631D01*
X151295796Y-89305060D01*
X151224368Y-89376489D01*
X151152939Y-89519346D01*
X151152939Y-89733631D01*
X151224368Y-87947917D02*
X151152939Y-88090774D01*
X151152939Y-88376489D01*
X151224368Y-88519346D01*
X151295796Y-88590774D01*
X151438653Y-88662203D01*
X151867225Y-88662203D01*
X152010082Y-88590774D01*
X152081511Y-88519346D01*
X152152939Y-88376489D01*
X152152939Y-88090774D01*
X152081511Y-87947917D01*
X151152939Y-87305060D02*
X152152939Y-87305060D01*
X152652939Y-87305060D02*
X152581511Y-87376489D01*
X152510082Y-87305060D01*
X152581511Y-87233631D01*
X152652939Y-87305060D01*
X152510082Y-87305060D01*
X151224368Y-86019346D02*
X151152939Y-86162203D01*
X151152939Y-86447917D01*
X151224368Y-86590774D01*
X151367225Y-86662203D01*
X151938653Y-86662203D01*
X152081511Y-86590774D01*
X152152939Y-86447917D01*
X152152939Y-86162203D01*
X152081511Y-86019346D01*
X151938653Y-85947917D01*
X151795796Y-85947917D01*
X151652939Y-86662203D01*
X151152939Y-83447917D02*
X151152939Y-84162203D01*
X152652939Y-84162203D01*
X151152939Y-82947917D02*
X152152939Y-82947917D01*
X152652939Y-82947917D02*
X152581511Y-83019346D01*
X152510082Y-82947917D01*
X152581511Y-82876489D01*
X152652939Y-82947917D01*
X152510082Y-82947917D01*
X151152939Y-81590774D02*
X151938653Y-81590774D01*
X152081511Y-81662203D01*
X152152939Y-81805060D01*
X152152939Y-82090774D01*
X152081511Y-82233631D01*
X151224368Y-81590774D02*
X151152939Y-81733631D01*
X151152939Y-82090774D01*
X151224368Y-82233631D01*
X151367225Y-82305060D01*
X151510082Y-82305060D01*
X151652939Y-82233631D01*
X151724368Y-82090774D01*
X151724368Y-81733631D01*
X151795796Y-81590774D01*
X152152939Y-80876489D02*
X151152939Y-80876489D01*
X152010082Y-80876489D02*
X152081511Y-80805060D01*
X152152939Y-80662203D01*
X152152939Y-80447917D01*
X152081511Y-80305060D01*
X151938653Y-80233631D01*
X151152939Y-80233631D01*
X152152939Y-78876489D02*
X150938653Y-78876489D01*
X150795796Y-78947917D01*
X150724368Y-79019346D01*
X150652939Y-79162203D01*
X150652939Y-79376489D01*
X150724368Y-79519346D01*
X151224368Y-78876489D02*
X151152939Y-79019346D01*
X151152939Y-79305060D01*
X151224368Y-79447917D01*
X151295796Y-79519346D01*
X151438653Y-79590774D01*
X151867225Y-79590774D01*
X152010082Y-79519346D01*
X152081511Y-79447917D01*
X152152939Y-79305060D01*
X152152939Y-79019346D01*
X152081511Y-78876489D01*
X150237939Y-90376489D02*
X149166511Y-90376489D01*
X148952225Y-90447917D01*
X148809368Y-90590774D01*
X148737939Y-90805060D01*
X148737939Y-90947917D01*
X148737939Y-89447917D02*
X148809368Y-89590774D01*
X148880796Y-89662203D01*
X149023653Y-89733631D01*
X149452225Y-89733631D01*
X149595082Y-89662203D01*
X149666511Y-89590774D01*
X149737939Y-89447917D01*
X149737939Y-89233631D01*
X149666511Y-89090774D01*
X149595082Y-89019346D01*
X149452225Y-88947917D01*
X149023653Y-88947917D01*
X148880796Y-89019346D01*
X148809368Y-89090774D01*
X148737939Y-89233631D01*
X148737939Y-89447917D01*
X148737939Y-88305060D02*
X150237939Y-88305060D01*
X148737939Y-87662203D02*
X149523653Y-87662203D01*
X149666511Y-87733631D01*
X149737939Y-87876488D01*
X149737939Y-88090774D01*
X149666511Y-88233631D01*
X149595082Y-88305060D01*
X149737939Y-86947917D02*
X148737939Y-86947917D01*
X149595082Y-86947917D02*
X149666511Y-86876488D01*
X149737939Y-86733631D01*
X149737939Y-86519346D01*
X149666511Y-86376488D01*
X149523653Y-86305060D01*
X148737939Y-86305060D01*
X148737939Y-84447917D02*
X150237939Y-84447917D01*
X148737939Y-83590774D02*
X149595082Y-84233631D01*
X150237939Y-83590774D02*
X149380796Y-84447917D01*
X148737939Y-82947917D02*
X149737939Y-82947917D01*
X150237939Y-82947917D02*
X150166511Y-83019346D01*
X150095082Y-82947917D01*
X150166511Y-82876488D01*
X150237939Y-82947917D01*
X150095082Y-82947917D01*
X148737939Y-82233631D02*
X149737939Y-82233631D01*
X149595082Y-82233631D02*
X149666511Y-82162203D01*
X149737939Y-82019346D01*
X149737939Y-81805060D01*
X149666511Y-81662203D01*
X149523653Y-81590774D01*
X148737939Y-81590774D01*
X149523653Y-81590774D02*
X149666511Y-81519346D01*
X149737939Y-81376488D01*
X149737939Y-81162203D01*
X149666511Y-81019346D01*
X149523653Y-80947917D01*
X148737939Y-80947917D01*
X146322939Y-92019346D02*
X147822939Y-92019346D01*
X147108653Y-92019346D02*
X147108653Y-91162203D01*
X146322939Y-91162203D02*
X147822939Y-91162203D01*
X146394368Y-89876489D02*
X146322939Y-90019346D01*
X146322939Y-90305060D01*
X146394368Y-90447917D01*
X146537225Y-90519346D01*
X147108653Y-90519346D01*
X147251511Y-90447917D01*
X147322939Y-90305060D01*
X147322939Y-90019346D01*
X147251511Y-89876489D01*
X147108653Y-89805060D01*
X146965796Y-89805060D01*
X146822939Y-90519346D01*
X147322939Y-89162203D02*
X146322939Y-89162203D01*
X147180082Y-89162203D02*
X147251511Y-89090774D01*
X147322939Y-88947917D01*
X147322939Y-88733631D01*
X147251511Y-88590774D01*
X147108653Y-88519346D01*
X146322939Y-88519346D01*
X146322939Y-87805060D02*
X147322939Y-87805060D01*
X147037225Y-87805060D02*
X147180082Y-87733631D01*
X147251511Y-87662203D01*
X147322939Y-87519346D01*
X147322939Y-87376489D01*
X147322939Y-87019346D02*
X146322939Y-86662203D01*
X147322939Y-86305060D02*
X146322939Y-86662203D01*
X145965796Y-86805060D01*
X145894368Y-86876489D01*
X145822939Y-87019346D01*
X147751511Y-83805060D02*
X147822939Y-83947917D01*
X147822939Y-84162203D01*
X147751511Y-84376489D01*
X147608653Y-84519346D01*
X147465796Y-84590774D01*
X147180082Y-84662203D01*
X146965796Y-84662203D01*
X146680082Y-84590774D01*
X146537225Y-84519346D01*
X146394368Y-84376489D01*
X146322939Y-84162203D01*
X146322939Y-84019346D01*
X146394368Y-83805060D01*
X146465796Y-83733631D01*
X146965796Y-83733631D01*
X146965796Y-84019346D01*
X147322939Y-82447917D02*
X146322939Y-82447917D01*
X147322939Y-83090774D02*
X146537225Y-83090774D01*
X146394368Y-83019346D01*
X146322939Y-82876489D01*
X146322939Y-82662203D01*
X146394368Y-82519346D01*
X146465796Y-82447917D01*
X146322939Y-81090774D02*
X147108653Y-81090774D01*
X147251511Y-81162203D01*
X147322939Y-81305060D01*
X147322939Y-81590774D01*
X147251511Y-81733631D01*
X146394368Y-81090774D02*
X146322939Y-81233631D01*
X146322939Y-81590774D01*
X146394368Y-81733631D01*
X146537225Y-81805060D01*
X146680082Y-81805060D01*
X146822939Y-81733631D01*
X146894368Y-81590774D01*
X146894368Y-81233631D01*
X146965796Y-81090774D01*
X147322939Y-80376489D02*
X146322939Y-80376489D01*
X147180082Y-80376489D02*
X147251511Y-80305060D01*
X147322939Y-80162203D01*
X147322939Y-79947917D01*
X147251511Y-79805060D01*
X147108653Y-79733631D01*
X146322939Y-79733631D01*
D11*
%TO.C,J16*%
X176069380Y-130127476D02*
X176783666Y-130127476D01*
X176926523Y-130079857D01*
X177021761Y-129984619D01*
X177069380Y-129841761D01*
X177069380Y-129746523D01*
X177069380Y-131127476D02*
X177069380Y-130556047D01*
X177069380Y-130841761D02*
X176069380Y-130841761D01*
X176212238Y-130746523D01*
X176307476Y-130651285D01*
X176355095Y-130556047D01*
X176069380Y-131984619D02*
X176069380Y-131794142D01*
X176117000Y-131698904D01*
X176164619Y-131651285D01*
X176307476Y-131556047D01*
X176497952Y-131508428D01*
X176878904Y-131508428D01*
X176974142Y-131556047D01*
X177021761Y-131603666D01*
X177069380Y-131698904D01*
X177069380Y-131889380D01*
X177021761Y-131984619D01*
X176974142Y-132032238D01*
X176878904Y-132079857D01*
X176640809Y-132079857D01*
X176545571Y-132032238D01*
X176497952Y-131984619D01*
X176450333Y-131889380D01*
X176450333Y-131698904D01*
X176497952Y-131603666D01*
X176545571Y-131556047D01*
X176640809Y-131508428D01*
%TO.C,J17*%
X152828380Y-125428476D02*
X153542666Y-125428476D01*
X153685523Y-125380857D01*
X153780761Y-125285619D01*
X153828380Y-125142761D01*
X153828380Y-125047523D01*
X153828380Y-126428476D02*
X153828380Y-125857047D01*
X153828380Y-126142761D02*
X152828380Y-126142761D01*
X152971238Y-126047523D01*
X153066476Y-125952285D01*
X153114095Y-125857047D01*
X152828380Y-126761809D02*
X152828380Y-127428476D01*
X153828380Y-126999904D01*
D12*
%TO.C,J16*%
X178307000Y-140627000D02*
X177707000Y-140627000D01*
X177707000Y-131407000D02*
X178307000Y-131407000D01*
X177707000Y-133947000D02*
X178307000Y-133947000D01*
X183727000Y-139827000D02*
X182727000Y-139827000D01*
X183727000Y-120667000D02*
X183727000Y-141207000D01*
X183727000Y-141207000D02*
X177707000Y-141207000D01*
X183727000Y-122047000D02*
X182727000Y-122047000D01*
X178737000Y-120377000D02*
X182737000Y-120377000D01*
X183727000Y-139577000D02*
X182727000Y-139577000D01*
X178307000Y-133007000D02*
X177707000Y-133007000D01*
X178307000Y-139027000D02*
X178307000Y-140627000D01*
X178307000Y-136487000D02*
X178307000Y-138087000D01*
X182197000Y-122297000D02*
X182197000Y-127127000D01*
X178307000Y-133947000D02*
X178307000Y-135547000D01*
X178307000Y-121247000D02*
X178307000Y-122847000D01*
X177707000Y-128867000D02*
X178307000Y-128867000D01*
X182727000Y-122047000D02*
X182727000Y-127127000D01*
X178307000Y-127927000D02*
X177707000Y-127927000D01*
X177707000Y-141207000D02*
X177707000Y-120667000D01*
X182727000Y-127127000D02*
X183727000Y-127127000D01*
X178307000Y-135547000D02*
X177707000Y-135547000D01*
X182197000Y-134747000D02*
X182727000Y-134747000D01*
X178307000Y-138087000D02*
X177707000Y-138087000D01*
X182727000Y-134747000D02*
X183727000Y-134747000D01*
X182197000Y-139577000D02*
X182197000Y-134747000D01*
X177707000Y-123787000D02*
X178307000Y-123787000D01*
X182727000Y-122047000D02*
X182197000Y-122297000D01*
X182727000Y-139827000D02*
X182197000Y-139577000D01*
X178307000Y-125387000D02*
X177707000Y-125387000D01*
X178307000Y-122847000D02*
X177707000Y-122847000D01*
X177707000Y-139027000D02*
X178307000Y-139027000D01*
X182727000Y-139827000D02*
X182727000Y-134747000D01*
X177707000Y-121247000D02*
X178307000Y-121247000D01*
X177707000Y-126327000D02*
X178307000Y-126327000D01*
X178307000Y-128867000D02*
X178307000Y-130467000D01*
X178307000Y-131407000D02*
X178307000Y-133007000D01*
X178307000Y-123787000D02*
X178307000Y-125387000D01*
X178307000Y-130467000D02*
X177707000Y-130467000D01*
X177707000Y-136487000D02*
X178307000Y-136487000D01*
X177707000Y-120667000D02*
X183727000Y-120667000D01*
X182197000Y-127127000D02*
X182727000Y-127127000D01*
X178307000Y-126327000D02*
X178307000Y-127927000D01*
X183727000Y-122297000D02*
X182727000Y-122297000D01*
%TO.C,J17*%
X157860000Y-122898000D02*
X157860000Y-124498000D01*
X163280000Y-121408000D02*
X162280000Y-121408000D01*
X162280000Y-121158000D02*
X161750000Y-121408000D01*
X157260000Y-119778000D02*
X163280000Y-119778000D01*
X163280000Y-132698000D02*
X157260000Y-132698000D01*
X162280000Y-121158000D02*
X162280000Y-131318000D01*
X157860000Y-130518000D02*
X157860000Y-132118000D01*
X157260000Y-130518000D02*
X157860000Y-130518000D01*
X163280000Y-131068000D02*
X162280000Y-131068000D01*
X163280000Y-119778000D02*
X163280000Y-132698000D01*
X157860000Y-127978000D02*
X157860000Y-129578000D01*
X157860000Y-120358000D02*
X157860000Y-121958000D01*
X157260000Y-132698000D02*
X157260000Y-119778000D01*
X157860000Y-127038000D02*
X157260000Y-127038000D01*
X161750000Y-131068000D02*
X162280000Y-131318000D01*
X157860000Y-124498000D02*
X157260000Y-124498000D01*
X157860000Y-125438000D02*
X157860000Y-127038000D01*
X161750000Y-121408000D02*
X161750000Y-131068000D01*
X157260000Y-120358000D02*
X157860000Y-120358000D01*
X157260000Y-127978000D02*
X157860000Y-127978000D01*
X157860000Y-121958000D02*
X157260000Y-121958000D01*
X157260000Y-122898000D02*
X157860000Y-122898000D01*
X157860000Y-129578000D02*
X157260000Y-129578000D01*
X157860000Y-132118000D02*
X157260000Y-132118000D01*
X162280000Y-131318000D02*
X163280000Y-131318000D01*
X163280000Y-121158000D02*
X162280000Y-121158000D01*
X158290000Y-119488000D02*
X162290000Y-119488000D01*
X157260000Y-125438000D02*
X157860000Y-125438000D01*
%TD*%
%LPC*%
D13*
%TO.C,J12*%
X187010511Y-99871489D03*
X184470511Y-99871489D03*
D14*
X181930511Y-99871489D03*
%TD*%
D15*
%TO.C,Y1*%
X109565511Y-90969000D03*
X109565511Y-86089000D03*
%TD*%
D16*
%TO.C,H2*%
X102108000Y-112014000D03*
%TD*%
D17*
%TO.C,J16*%
X180737000Y-122047000D03*
D18*
X180737000Y-124587000D03*
X180737000Y-127127000D03*
X180737000Y-129667000D03*
X180737000Y-132207000D03*
X180737000Y-134747000D03*
X180737000Y-137287000D03*
X180737000Y-139827000D03*
%TD*%
D16*
%TO.C,H9*%
X188341000Y-121031000D03*
%TD*%
D19*
%TO.C,A1*%
X161483511Y-102894489D03*
X141163511Y-102894489D03*
X141163511Y-69874489D03*
X161483511Y-69874489D03*
D20*
X141163511Y-73684489D03*
D21*
X141163511Y-76224489D03*
X141163511Y-78764489D03*
X141163511Y-81304489D03*
X141163511Y-83844489D03*
X141163511Y-86384489D03*
X141163511Y-88924489D03*
X141163511Y-91464489D03*
X141163511Y-94004489D03*
X141163511Y-96544489D03*
X161483511Y-96544489D03*
X161483511Y-94004489D03*
X161483511Y-91464489D03*
X161483511Y-88924489D03*
X161483511Y-86384489D03*
X161483511Y-83844489D03*
X161483511Y-81304489D03*
X161483511Y-78764489D03*
X161483511Y-76224489D03*
X161483511Y-73684489D03*
%TD*%
D22*
%TO.C,U1*%
X115417511Y-66558000D03*
D23*
X115417511Y-69098000D03*
X115417511Y-71638000D03*
X115417511Y-74178000D03*
X115417511Y-76718000D03*
X115417511Y-79258000D03*
X115417511Y-81798000D03*
X115417511Y-84338000D03*
X115417511Y-86878000D03*
X115417511Y-89418000D03*
X115417511Y-91958000D03*
X115417511Y-94498000D03*
X115417511Y-97038000D03*
X115417511Y-99578000D03*
X123037511Y-99578000D03*
X123037511Y-97038000D03*
X123037511Y-94498000D03*
X123037511Y-91958000D03*
X123037511Y-89418000D03*
X123037511Y-86878000D03*
X123037511Y-84338000D03*
X123037511Y-81798000D03*
X123037511Y-79258000D03*
X123037511Y-76718000D03*
X123037511Y-74178000D03*
X123037511Y-71638000D03*
X123037511Y-69098000D03*
X123037511Y-66558000D03*
%TD*%
D24*
%TO.C,J8*%
X164658511Y-47649489D03*
D13*
X162118511Y-47649489D03*
%TD*%
D14*
%TO.C,J2*%
X104231511Y-99822000D03*
D13*
X106771511Y-99822000D03*
X109311511Y-99822000D03*
X111851511Y-99822000D03*
%TD*%
D25*
%TO.C,J15*%
X172532511Y-53364489D03*
X175072511Y-53364489D03*
X172532511Y-55904489D03*
X175072511Y-55904489D03*
X172532511Y-58444489D03*
D26*
X175072511Y-58444489D03*
%TD*%
D16*
%TO.C,H10*%
X158893000Y-138176000D03*
%TD*%
D27*
%TO.C,J3*%
X128488511Y-71501000D03*
D18*
X128488511Y-68961000D03*
X128488511Y-66421000D03*
X128488511Y-63881000D03*
%TD*%
D16*
%TO.C,H1*%
X102108000Y-48514000D03*
%TD*%
%TO.C,H5*%
X132588000Y-48514000D03*
%TD*%
%TO.C,H3*%
X132588000Y-112014000D03*
%TD*%
D18*
%TO.C,J17*%
X160290000Y-131318000D03*
X160290000Y-128778000D03*
X160290000Y-126238000D03*
X160290000Y-123698000D03*
D17*
X160290000Y-121158000D03*
%TD*%
D22*
%TO.C,J9*%
X153482511Y-57809489D03*
D28*
X150982511Y-57809489D03*
X148982511Y-57809489D03*
X146482511Y-57809489D03*
D29*
X143412511Y-55099489D03*
X156552511Y-55099489D03*
%TD*%
D13*
%TO.C,J13*%
X190312511Y-86130489D03*
X187772511Y-86130489D03*
X185232511Y-86130489D03*
D14*
X182692511Y-86130489D03*
%TD*%
%TO.C,J1*%
X116804511Y-106553000D03*
D13*
X119344511Y-106553000D03*
X121884511Y-106553000D03*
X124424511Y-106553000D03*
%TD*%
D30*
%TO.C,J4*%
X130565500Y-92832000D03*
D25*
X133105500Y-92832000D03*
X130565500Y-95372000D03*
X133105500Y-95372000D03*
X130565500Y-97912000D03*
X133105500Y-97912000D03*
%TD*%
D16*
%TO.C,H7*%
X184277000Y-111760000D03*
%TD*%
D13*
%TO.C,J10*%
X187391511Y-59333489D03*
X184851511Y-59333489D03*
D14*
X182311511Y-59333489D03*
%TD*%
D22*
%TO.C,U7*%
X166132000Y-121158000D03*
D23*
X166132000Y-123698000D03*
X166132000Y-126238000D03*
X166132000Y-128778000D03*
X166132000Y-131318000D03*
X166132000Y-133858000D03*
X166132000Y-136398000D03*
X166132000Y-138938000D03*
X173752000Y-138938000D03*
X173752000Y-136398000D03*
X173752000Y-133858000D03*
X173752000Y-131318000D03*
X173752000Y-128778000D03*
X173752000Y-126238000D03*
X173752000Y-123698000D03*
X173752000Y-121158000D03*
%TD*%
D27*
%TO.C,J14*%
X174818511Y-88416489D03*
D18*
X174818511Y-85876489D03*
X174818511Y-83336489D03*
X174818511Y-80796489D03*
%TD*%
D13*
%TO.C,J11*%
X188534511Y-77494489D03*
X185994511Y-77494489D03*
D14*
X183454511Y-77494489D03*
%TD*%
D27*
%TO.C,J7*%
X129413000Y-79248000D03*
D18*
X129413000Y-76708000D03*
%TD*%
D17*
%TO.C,J6*%
X107533511Y-74549000D03*
D18*
X107533511Y-77089000D03*
X107533511Y-79629000D03*
%TD*%
D27*
%TO.C,J5*%
X102707511Y-58039000D03*
D18*
X102707511Y-55499000D03*
%TD*%
D16*
%TO.C,H6*%
X184277000Y-48514000D03*
%TD*%
M02*
