%TF.GenerationSoftware,KiCad,Pcbnew,(6.0.1)*%
%TF.CreationDate,2022-03-10T19:24:07-06:00*%
%TF.ProjectId,arliang2_good2go,61726c69-616e-4673-925f-676f6f643267,rev?*%
%TF.SameCoordinates,Original*%
%TF.FileFunction,Legend,Bot*%
%TF.FilePolarity,Positive*%
%FSLAX46Y46*%
G04 Gerber Fmt 4.6, Leading zero omitted, Abs format (unit mm)*
G04 Created by KiCad (PCBNEW (6.0.1)) date 2022-03-10 19:24:07*
%MOMM*%
%LPD*%
G01*
G04 APERTURE LIST*
G04 Aperture macros list*
%AMRoundRect*
0 Rectangle with rounded corners*
0 $1 Rounding radius*
0 $2 $3 $4 $5 $6 $7 $8 $9 X,Y pos of 4 corners*
0 Add a 4 corners polygon primitive as box body*
4,1,4,$2,$3,$4,$5,$6,$7,$8,$9,$2,$3,0*
0 Add four circle primitives for the rounded corners*
1,1,$1+$1,$2,$3*
1,1,$1+$1,$4,$5*
1,1,$1+$1,$6,$7*
1,1,$1+$1,$8,$9*
0 Add four rect primitives between the rounded corners*
20,1,$1+$1,$2,$3,$4,$5,0*
20,1,$1+$1,$4,$5,$6,$7,0*
20,1,$1+$1,$6,$7,$8,$9,0*
20,1,$1+$1,$8,$9,$2,$3,0*%
G04 Aperture macros list end*
%ADD10C,0.300000*%
%ADD11C,0.150000*%
%ADD12C,0.120000*%
%ADD13RoundRect,0.250000X-0.620000X-0.845000X0.620000X-0.845000X0.620000X0.845000X-0.620000X0.845000X0*%
%ADD14O,1.740000X2.190000*%
%ADD15C,1.500000*%
%ADD16C,3.200000*%
%ADD17C,2.900000*%
%ADD18R,2.100000X1.900000*%
%ADD19O,2.100000X1.900000*%
%ADD20R,1.600000X1.600000*%
%ADD21O,1.600000X1.600000*%
%ADD22RoundRect,0.250000X0.620000X0.845000X-0.620000X0.845000X-0.620000X-0.845000X0.620000X-0.845000X0*%
%ADD23RoundRect,0.250000X0.600000X0.600000X-0.600000X0.600000X-0.600000X-0.600000X0.600000X-0.600000X0*%
%ADD24C,1.700000*%
%ADD25RoundRect,0.250000X0.845000X-0.620000X0.845000X0.620000X-0.845000X0.620000X-0.845000X-0.620000X0*%
%ADD26O,2.190000X1.740000*%
%ADD27C,1.600000*%
%ADD28C,3.000000*%
%ADD29RoundRect,0.250000X-0.600000X-0.600000X0.600000X-0.600000X0.600000X0.600000X-0.600000X0.600000X0*%
%ADD30RoundRect,0.250000X-0.845000X0.620000X-0.845000X-0.620000X0.845000X-0.620000X0.845000X0.620000X0*%
G04 APERTURE END LIST*
D10*
X155440000Y-96336142D02*
X155511428Y-96479000D01*
X155511428Y-96693285D01*
X155440000Y-96907571D01*
X155297142Y-97050428D01*
X155154285Y-97121857D01*
X154868571Y-97193285D01*
X154654285Y-97193285D01*
X154368571Y-97121857D01*
X154225714Y-97050428D01*
X154082857Y-96907571D01*
X154011428Y-96693285D01*
X154011428Y-96550428D01*
X154082857Y-96336142D01*
X154154285Y-96264714D01*
X154654285Y-96264714D01*
X154654285Y-96550428D01*
X154011428Y-95407571D02*
X154082857Y-95550428D01*
X154154285Y-95621857D01*
X154297142Y-95693285D01*
X154725714Y-95693285D01*
X154868571Y-95621857D01*
X154940000Y-95550428D01*
X155011428Y-95407571D01*
X155011428Y-95193285D01*
X154940000Y-95050428D01*
X154868571Y-94979000D01*
X154725714Y-94907571D01*
X154297142Y-94907571D01*
X154154285Y-94979000D01*
X154082857Y-95050428D01*
X154011428Y-95193285D01*
X154011428Y-95407571D01*
X154011428Y-94050428D02*
X154082857Y-94193285D01*
X154154285Y-94264714D01*
X154297142Y-94336142D01*
X154725714Y-94336142D01*
X154868571Y-94264714D01*
X154940000Y-94193285D01*
X155011428Y-94050428D01*
X155011428Y-93836142D01*
X154940000Y-93693285D01*
X154868571Y-93621857D01*
X154725714Y-93550428D01*
X154297142Y-93550428D01*
X154154285Y-93621857D01*
X154082857Y-93693285D01*
X154011428Y-93836142D01*
X154011428Y-94050428D01*
X154011428Y-92264714D02*
X155511428Y-92264714D01*
X154082857Y-92264714D02*
X154011428Y-92407571D01*
X154011428Y-92693285D01*
X154082857Y-92836142D01*
X154154285Y-92907571D01*
X154297142Y-92979000D01*
X154725714Y-92979000D01*
X154868571Y-92907571D01*
X154940000Y-92836142D01*
X155011428Y-92693285D01*
X155011428Y-92407571D01*
X154940000Y-92264714D01*
X155368571Y-91621857D02*
X155440000Y-91550428D01*
X155511428Y-91407571D01*
X155511428Y-91050428D01*
X155440000Y-90907571D01*
X155368571Y-90836142D01*
X155225714Y-90764714D01*
X155082857Y-90764714D01*
X154868571Y-90836142D01*
X154011428Y-91693285D01*
X154011428Y-90764714D01*
X155440000Y-89336142D02*
X155511428Y-89479000D01*
X155511428Y-89693285D01*
X155440000Y-89907571D01*
X155297142Y-90050428D01*
X155154285Y-90121857D01*
X154868571Y-90193285D01*
X154654285Y-90193285D01*
X154368571Y-90121857D01*
X154225714Y-90050428D01*
X154082857Y-89907571D01*
X154011428Y-89693285D01*
X154011428Y-89550428D01*
X154082857Y-89336142D01*
X154154285Y-89264714D01*
X154654285Y-89264714D01*
X154654285Y-89550428D01*
X154011428Y-88407571D02*
X154082857Y-88550428D01*
X154154285Y-88621857D01*
X154297142Y-88693285D01*
X154725714Y-88693285D01*
X154868571Y-88621857D01*
X154940000Y-88550428D01*
X155011428Y-88407571D01*
X155011428Y-88193285D01*
X154940000Y-88050428D01*
X154868571Y-87979000D01*
X154725714Y-87907571D01*
X154297142Y-87907571D01*
X154154285Y-87979000D01*
X154082857Y-88050428D01*
X154011428Y-88193285D01*
X154011428Y-88407571D01*
X154011428Y-86121857D02*
X155511428Y-86121857D01*
X155511428Y-85764714D01*
X155440000Y-85550428D01*
X155297142Y-85407571D01*
X155154285Y-85336142D01*
X154868571Y-85264714D01*
X154654285Y-85264714D01*
X154368571Y-85336142D01*
X154225714Y-85407571D01*
X154082857Y-85550428D01*
X154011428Y-85764714D01*
X154011428Y-86121857D01*
X154011428Y-84621857D02*
X155011428Y-84621857D01*
X155511428Y-84621857D02*
X155440000Y-84693285D01*
X155368571Y-84621857D01*
X155440000Y-84550428D01*
X155511428Y-84621857D01*
X155368571Y-84621857D01*
X154082857Y-83979000D02*
X154011428Y-83836142D01*
X154011428Y-83550428D01*
X154082857Y-83407571D01*
X154225714Y-83336142D01*
X154297142Y-83336142D01*
X154440000Y-83407571D01*
X154511428Y-83550428D01*
X154511428Y-83764714D01*
X154582857Y-83907571D01*
X154725714Y-83979000D01*
X154797142Y-83979000D01*
X154940000Y-83907571D01*
X155011428Y-83764714D01*
X155011428Y-83550428D01*
X154940000Y-83407571D01*
X155011428Y-82693285D02*
X153511428Y-82693285D01*
X154940000Y-82693285D02*
X155011428Y-82550428D01*
X155011428Y-82264714D01*
X154940000Y-82121857D01*
X154868571Y-82050428D01*
X154725714Y-81979000D01*
X154297142Y-81979000D01*
X154154285Y-82050428D01*
X154082857Y-82121857D01*
X154011428Y-82264714D01*
X154011428Y-82550428D01*
X154082857Y-82693285D01*
X154082857Y-80764714D02*
X154011428Y-80907571D01*
X154011428Y-81193285D01*
X154082857Y-81336142D01*
X154225714Y-81407571D01*
X154797142Y-81407571D01*
X154940000Y-81336142D01*
X155011428Y-81193285D01*
X155011428Y-80907571D01*
X154940000Y-80764714D01*
X154797142Y-80693285D01*
X154654285Y-80693285D01*
X154511428Y-81407571D01*
X155011428Y-80050428D02*
X154011428Y-80050428D01*
X154868571Y-80050428D02*
X154940000Y-79979000D01*
X155011428Y-79836142D01*
X155011428Y-79621857D01*
X154940000Y-79479000D01*
X154797142Y-79407571D01*
X154011428Y-79407571D01*
X154082857Y-78764714D02*
X154011428Y-78621857D01*
X154011428Y-78336142D01*
X154082857Y-78193285D01*
X154225714Y-78121857D01*
X154297142Y-78121857D01*
X154440000Y-78193285D01*
X154511428Y-78336142D01*
X154511428Y-78550428D01*
X154582857Y-78693285D01*
X154725714Y-78764714D01*
X154797142Y-78764714D01*
X154940000Y-78693285D01*
X155011428Y-78550428D01*
X155011428Y-78336142D01*
X154940000Y-78193285D01*
X154082857Y-76907571D02*
X154011428Y-77050428D01*
X154011428Y-77336142D01*
X154082857Y-77479000D01*
X154225714Y-77550428D01*
X154797142Y-77550428D01*
X154940000Y-77479000D01*
X155011428Y-77336142D01*
X155011428Y-77050428D01*
X154940000Y-76907571D01*
X154797142Y-76836142D01*
X154654285Y-76836142D01*
X154511428Y-77550428D01*
X154011428Y-76193285D02*
X155011428Y-76193285D01*
X154725714Y-76193285D02*
X154868571Y-76121857D01*
X154940000Y-76050428D01*
X155011428Y-75907571D01*
X155011428Y-75764714D01*
X151667857Y-98979000D02*
X151596428Y-98764714D01*
X151596428Y-98407571D01*
X151667857Y-98264714D01*
X151739285Y-98193285D01*
X151882142Y-98121857D01*
X152025000Y-98121857D01*
X152167857Y-98193285D01*
X152239285Y-98264714D01*
X152310714Y-98407571D01*
X152382142Y-98693285D01*
X152453571Y-98836142D01*
X152525000Y-98907571D01*
X152667857Y-98979000D01*
X152810714Y-98979000D01*
X152953571Y-98907571D01*
X153025000Y-98836142D01*
X153096428Y-98693285D01*
X153096428Y-98336142D01*
X153025000Y-98121857D01*
X151667857Y-96907571D02*
X151596428Y-97050428D01*
X151596428Y-97336142D01*
X151667857Y-97479000D01*
X151810714Y-97550428D01*
X152382142Y-97550428D01*
X152525000Y-97479000D01*
X152596428Y-97336142D01*
X152596428Y-97050428D01*
X152525000Y-96907571D01*
X152382142Y-96836142D01*
X152239285Y-96836142D01*
X152096428Y-97550428D01*
X152596428Y-96193285D02*
X151596428Y-96193285D01*
X152453571Y-96193285D02*
X152525000Y-96121857D01*
X152596428Y-95979000D01*
X152596428Y-95764714D01*
X152525000Y-95621857D01*
X152382142Y-95550428D01*
X151596428Y-95550428D01*
X151596428Y-94836142D02*
X152596428Y-94836142D01*
X153096428Y-94836142D02*
X153025000Y-94907571D01*
X152953571Y-94836142D01*
X153025000Y-94764714D01*
X153096428Y-94836142D01*
X152953571Y-94836142D01*
X151596428Y-93907571D02*
X151667857Y-94050428D01*
X151739285Y-94121857D01*
X151882142Y-94193285D01*
X152310714Y-94193285D01*
X152453571Y-94121857D01*
X152525000Y-94050428D01*
X152596428Y-93907571D01*
X152596428Y-93693285D01*
X152525000Y-93550428D01*
X152453571Y-93479000D01*
X152310714Y-93407571D01*
X151882142Y-93407571D01*
X151739285Y-93479000D01*
X151667857Y-93550428D01*
X151596428Y-93693285D01*
X151596428Y-93907571D01*
X151596428Y-92764714D02*
X152596428Y-92764714D01*
X152310714Y-92764714D02*
X152453571Y-92693285D01*
X152525000Y-92621857D01*
X152596428Y-92479000D01*
X152596428Y-92336142D01*
X151596428Y-90693285D02*
X153096428Y-90693285D01*
X153096428Y-90336142D01*
X153025000Y-90121857D01*
X152882142Y-89979000D01*
X152739285Y-89907571D01*
X152453571Y-89836142D01*
X152239285Y-89836142D01*
X151953571Y-89907571D01*
X151810714Y-89979000D01*
X151667857Y-90121857D01*
X151596428Y-90336142D01*
X151596428Y-90693285D01*
X151667857Y-88621857D02*
X151596428Y-88764714D01*
X151596428Y-89050428D01*
X151667857Y-89193285D01*
X151810714Y-89264714D01*
X152382142Y-89264714D01*
X152525000Y-89193285D01*
X152596428Y-89050428D01*
X152596428Y-88764714D01*
X152525000Y-88621857D01*
X152382142Y-88550428D01*
X152239285Y-88550428D01*
X152096428Y-89264714D01*
X151667857Y-87979000D02*
X151596428Y-87836142D01*
X151596428Y-87550428D01*
X151667857Y-87407571D01*
X151810714Y-87336142D01*
X151882142Y-87336142D01*
X152025000Y-87407571D01*
X152096428Y-87550428D01*
X152096428Y-87764714D01*
X152167857Y-87907571D01*
X152310714Y-87979000D01*
X152382142Y-87979000D01*
X152525000Y-87907571D01*
X152596428Y-87764714D01*
X152596428Y-87550428D01*
X152525000Y-87407571D01*
X151596428Y-86693285D02*
X152596428Y-86693285D01*
X153096428Y-86693285D02*
X153025000Y-86764714D01*
X152953571Y-86693285D01*
X153025000Y-86621857D01*
X153096428Y-86693285D01*
X152953571Y-86693285D01*
X152596428Y-85336142D02*
X151382142Y-85336142D01*
X151239285Y-85407571D01*
X151167857Y-85479000D01*
X151096428Y-85621857D01*
X151096428Y-85836142D01*
X151167857Y-85979000D01*
X151667857Y-85336142D02*
X151596428Y-85479000D01*
X151596428Y-85764714D01*
X151667857Y-85907571D01*
X151739285Y-85979000D01*
X151882142Y-86050428D01*
X152310714Y-86050428D01*
X152453571Y-85979000D01*
X152525000Y-85907571D01*
X152596428Y-85764714D01*
X152596428Y-85479000D01*
X152525000Y-85336142D01*
X152596428Y-84621857D02*
X151596428Y-84621857D01*
X152453571Y-84621857D02*
X152525000Y-84550428D01*
X152596428Y-84407571D01*
X152596428Y-84193285D01*
X152525000Y-84050428D01*
X152382142Y-83979000D01*
X151596428Y-83979000D01*
X151667857Y-82193285D02*
X151596428Y-81979000D01*
X151596428Y-81621857D01*
X151667857Y-81479000D01*
X151739285Y-81407571D01*
X151882142Y-81336142D01*
X152025000Y-81336142D01*
X152167857Y-81407571D01*
X152239285Y-81479000D01*
X152310714Y-81621857D01*
X152382142Y-81907571D01*
X152453571Y-82050428D01*
X152525000Y-82121857D01*
X152667857Y-82193285D01*
X152810714Y-82193285D01*
X152953571Y-82121857D01*
X153025000Y-82050428D01*
X153096428Y-81907571D01*
X153096428Y-81550428D01*
X153025000Y-81336142D01*
X151596428Y-80693285D02*
X153096428Y-80693285D01*
X153096428Y-80121857D01*
X153025000Y-79979000D01*
X152953571Y-79907571D01*
X152810714Y-79836142D01*
X152596428Y-79836142D01*
X152453571Y-79907571D01*
X152382142Y-79979000D01*
X152310714Y-80121857D01*
X152310714Y-80693285D01*
X152953571Y-79264714D02*
X153025000Y-79193285D01*
X153096428Y-79050428D01*
X153096428Y-78693285D01*
X153025000Y-78550428D01*
X152953571Y-78479000D01*
X152810714Y-78407571D01*
X152667857Y-78407571D01*
X152453571Y-78479000D01*
X151596428Y-79336142D01*
X151596428Y-78407571D01*
X153096428Y-77479000D02*
X153096428Y-77336142D01*
X153025000Y-77193285D01*
X152953571Y-77121857D01*
X152810714Y-77050428D01*
X152525000Y-76979000D01*
X152167857Y-76979000D01*
X151882142Y-77050428D01*
X151739285Y-77121857D01*
X151667857Y-77193285D01*
X151596428Y-77336142D01*
X151596428Y-77479000D01*
X151667857Y-77621857D01*
X151739285Y-77693285D01*
X151882142Y-77764714D01*
X152167857Y-77836142D01*
X152525000Y-77836142D01*
X152810714Y-77764714D01*
X152953571Y-77693285D01*
X153025000Y-77621857D01*
X153096428Y-77479000D01*
X152953571Y-76407571D02*
X153025000Y-76336142D01*
X153096428Y-76193285D01*
X153096428Y-75836142D01*
X153025000Y-75693285D01*
X152953571Y-75621857D01*
X152810714Y-75550428D01*
X152667857Y-75550428D01*
X152453571Y-75621857D01*
X151596428Y-76479000D01*
X151596428Y-75550428D01*
X152953571Y-74979000D02*
X153025000Y-74907571D01*
X153096428Y-74764714D01*
X153096428Y-74407571D01*
X153025000Y-74264714D01*
X152953571Y-74193285D01*
X152810714Y-74121857D01*
X152667857Y-74121857D01*
X152453571Y-74193285D01*
X151596428Y-75050428D01*
X151596428Y-74121857D01*
X149610000Y-93050428D02*
X149610000Y-92336142D01*
X149181428Y-93193285D02*
X150681428Y-92693285D01*
X149181428Y-92193285D01*
X149181428Y-91693285D02*
X150181428Y-91693285D01*
X149895714Y-91693285D02*
X150038571Y-91621857D01*
X150110000Y-91550428D01*
X150181428Y-91407571D01*
X150181428Y-91264714D01*
X149181428Y-90764714D02*
X150181428Y-90764714D01*
X150681428Y-90764714D02*
X150610000Y-90836142D01*
X150538571Y-90764714D01*
X150610000Y-90693285D01*
X150681428Y-90764714D01*
X150538571Y-90764714D01*
X149181428Y-89836142D02*
X149252857Y-89979000D01*
X149324285Y-90050428D01*
X149467142Y-90121857D01*
X149895714Y-90121857D01*
X150038571Y-90050428D01*
X150110000Y-89979000D01*
X150181428Y-89836142D01*
X150181428Y-89621857D01*
X150110000Y-89479000D01*
X150038571Y-89407571D01*
X149895714Y-89336142D01*
X149467142Y-89336142D01*
X149324285Y-89407571D01*
X149252857Y-89479000D01*
X149181428Y-89621857D01*
X149181428Y-89836142D01*
X149252857Y-88050428D02*
X149181428Y-88193285D01*
X149181428Y-88479000D01*
X149252857Y-88621857D01*
X149324285Y-88693285D01*
X149467142Y-88764714D01*
X149895714Y-88764714D01*
X150038571Y-88693285D01*
X150110000Y-88621857D01*
X150181428Y-88479000D01*
X150181428Y-88193285D01*
X150110000Y-88050428D01*
X149181428Y-87407571D02*
X150181428Y-87407571D01*
X150681428Y-87407571D02*
X150610000Y-87479000D01*
X150538571Y-87407571D01*
X150610000Y-87336142D01*
X150681428Y-87407571D01*
X150538571Y-87407571D01*
X149252857Y-86121857D02*
X149181428Y-86264714D01*
X149181428Y-86550428D01*
X149252857Y-86693285D01*
X149395714Y-86764714D01*
X149967142Y-86764714D01*
X150110000Y-86693285D01*
X150181428Y-86550428D01*
X150181428Y-86264714D01*
X150110000Y-86121857D01*
X149967142Y-86050428D01*
X149824285Y-86050428D01*
X149681428Y-86764714D01*
X149181428Y-83550428D02*
X149181428Y-84264714D01*
X150681428Y-84264714D01*
X149181428Y-83050428D02*
X150181428Y-83050428D01*
X150681428Y-83050428D02*
X150610000Y-83121857D01*
X150538571Y-83050428D01*
X150610000Y-82979000D01*
X150681428Y-83050428D01*
X150538571Y-83050428D01*
X149181428Y-81693285D02*
X149967142Y-81693285D01*
X150110000Y-81764714D01*
X150181428Y-81907571D01*
X150181428Y-82193285D01*
X150110000Y-82336142D01*
X149252857Y-81693285D02*
X149181428Y-81836142D01*
X149181428Y-82193285D01*
X149252857Y-82336142D01*
X149395714Y-82407571D01*
X149538571Y-82407571D01*
X149681428Y-82336142D01*
X149752857Y-82193285D01*
X149752857Y-81836142D01*
X149824285Y-81693285D01*
X150181428Y-80979000D02*
X149181428Y-80979000D01*
X150038571Y-80979000D02*
X150110000Y-80907571D01*
X150181428Y-80764714D01*
X150181428Y-80550428D01*
X150110000Y-80407571D01*
X149967142Y-80336142D01*
X149181428Y-80336142D01*
X150181428Y-78979000D02*
X148967142Y-78979000D01*
X148824285Y-79050428D01*
X148752857Y-79121857D01*
X148681428Y-79264714D01*
X148681428Y-79479000D01*
X148752857Y-79621857D01*
X149252857Y-78979000D02*
X149181428Y-79121857D01*
X149181428Y-79407571D01*
X149252857Y-79550428D01*
X149324285Y-79621857D01*
X149467142Y-79693285D01*
X149895714Y-79693285D01*
X150038571Y-79621857D01*
X150110000Y-79550428D01*
X150181428Y-79407571D01*
X150181428Y-79121857D01*
X150110000Y-78979000D01*
X148266428Y-90479000D02*
X147195000Y-90479000D01*
X146980714Y-90550428D01*
X146837857Y-90693285D01*
X146766428Y-90907571D01*
X146766428Y-91050428D01*
X146766428Y-89550428D02*
X146837857Y-89693285D01*
X146909285Y-89764714D01*
X147052142Y-89836142D01*
X147480714Y-89836142D01*
X147623571Y-89764714D01*
X147695000Y-89693285D01*
X147766428Y-89550428D01*
X147766428Y-89336142D01*
X147695000Y-89193285D01*
X147623571Y-89121857D01*
X147480714Y-89050428D01*
X147052142Y-89050428D01*
X146909285Y-89121857D01*
X146837857Y-89193285D01*
X146766428Y-89336142D01*
X146766428Y-89550428D01*
X146766428Y-88407571D02*
X148266428Y-88407571D01*
X146766428Y-87764714D02*
X147552142Y-87764714D01*
X147695000Y-87836142D01*
X147766428Y-87978999D01*
X147766428Y-88193285D01*
X147695000Y-88336142D01*
X147623571Y-88407571D01*
X147766428Y-87050428D02*
X146766428Y-87050428D01*
X147623571Y-87050428D02*
X147695000Y-86978999D01*
X147766428Y-86836142D01*
X147766428Y-86621857D01*
X147695000Y-86478999D01*
X147552142Y-86407571D01*
X146766428Y-86407571D01*
X146766428Y-84550428D02*
X148266428Y-84550428D01*
X146766428Y-83693285D02*
X147623571Y-84336142D01*
X148266428Y-83693285D02*
X147409285Y-84550428D01*
X146766428Y-83050428D02*
X147766428Y-83050428D01*
X148266428Y-83050428D02*
X148195000Y-83121857D01*
X148123571Y-83050428D01*
X148195000Y-82978999D01*
X148266428Y-83050428D01*
X148123571Y-83050428D01*
X146766428Y-82336142D02*
X147766428Y-82336142D01*
X147623571Y-82336142D02*
X147695000Y-82264714D01*
X147766428Y-82121857D01*
X147766428Y-81907571D01*
X147695000Y-81764714D01*
X147552142Y-81693285D01*
X146766428Y-81693285D01*
X147552142Y-81693285D02*
X147695000Y-81621857D01*
X147766428Y-81478999D01*
X147766428Y-81264714D01*
X147695000Y-81121857D01*
X147552142Y-81050428D01*
X146766428Y-81050428D01*
X144351428Y-92121857D02*
X145851428Y-92121857D01*
X145137142Y-92121857D02*
X145137142Y-91264714D01*
X144351428Y-91264714D02*
X145851428Y-91264714D01*
X144422857Y-89979000D02*
X144351428Y-90121857D01*
X144351428Y-90407571D01*
X144422857Y-90550428D01*
X144565714Y-90621857D01*
X145137142Y-90621857D01*
X145280000Y-90550428D01*
X145351428Y-90407571D01*
X145351428Y-90121857D01*
X145280000Y-89979000D01*
X145137142Y-89907571D01*
X144994285Y-89907571D01*
X144851428Y-90621857D01*
X145351428Y-89264714D02*
X144351428Y-89264714D01*
X145208571Y-89264714D02*
X145280000Y-89193285D01*
X145351428Y-89050428D01*
X145351428Y-88836142D01*
X145280000Y-88693285D01*
X145137142Y-88621857D01*
X144351428Y-88621857D01*
X144351428Y-87907571D02*
X145351428Y-87907571D01*
X145065714Y-87907571D02*
X145208571Y-87836142D01*
X145280000Y-87764714D01*
X145351428Y-87621857D01*
X145351428Y-87479000D01*
X145351428Y-87121857D02*
X144351428Y-86764714D01*
X145351428Y-86407571D02*
X144351428Y-86764714D01*
X143994285Y-86907571D01*
X143922857Y-86979000D01*
X143851428Y-87121857D01*
X145780000Y-83907571D02*
X145851428Y-84050428D01*
X145851428Y-84264714D01*
X145780000Y-84479000D01*
X145637142Y-84621857D01*
X145494285Y-84693285D01*
X145208571Y-84764714D01*
X144994285Y-84764714D01*
X144708571Y-84693285D01*
X144565714Y-84621857D01*
X144422857Y-84479000D01*
X144351428Y-84264714D01*
X144351428Y-84121857D01*
X144422857Y-83907571D01*
X144494285Y-83836142D01*
X144994285Y-83836142D01*
X144994285Y-84121857D01*
X145351428Y-82550428D02*
X144351428Y-82550428D01*
X145351428Y-83193285D02*
X144565714Y-83193285D01*
X144422857Y-83121857D01*
X144351428Y-82979000D01*
X144351428Y-82764714D01*
X144422857Y-82621857D01*
X144494285Y-82550428D01*
X144351428Y-81193285D02*
X145137142Y-81193285D01*
X145280000Y-81264714D01*
X145351428Y-81407571D01*
X145351428Y-81693285D01*
X145280000Y-81836142D01*
X144422857Y-81193285D02*
X144351428Y-81336142D01*
X144351428Y-81693285D01*
X144422857Y-81836142D01*
X144565714Y-81907571D01*
X144708571Y-81907571D01*
X144851428Y-81836142D01*
X144922857Y-81693285D01*
X144922857Y-81336142D01*
X144994285Y-81193285D01*
X145351428Y-80479000D02*
X144351428Y-80479000D01*
X145208571Y-80479000D02*
X145280000Y-80407571D01*
X145351428Y-80264714D01*
X145351428Y-80050428D01*
X145280000Y-79907571D01*
X145137142Y-79836142D01*
X144351428Y-79836142D01*
D11*
%TO.C,J16*%
X176069380Y-130127476D02*
X176783666Y-130127476D01*
X176926523Y-130079857D01*
X177021761Y-129984619D01*
X177069380Y-129841761D01*
X177069380Y-129746523D01*
X177069380Y-131127476D02*
X177069380Y-130556047D01*
X177069380Y-130841761D02*
X176069380Y-130841761D01*
X176212238Y-130746523D01*
X176307476Y-130651285D01*
X176355095Y-130556047D01*
X176069380Y-131984619D02*
X176069380Y-131794142D01*
X176117000Y-131698904D01*
X176164619Y-131651285D01*
X176307476Y-131556047D01*
X176497952Y-131508428D01*
X176878904Y-131508428D01*
X176974142Y-131556047D01*
X177021761Y-131603666D01*
X177069380Y-131698904D01*
X177069380Y-131889380D01*
X177021761Y-131984619D01*
X176974142Y-132032238D01*
X176878904Y-132079857D01*
X176640809Y-132079857D01*
X176545571Y-132032238D01*
X176497952Y-131984619D01*
X176450333Y-131889380D01*
X176450333Y-131698904D01*
X176497952Y-131603666D01*
X176545571Y-131556047D01*
X176640809Y-131508428D01*
%TO.C,J17*%
X152828380Y-125428476D02*
X153542666Y-125428476D01*
X153685523Y-125380857D01*
X153780761Y-125285619D01*
X153828380Y-125142761D01*
X153828380Y-125047523D01*
X153828380Y-126428476D02*
X153828380Y-125857047D01*
X153828380Y-126142761D02*
X152828380Y-126142761D01*
X152971238Y-126047523D01*
X153066476Y-125952285D01*
X153114095Y-125857047D01*
X152828380Y-126761809D02*
X152828380Y-127428476D01*
X153828380Y-126999904D01*
D12*
%TO.C,J16*%
X178307000Y-140627000D02*
X177707000Y-140627000D01*
X177707000Y-131407000D02*
X178307000Y-131407000D01*
X177707000Y-133947000D02*
X178307000Y-133947000D01*
X183727000Y-139827000D02*
X182727000Y-139827000D01*
X183727000Y-120667000D02*
X183727000Y-141207000D01*
X183727000Y-141207000D02*
X177707000Y-141207000D01*
X183727000Y-122047000D02*
X182727000Y-122047000D01*
X178737000Y-120377000D02*
X182737000Y-120377000D01*
X183727000Y-139577000D02*
X182727000Y-139577000D01*
X178307000Y-133007000D02*
X177707000Y-133007000D01*
X178307000Y-139027000D02*
X178307000Y-140627000D01*
X178307000Y-136487000D02*
X178307000Y-138087000D01*
X182197000Y-122297000D02*
X182197000Y-127127000D01*
X178307000Y-133947000D02*
X178307000Y-135547000D01*
X178307000Y-121247000D02*
X178307000Y-122847000D01*
X177707000Y-128867000D02*
X178307000Y-128867000D01*
X182727000Y-122047000D02*
X182727000Y-127127000D01*
X178307000Y-127927000D02*
X177707000Y-127927000D01*
X177707000Y-141207000D02*
X177707000Y-120667000D01*
X182727000Y-127127000D02*
X183727000Y-127127000D01*
X178307000Y-135547000D02*
X177707000Y-135547000D01*
X182197000Y-134747000D02*
X182727000Y-134747000D01*
X178307000Y-138087000D02*
X177707000Y-138087000D01*
X182727000Y-134747000D02*
X183727000Y-134747000D01*
X182197000Y-139577000D02*
X182197000Y-134747000D01*
X177707000Y-123787000D02*
X178307000Y-123787000D01*
X182727000Y-122047000D02*
X182197000Y-122297000D01*
X182727000Y-139827000D02*
X182197000Y-139577000D01*
X178307000Y-125387000D02*
X177707000Y-125387000D01*
X178307000Y-122847000D02*
X177707000Y-122847000D01*
X177707000Y-139027000D02*
X178307000Y-139027000D01*
X182727000Y-139827000D02*
X182727000Y-134747000D01*
X177707000Y-121247000D02*
X178307000Y-121247000D01*
X177707000Y-126327000D02*
X178307000Y-126327000D01*
X178307000Y-128867000D02*
X178307000Y-130467000D01*
X178307000Y-131407000D02*
X178307000Y-133007000D01*
X178307000Y-123787000D02*
X178307000Y-125387000D01*
X178307000Y-130467000D02*
X177707000Y-130467000D01*
X177707000Y-136487000D02*
X178307000Y-136487000D01*
X177707000Y-120667000D02*
X183727000Y-120667000D01*
X182197000Y-127127000D02*
X182727000Y-127127000D01*
X178307000Y-126327000D02*
X178307000Y-127927000D01*
X183727000Y-122297000D02*
X182727000Y-122297000D01*
%TO.C,J17*%
X157260000Y-125438000D02*
X157860000Y-125438000D01*
X158290000Y-119488000D02*
X162290000Y-119488000D01*
X163280000Y-121158000D02*
X162280000Y-121158000D01*
X162280000Y-131318000D02*
X163280000Y-131318000D01*
X157860000Y-132118000D02*
X157260000Y-132118000D01*
X157860000Y-129578000D02*
X157260000Y-129578000D01*
X157260000Y-122898000D02*
X157860000Y-122898000D01*
X157860000Y-121958000D02*
X157260000Y-121958000D01*
X157260000Y-127978000D02*
X157860000Y-127978000D01*
X157260000Y-120358000D02*
X157860000Y-120358000D01*
X161750000Y-121408000D02*
X161750000Y-131068000D01*
X157860000Y-125438000D02*
X157860000Y-127038000D01*
X157860000Y-124498000D02*
X157260000Y-124498000D01*
X161750000Y-131068000D02*
X162280000Y-131318000D01*
X157860000Y-127038000D02*
X157260000Y-127038000D01*
X157260000Y-132698000D02*
X157260000Y-119778000D01*
X157860000Y-120358000D02*
X157860000Y-121958000D01*
X157860000Y-127978000D02*
X157860000Y-129578000D01*
X163280000Y-119778000D02*
X163280000Y-132698000D01*
X163280000Y-131068000D02*
X162280000Y-131068000D01*
X157260000Y-130518000D02*
X157860000Y-130518000D01*
X157860000Y-130518000D02*
X157860000Y-132118000D01*
X162280000Y-121158000D02*
X162280000Y-131318000D01*
X163280000Y-132698000D02*
X157260000Y-132698000D01*
X157260000Y-119778000D02*
X163280000Y-119778000D01*
X162280000Y-121158000D02*
X161750000Y-121408000D01*
X163280000Y-121408000D02*
X162280000Y-121408000D01*
X157860000Y-122898000D02*
X157860000Y-124498000D01*
%TD*%
%LPC*%
D13*
%TO.C,J12*%
X181930511Y-99871489D03*
D14*
X184470511Y-99871489D03*
X187010511Y-99871489D03*
%TD*%
D15*
%TO.C,Y1*%
X109728000Y-86106000D03*
X109728000Y-90986000D03*
%TD*%
D16*
%TO.C,H2*%
X102108000Y-112014000D03*
%TD*%
%TO.C,H9*%
X188341000Y-121031000D03*
%TD*%
D17*
%TO.C,A1*%
X161483511Y-102894489D03*
X141163511Y-102894489D03*
X141163511Y-69874489D03*
X161483511Y-69874489D03*
D18*
X141163511Y-73684489D03*
D19*
X141163511Y-76224489D03*
X141163511Y-78764489D03*
X141163511Y-81304489D03*
X141163511Y-83844489D03*
X141163511Y-86384489D03*
X141163511Y-88924489D03*
X141163511Y-91464489D03*
X141163511Y-94004489D03*
X141163511Y-96544489D03*
X161483511Y-96544489D03*
X161483511Y-94004489D03*
X161483511Y-91464489D03*
X161483511Y-88924489D03*
X161483511Y-86384489D03*
X161483511Y-83844489D03*
X161483511Y-81304489D03*
X161483511Y-78764489D03*
X161483511Y-76224489D03*
X161483511Y-73684489D03*
%TD*%
D20*
%TO.C,U1*%
X115417511Y-66558000D03*
D21*
X115417511Y-69098000D03*
X115417511Y-71638000D03*
X115417511Y-74178000D03*
X115417511Y-76718000D03*
X115417511Y-79258000D03*
X115417511Y-81798000D03*
X115417511Y-84338000D03*
X115417511Y-86878000D03*
X115417511Y-89418000D03*
X115417511Y-91958000D03*
X115417511Y-94498000D03*
X115417511Y-97038000D03*
X115417511Y-99578000D03*
X123037511Y-99578000D03*
X123037511Y-97038000D03*
X123037511Y-94498000D03*
X123037511Y-91958000D03*
X123037511Y-89418000D03*
X123037511Y-86878000D03*
X123037511Y-84338000D03*
X123037511Y-81798000D03*
X123037511Y-79258000D03*
X123037511Y-76718000D03*
X123037511Y-74178000D03*
X123037511Y-71638000D03*
X123037511Y-69098000D03*
X123037511Y-66558000D03*
%TD*%
D22*
%TO.C,J8*%
X164658511Y-47649489D03*
D14*
X162118511Y-47649489D03*
%TD*%
D13*
%TO.C,J2*%
X104231511Y-99822000D03*
D14*
X106771511Y-99822000D03*
X109311511Y-99822000D03*
X111851511Y-99822000D03*
%TD*%
D23*
%TO.C,J15*%
X175072511Y-58444489D03*
D24*
X172532511Y-58444489D03*
X175072511Y-55904489D03*
X172532511Y-55904489D03*
X175072511Y-53364489D03*
X172532511Y-53364489D03*
%TD*%
D16*
%TO.C,H10*%
X158893000Y-138176000D03*
%TD*%
D25*
%TO.C,J3*%
X128488511Y-71501000D03*
D26*
X128488511Y-68961000D03*
X128488511Y-66421000D03*
X128488511Y-63881000D03*
%TD*%
D16*
%TO.C,H1*%
X102108000Y-48514000D03*
%TD*%
%TO.C,H5*%
X132588000Y-48514000D03*
%TD*%
%TO.C,H3*%
X132588000Y-112014000D03*
%TD*%
D20*
%TO.C,J9*%
X153482511Y-57809489D03*
D27*
X150982511Y-57809489D03*
X148982511Y-57809489D03*
X146482511Y-57809489D03*
D28*
X143412511Y-55099489D03*
X156552511Y-55099489D03*
%TD*%
D13*
%TO.C,J13*%
X182692511Y-86130489D03*
D14*
X185232511Y-86130489D03*
X187772511Y-86130489D03*
X190312511Y-86130489D03*
%TD*%
D13*
%TO.C,J1*%
X116804511Y-106553000D03*
D14*
X119344511Y-106553000D03*
X121884511Y-106553000D03*
X124424511Y-106553000D03*
%TD*%
D29*
%TO.C,J4*%
X130565500Y-92832000D03*
D24*
X133105500Y-92832000D03*
X130565500Y-95372000D03*
X133105500Y-95372000D03*
X130565500Y-97912000D03*
X133105500Y-97912000D03*
%TD*%
D16*
%TO.C,H7*%
X184277000Y-111760000D03*
%TD*%
D13*
%TO.C,J10*%
X182311511Y-59333489D03*
D14*
X184851511Y-59333489D03*
X187391511Y-59333489D03*
%TD*%
D20*
%TO.C,U7*%
X166132000Y-121158000D03*
D21*
X166132000Y-123698000D03*
X166132000Y-126238000D03*
X166132000Y-128778000D03*
X166132000Y-131318000D03*
X166132000Y-133858000D03*
X166132000Y-136398000D03*
X166132000Y-138938000D03*
X173752000Y-138938000D03*
X173752000Y-136398000D03*
X173752000Y-133858000D03*
X173752000Y-131318000D03*
X173752000Y-128778000D03*
X173752000Y-126238000D03*
X173752000Y-123698000D03*
X173752000Y-121158000D03*
%TD*%
D25*
%TO.C,J14*%
X174818511Y-88416489D03*
D26*
X174818511Y-85876489D03*
X174818511Y-83336489D03*
X174818511Y-80796489D03*
%TD*%
D13*
%TO.C,J11*%
X183454511Y-77494489D03*
D14*
X185994511Y-77494489D03*
X188534511Y-77494489D03*
%TD*%
D25*
%TO.C,J7*%
X129413000Y-79248000D03*
D26*
X129413000Y-76708000D03*
%TD*%
D30*
%TO.C,J6*%
X107533511Y-74549000D03*
D26*
X107533511Y-77089000D03*
X107533511Y-79629000D03*
%TD*%
D25*
%TO.C,J5*%
X102707511Y-58039000D03*
D26*
X102707511Y-55499000D03*
%TD*%
D16*
%TO.C,H6*%
X184277000Y-48514000D03*
%TD*%
D30*
%TO.C,J16*%
X180737000Y-122047000D03*
D26*
X180737000Y-124587000D03*
X180737000Y-127127000D03*
X180737000Y-129667000D03*
X180737000Y-132207000D03*
X180737000Y-134747000D03*
X180737000Y-137287000D03*
X180737000Y-139827000D03*
%TD*%
D30*
%TO.C,J17*%
X160290000Y-121158000D03*
D26*
X160290000Y-123698000D03*
X160290000Y-126238000D03*
X160290000Y-128778000D03*
X160290000Y-131318000D03*
%TD*%
M02*
