%TF.GenerationSoftware,KiCad,Pcbnew,(6.0.1)*%
%TF.CreationDate,2022-03-08T14:51:08-06:00*%
%TF.ProjectId,arliang2_good2go_2,61726c69-616e-4673-925f-676f6f643267,rev?*%
%TF.SameCoordinates,Original*%
%TF.FileFunction,Paste,Top*%
%TF.FilePolarity,Positive*%
%FSLAX46Y46*%
G04 Gerber Fmt 4.6, Leading zero omitted, Abs format (unit mm)*
G04 Created by KiCad (PCBNEW (6.0.1)) date 2022-03-08 14:51:08*
%MOMM*%
%LPD*%
G01*
G04 APERTURE LIST*
G04 Aperture macros list*
%AMRoundRect*
0 Rectangle with rounded corners*
0 $1 Rounding radius*
0 $2 $3 $4 $5 $6 $7 $8 $9 X,Y pos of 4 corners*
0 Add a 4 corners polygon primitive as box body*
4,1,4,$2,$3,$4,$5,$6,$7,$8,$9,$2,$3,0*
0 Add four circle primitives for the rounded corners*
1,1,$1+$1,$2,$3*
1,1,$1+$1,$4,$5*
1,1,$1+$1,$6,$7*
1,1,$1+$1,$8,$9*
0 Add four rect primitives between the rounded corners*
20,1,$1+$1,$2,$3,$4,$5,0*
20,1,$1+$1,$4,$5,$6,$7,0*
20,1,$1+$1,$6,$7,$8,$9,0*
20,1,$1+$1,$8,$9,$2,$3,0*%
G04 Aperture macros list end*
%ADD10RoundRect,0.250000X-0.350000X-0.450000X0.350000X-0.450000X0.350000X0.450000X-0.350000X0.450000X0*%
%ADD11RoundRect,0.250000X0.350000X0.450000X-0.350000X0.450000X-0.350000X-0.450000X0.350000X-0.450000X0*%
%ADD12R,1.700000X0.650000*%
%ADD13R,0.900000X1.200000*%
%ADD14RoundRect,0.250000X0.337500X0.475000X-0.337500X0.475000X-0.337500X-0.475000X0.337500X-0.475000X0*%
%ADD15RoundRect,0.250000X-0.450000X0.350000X-0.450000X-0.350000X0.450000X-0.350000X0.450000X0.350000X0*%
%ADD16R,1.500000X2.000000*%
%ADD17R,3.800000X2.000000*%
%ADD18RoundRect,0.250000X0.475000X-0.337500X0.475000X0.337500X-0.475000X0.337500X-0.475000X-0.337500X0*%
%ADD19RoundRect,0.150000X-0.512500X-0.150000X0.512500X-0.150000X0.512500X0.150000X-0.512500X0.150000X0*%
G04 APERTURE END LIST*
D10*
%TO.C,R11*%
X178054000Y-129413000D03*
X176054000Y-129413000D03*
%TD*%
%TO.C,R4*%
X170262511Y-105561489D03*
X172262511Y-105561489D03*
%TD*%
%TO.C,R14*%
X178022000Y-137033000D03*
X176022000Y-137033000D03*
%TD*%
D11*
%TO.C,R1*%
X113867511Y-60706000D03*
X111867511Y-60706000D03*
%TD*%
D12*
%TO.C,U5*%
X170660511Y-70631489D03*
X170660511Y-71901489D03*
X170660511Y-73171489D03*
X170660511Y-74441489D03*
X177960511Y-74441489D03*
X177960511Y-73171489D03*
X177960511Y-71901489D03*
X177960511Y-70631489D03*
%TD*%
D13*
%TO.C,D2*%
X183455511Y-67080489D03*
X186755511Y-67080489D03*
%TD*%
D14*
%TO.C,C4*%
X185211011Y-70763489D03*
X187286011Y-70763489D03*
%TD*%
%TO.C,C2*%
X104485511Y-86614000D03*
X102410511Y-86614000D03*
%TD*%
D10*
%TO.C,R13*%
X178038000Y-134493000D03*
X176038000Y-134493000D03*
%TD*%
D15*
%TO.C,R6*%
X165928511Y-77256489D03*
X165928511Y-79256489D03*
%TD*%
D16*
%TO.C,U2*%
X107420511Y-62382000D03*
X105120511Y-62382000D03*
X102820511Y-62382000D03*
D17*
X105120511Y-68682000D03*
%TD*%
D10*
%TO.C,R8*%
X178054000Y-121793000D03*
X176054000Y-121793000D03*
%TD*%
%TO.C,R15*%
X178054000Y-139573000D03*
X176054000Y-139573000D03*
%TD*%
%TO.C,R12*%
X178038000Y-131953000D03*
X176038000Y-131953000D03*
%TD*%
D18*
%TO.C,R7*%
X169611511Y-67990989D03*
X169611511Y-65915989D03*
%TD*%
D10*
%TO.C,R10*%
X178038000Y-126873000D03*
X176038000Y-126873000D03*
%TD*%
D12*
%TO.C,U3*%
X170914511Y-97306489D03*
X170914511Y-98576489D03*
X170914511Y-99846489D03*
X170914511Y-101116489D03*
X178214511Y-101116489D03*
X178214511Y-99846489D03*
X178214511Y-98576489D03*
X178214511Y-97306489D03*
%TD*%
D13*
%TO.C,D1*%
X127473511Y-57531000D03*
X130773511Y-57531000D03*
%TD*%
D10*
%TO.C,R3*%
X165436511Y-105561489D03*
X167436511Y-105561489D03*
%TD*%
D16*
%TO.C,U4*%
X159945511Y-61594489D03*
X162245511Y-61594489D03*
X164545511Y-61594489D03*
D17*
X162245511Y-55294489D03*
%TD*%
D19*
%TO.C,U6*%
X164531511Y-99023489D03*
X164531511Y-99973489D03*
X164531511Y-100923489D03*
X166806511Y-100923489D03*
X166806511Y-99023489D03*
%TD*%
D10*
%TO.C,R9*%
X178038000Y-124333000D03*
X176038000Y-124333000D03*
%TD*%
D14*
%TO.C,C1*%
X105142011Y-91313000D03*
X103067011Y-91313000D03*
%TD*%
D10*
%TO.C,R2*%
X127488511Y-84709000D03*
X129488511Y-84709000D03*
%TD*%
D15*
%TO.C,R5*%
X165928511Y-73192489D03*
X165928511Y-75192489D03*
%TD*%
M02*
