M48
; DRILL file {KiCad (6.0.1)} date Tue Mar  8 14:51:27 2022
; FORMAT={-:-/ absolute / metric / decimal}
; #@! TF.CreationDate,2022-03-08T14:51:27-06:00
; #@! TF.GenerationSoftware,Kicad,Pcbnew,(6.0.1)
; #@! TF.FileFunction,Plated,1,2,PTH
FMAT,2
METRIC
; #@! TA.AperFunction,Plated,PTH,ViaDrill
T1C0.400
; #@! TA.AperFunction,Plated,PTH,ComponentDrill
T2C0.800
; #@! TA.AperFunction,Plated,PTH,ComponentDrill
T3C0.920
; #@! TA.AperFunction,Plated,PTH,ComponentDrill
T4C1.000
; #@! TA.AperFunction,Plated,PTH,ComponentDrill
T5C1.020
; #@! TA.AperFunction,Plated,PTH,ComponentDrill
T6C1.190
; #@! TA.AperFunction,Plated,PTH,ComponentDrill
T7C2.300
%
G90
G05
T1
X99.152Y-91.059
X106.645Y-57.404
X108.677Y-105.918
X112.614Y-67.437
X113.376Y-50.292
X125.187Y-60.579
X138.014Y-69.342
X145.355Y-85.749
X147.387Y-62.508
X157.039Y-68.223
X166.183Y-96.163
X179.391Y-68.731
X179.772Y-95.401
T2
X109.566Y-86.089
X109.566Y-90.969
X115.418Y-66.558
X115.418Y-69.098
X115.418Y-71.638
X115.418Y-74.178
X115.418Y-76.718
X115.418Y-79.258
X115.418Y-81.798
X115.418Y-84.338
X115.418Y-86.878
X115.418Y-89.418
X115.418Y-91.958
X115.418Y-94.498
X115.418Y-97.038
X115.418Y-99.578
X123.038Y-66.558
X123.038Y-69.098
X123.038Y-71.638
X123.038Y-74.178
X123.038Y-76.718
X123.038Y-79.258
X123.038Y-81.798
X123.038Y-84.338
X123.038Y-86.878
X123.038Y-89.418
X123.038Y-91.958
X123.038Y-94.498
X123.038Y-97.038
X123.038Y-99.578
X166.132Y-121.158
X166.132Y-123.698
X166.132Y-126.238
X166.132Y-128.778
X166.132Y-131.318
X166.132Y-133.858
X166.132Y-136.398
X166.132Y-138.938
X173.752Y-121.158
X173.752Y-123.698
X173.752Y-126.238
X173.752Y-128.778
X173.752Y-131.318
X173.752Y-133.858
X173.752Y-136.398
X173.752Y-138.938
T3
X146.483Y-57.809
X148.983Y-57.809
X150.983Y-57.809
X153.483Y-57.809
T4
X130.565Y-92.832
X130.565Y-95.372
X130.565Y-97.912
X133.106Y-92.832
X133.106Y-95.372
X133.106Y-97.912
X172.533Y-53.364
X172.533Y-55.904
X172.533Y-58.444
X175.073Y-53.364
X175.073Y-55.904
X175.073Y-58.444
T5
X141.164Y-73.684
X141.164Y-76.224
X141.164Y-78.764
X141.164Y-81.304
X141.164Y-83.844
X141.164Y-86.384
X141.164Y-88.924
X141.164Y-91.464
X141.164Y-94.004
X141.164Y-96.544
X161.484Y-73.684
X161.484Y-76.224
X161.484Y-78.764
X161.484Y-81.304
X161.484Y-83.844
X161.484Y-86.384
X161.484Y-88.924
X161.484Y-91.464
X161.484Y-94.004
X161.484Y-96.544
T6
X102.708Y-55.499
X102.708Y-58.039
X104.232Y-99.822
X106.772Y-99.822
X107.534Y-74.549
X107.534Y-77.089
X107.534Y-79.629
X109.312Y-99.822
X111.852Y-99.822
X116.805Y-106.553
X119.345Y-106.553
X121.885Y-106.553
X124.425Y-106.553
X128.489Y-63.881
X128.489Y-66.421
X128.489Y-68.961
X128.489Y-71.501
X129.413Y-76.708
X129.413Y-79.248
X160.29Y-121.158
X160.29Y-123.698
X160.29Y-126.238
X160.29Y-128.778
X160.29Y-131.318
X162.119Y-47.649
X164.659Y-47.649
X174.819Y-80.796
X174.819Y-83.336
X174.819Y-85.876
X174.819Y-88.416
X180.737Y-122.047
X180.737Y-124.587
X180.737Y-127.127
X180.737Y-129.667
X180.737Y-132.207
X180.737Y-134.747
X180.737Y-137.287
X180.737Y-139.827
X181.931Y-99.871
X182.312Y-59.333
X182.693Y-86.13
X183.455Y-77.494
X184.471Y-99.871
X184.852Y-59.333
X185.233Y-86.13
X185.995Y-77.494
X187.011Y-99.871
X187.392Y-59.333
X187.773Y-86.13
X188.535Y-77.494
X190.313Y-86.13
T7
X143.413Y-55.099
X156.553Y-55.099
T0
M30
