%FSLAX45Y45*%
G04 Gerber Fmt 4.5, Leading zero omitted, Abs format (unit mm)*
G04 Created by KiCad (PCBNEW (6.0.1)) date 2022-03-08 14:51:29*
%MOMM*%
%LPD*%
G01*
G04 APERTURE LIST*
%TA.AperFunction,Profile*%
%ADD10C,0.100000*%
%TD*%
%ADD11C,0.200000*%
%ADD12C,0.040000*%
%ADD13C,0.080000*%
%ADD14C,0.092000*%
%ADD15C,0.100000*%
%ADD16C,0.102000*%
%ADD17C,0.119000*%
%ADD18C,0.230000*%
G04 APERTURE END LIST*
D10*
X15113000Y-11645900D02*
X19316700Y-11645900D01*
X19316700Y-11645900D02*
X19316700Y-14351000D01*
X19316700Y-14351000D02*
X15113000Y-14351000D01*
X15113000Y-14351000D02*
X15113000Y-11645900D01*
X9690100Y-4445000D02*
X19304000Y-4445000D01*
X19304000Y-4445000D02*
X19304000Y-11645900D01*
X19304000Y-11645900D02*
X9690100Y-11645900D01*
X9690100Y-11645900D02*
X9690100Y-4445000D01*
D11*
D12*
X9895151Y-9085900D02*
X9935151Y-9125900D01*
X9935151Y-9085900D02*
X9895151Y-9125900D01*
X10644451Y-5720400D02*
X10684451Y-5760400D01*
X10684451Y-5720400D02*
X10644451Y-5760400D01*
X10847651Y-10571800D02*
X10887651Y-10611800D01*
X10887651Y-10571800D02*
X10847651Y-10611800D01*
X11241351Y-6723700D02*
X11281351Y-6763700D01*
X11281351Y-6723700D02*
X11241351Y-6763700D01*
X11317551Y-5009200D02*
X11357551Y-5049200D01*
X11357551Y-5009200D02*
X11317551Y-5049200D01*
X12498651Y-6037900D02*
X12538651Y-6077900D01*
X12538651Y-6037900D02*
X12498651Y-6077900D01*
X13781351Y-6914200D02*
X13821351Y-6954200D01*
X13821351Y-6914200D02*
X13781351Y-6954200D01*
X14515451Y-8554949D02*
X14555451Y-8594949D01*
X14555451Y-8554949D02*
X14515451Y-8594949D01*
X14718651Y-6230849D02*
X14758651Y-6270849D01*
X14758651Y-6230849D02*
X14718651Y-6270849D01*
X15683851Y-6802349D02*
X15723851Y-6842349D01*
X15723851Y-6802349D02*
X15683851Y-6842349D01*
X16598251Y-9596349D02*
X16638251Y-9636349D01*
X16638251Y-9596349D02*
X16598251Y-9636349D01*
X17919051Y-6853149D02*
X17959051Y-6893149D01*
X17959051Y-6853149D02*
X17919051Y-6893149D01*
X17957151Y-9520149D02*
X17997151Y-9560149D01*
X17997151Y-9520149D02*
X17957151Y-9560149D01*
D13*
X10996551Y-8608900D02*
G75*
G03*
X10996551Y-8608900I-40000J0D01*
G01*
X10996551Y-9096900D02*
G75*
G03*
X10996551Y-9096900I-40000J0D01*
G01*
X11581751Y-6655800D02*
G75*
G03*
X11581751Y-6655800I-40000J0D01*
G01*
X11581751Y-6909800D02*
G75*
G03*
X11581751Y-6909800I-40000J0D01*
G01*
X11581751Y-7163800D02*
G75*
G03*
X11581751Y-7163800I-40000J0D01*
G01*
X11581751Y-7417800D02*
G75*
G03*
X11581751Y-7417800I-40000J0D01*
G01*
X11581751Y-7671800D02*
G75*
G03*
X11581751Y-7671800I-40000J0D01*
G01*
X11581751Y-7925800D02*
G75*
G03*
X11581751Y-7925800I-40000J0D01*
G01*
X11581751Y-8179800D02*
G75*
G03*
X11581751Y-8179800I-40000J0D01*
G01*
X11581751Y-8433800D02*
G75*
G03*
X11581751Y-8433800I-40000J0D01*
G01*
X11581751Y-8687800D02*
G75*
G03*
X11581751Y-8687800I-40000J0D01*
G01*
X11581751Y-8941800D02*
G75*
G03*
X11581751Y-8941800I-40000J0D01*
G01*
X11581751Y-9195800D02*
G75*
G03*
X11581751Y-9195800I-40000J0D01*
G01*
X11581751Y-9449800D02*
G75*
G03*
X11581751Y-9449800I-40000J0D01*
G01*
X11581751Y-9703800D02*
G75*
G03*
X11581751Y-9703800I-40000J0D01*
G01*
X11581751Y-9957800D02*
G75*
G03*
X11581751Y-9957800I-40000J0D01*
G01*
X12343751Y-6655800D02*
G75*
G03*
X12343751Y-6655800I-40000J0D01*
G01*
X12343751Y-6909800D02*
G75*
G03*
X12343751Y-6909800I-40000J0D01*
G01*
X12343751Y-7163800D02*
G75*
G03*
X12343751Y-7163800I-40000J0D01*
G01*
X12343751Y-7417800D02*
G75*
G03*
X12343751Y-7417800I-40000J0D01*
G01*
X12343751Y-7671800D02*
G75*
G03*
X12343751Y-7671800I-40000J0D01*
G01*
X12343751Y-7925800D02*
G75*
G03*
X12343751Y-7925800I-40000J0D01*
G01*
X12343751Y-8179800D02*
G75*
G03*
X12343751Y-8179800I-40000J0D01*
G01*
X12343751Y-8433800D02*
G75*
G03*
X12343751Y-8433800I-40000J0D01*
G01*
X12343751Y-8687800D02*
G75*
G03*
X12343751Y-8687800I-40000J0D01*
G01*
X12343751Y-8941800D02*
G75*
G03*
X12343751Y-8941800I-40000J0D01*
G01*
X12343751Y-9195800D02*
G75*
G03*
X12343751Y-9195800I-40000J0D01*
G01*
X12343751Y-9449800D02*
G75*
G03*
X12343751Y-9449800I-40000J0D01*
G01*
X12343751Y-9703800D02*
G75*
G03*
X12343751Y-9703800I-40000J0D01*
G01*
X12343751Y-9957800D02*
G75*
G03*
X12343751Y-9957800I-40000J0D01*
G01*
X16653200Y-12115800D02*
G75*
G03*
X16653200Y-12115800I-40000J0D01*
G01*
X16653200Y-12369800D02*
G75*
G03*
X16653200Y-12369800I-40000J0D01*
G01*
X16653200Y-12623800D02*
G75*
G03*
X16653200Y-12623800I-40000J0D01*
G01*
X16653200Y-12877800D02*
G75*
G03*
X16653200Y-12877800I-40000J0D01*
G01*
X16653200Y-13131800D02*
G75*
G03*
X16653200Y-13131800I-40000J0D01*
G01*
X16653200Y-13385800D02*
G75*
G03*
X16653200Y-13385800I-40000J0D01*
G01*
X16653200Y-13639800D02*
G75*
G03*
X16653200Y-13639800I-40000J0D01*
G01*
X16653200Y-13893800D02*
G75*
G03*
X16653200Y-13893800I-40000J0D01*
G01*
X17415200Y-12115800D02*
G75*
G03*
X17415200Y-12115800I-40000J0D01*
G01*
X17415200Y-12369800D02*
G75*
G03*
X17415200Y-12369800I-40000J0D01*
G01*
X17415200Y-12623800D02*
G75*
G03*
X17415200Y-12623800I-40000J0D01*
G01*
X17415200Y-12877800D02*
G75*
G03*
X17415200Y-12877800I-40000J0D01*
G01*
X17415200Y-13131800D02*
G75*
G03*
X17415200Y-13131800I-40000J0D01*
G01*
X17415200Y-13385800D02*
G75*
G03*
X17415200Y-13385800I-40000J0D01*
G01*
X17415200Y-13639800D02*
G75*
G03*
X17415200Y-13639800I-40000J0D01*
G01*
X17415200Y-13893800D02*
G75*
G03*
X17415200Y-13893800I-40000J0D01*
G01*
D14*
X14648251Y-5734949D02*
X14648251Y-5826949D01*
X14602251Y-5780949D02*
X14694251Y-5780949D01*
X14898251Y-5734949D02*
X14898251Y-5826949D01*
X14852251Y-5780949D02*
X14944251Y-5780949D01*
X15098251Y-5734949D02*
X15098251Y-5826949D01*
X15052251Y-5780949D02*
X15144251Y-5780949D01*
X15348251Y-5734949D02*
X15348251Y-5826949D01*
X15302251Y-5780949D02*
X15394251Y-5780949D01*
D15*
X13091906Y-9318556D02*
X13091906Y-9247844D01*
X13021194Y-9247844D01*
X13021194Y-9318556D01*
X13091906Y-9318556D01*
X13091906Y-9572556D02*
X13091906Y-9501844D01*
X13021194Y-9501844D01*
X13021194Y-9572556D01*
X13091906Y-9572556D01*
X13091906Y-9826556D02*
X13091906Y-9755844D01*
X13021194Y-9755844D01*
X13021194Y-9826556D01*
X13091906Y-9826556D01*
X13345906Y-9318556D02*
X13345906Y-9247844D01*
X13275194Y-9247844D01*
X13275194Y-9318556D01*
X13345906Y-9318556D01*
X13345906Y-9572556D02*
X13345906Y-9501844D01*
X13275194Y-9501844D01*
X13275194Y-9572556D01*
X13345906Y-9572556D01*
X13345906Y-9826556D02*
X13345906Y-9755844D01*
X13275194Y-9755844D01*
X13275194Y-9826556D01*
X13345906Y-9826556D01*
X17288607Y-5371805D02*
X17288607Y-5301093D01*
X17217895Y-5301093D01*
X17217895Y-5371805D01*
X17288607Y-5371805D01*
X17288607Y-5625805D02*
X17288607Y-5555093D01*
X17217895Y-5555093D01*
X17217895Y-5625805D01*
X17288607Y-5625805D01*
X17288607Y-5879805D02*
X17288607Y-5809093D01*
X17217895Y-5809093D01*
X17217895Y-5879805D01*
X17288607Y-5879805D01*
X17542607Y-5371805D02*
X17542607Y-5301093D01*
X17471895Y-5301093D01*
X17471895Y-5371805D01*
X17542607Y-5371805D01*
X17542607Y-5625805D02*
X17542607Y-5555093D01*
X17471895Y-5555093D01*
X17471895Y-5625805D01*
X17542607Y-5625805D01*
X17542607Y-5879805D02*
X17542607Y-5809093D01*
X17471895Y-5809093D01*
X17471895Y-5879805D01*
X17542607Y-5879805D01*
D16*
X14116351Y-7419449D02*
X14167351Y-7368449D01*
X14116351Y-7317449D01*
X14065351Y-7368449D01*
X14116351Y-7419449D01*
X14116351Y-7673449D02*
X14167351Y-7622449D01*
X14116351Y-7571449D01*
X14065351Y-7622449D01*
X14116351Y-7673449D01*
X14116351Y-7927449D02*
X14167351Y-7876449D01*
X14116351Y-7825449D01*
X14065351Y-7876449D01*
X14116351Y-7927449D01*
X14116351Y-8181449D02*
X14167351Y-8130449D01*
X14116351Y-8079449D01*
X14065351Y-8130449D01*
X14116351Y-8181449D01*
X14116351Y-8435449D02*
X14167351Y-8384449D01*
X14116351Y-8333449D01*
X14065351Y-8384449D01*
X14116351Y-8435449D01*
X14116351Y-8689449D02*
X14167351Y-8638449D01*
X14116351Y-8587449D01*
X14065351Y-8638449D01*
X14116351Y-8689449D01*
X14116351Y-8943449D02*
X14167351Y-8892449D01*
X14116351Y-8841449D01*
X14065351Y-8892449D01*
X14116351Y-8943449D01*
X14116351Y-9197449D02*
X14167351Y-9146449D01*
X14116351Y-9095449D01*
X14065351Y-9146449D01*
X14116351Y-9197449D01*
X14116351Y-9451449D02*
X14167351Y-9400449D01*
X14116351Y-9349449D01*
X14065351Y-9400449D01*
X14116351Y-9451449D01*
X14116351Y-9705449D02*
X14167351Y-9654449D01*
X14116351Y-9603449D01*
X14065351Y-9654449D01*
X14116351Y-9705449D01*
X16148351Y-7419449D02*
X16199351Y-7368449D01*
X16148351Y-7317449D01*
X16097351Y-7368449D01*
X16148351Y-7419449D01*
X16148351Y-7673449D02*
X16199351Y-7622449D01*
X16148351Y-7571449D01*
X16097351Y-7622449D01*
X16148351Y-7673449D01*
X16148351Y-7927449D02*
X16199351Y-7876449D01*
X16148351Y-7825449D01*
X16097351Y-7876449D01*
X16148351Y-7927449D01*
X16148351Y-8181449D02*
X16199351Y-8130449D01*
X16148351Y-8079449D01*
X16097351Y-8130449D01*
X16148351Y-8181449D01*
X16148351Y-8435449D02*
X16199351Y-8384449D01*
X16148351Y-8333449D01*
X16097351Y-8384449D01*
X16148351Y-8435449D01*
X16148351Y-8689449D02*
X16199351Y-8638449D01*
X16148351Y-8587449D01*
X16097351Y-8638449D01*
X16148351Y-8689449D01*
X16148351Y-8943449D02*
X16199351Y-8892449D01*
X16148351Y-8841449D01*
X16097351Y-8892449D01*
X16148351Y-8943449D01*
X16148351Y-9197449D02*
X16199351Y-9146449D01*
X16148351Y-9095449D01*
X16097351Y-9146449D01*
X16148351Y-9197449D01*
X16148351Y-9451449D02*
X16199351Y-9400449D01*
X16148351Y-9349449D01*
X16097351Y-9400449D01*
X16148351Y-9451449D01*
X16148351Y-9705449D02*
X16199351Y-9654449D01*
X16148351Y-9603449D01*
X16097351Y-9654449D01*
X16148351Y-9705449D01*
D17*
X10211251Y-5490400D02*
X10330251Y-5609400D01*
X10330251Y-5490400D02*
X10211251Y-5609400D01*
X10330251Y-5549900D02*
G75*
G03*
X10330251Y-5549900I-59500J0D01*
G01*
X10211251Y-5744400D02*
X10330251Y-5863400D01*
X10330251Y-5744400D02*
X10211251Y-5863400D01*
X10330251Y-5803900D02*
G75*
G03*
X10330251Y-5803900I-59500J0D01*
G01*
X10363651Y-9922700D02*
X10482651Y-10041700D01*
X10482651Y-9922700D02*
X10363651Y-10041700D01*
X10482651Y-9982200D02*
G75*
G03*
X10482651Y-9982200I-59500J0D01*
G01*
X10617651Y-9922700D02*
X10736651Y-10041700D01*
X10736651Y-9922700D02*
X10617651Y-10041700D01*
X10736651Y-9982200D02*
G75*
G03*
X10736651Y-9982200I-59500J0D01*
G01*
X10693851Y-7395400D02*
X10812851Y-7514400D01*
X10812851Y-7395400D02*
X10693851Y-7514400D01*
X10812851Y-7454900D02*
G75*
G03*
X10812851Y-7454900I-59500J0D01*
G01*
X10693851Y-7649400D02*
X10812851Y-7768400D01*
X10812851Y-7649400D02*
X10693851Y-7768400D01*
X10812851Y-7708900D02*
G75*
G03*
X10812851Y-7708900I-59500J0D01*
G01*
X10693851Y-7903400D02*
X10812851Y-8022400D01*
X10812851Y-7903400D02*
X10693851Y-8022400D01*
X10812851Y-7962900D02*
G75*
G03*
X10812851Y-7962900I-59500J0D01*
G01*
X10871651Y-9922700D02*
X10990651Y-10041700D01*
X10990651Y-9922700D02*
X10871651Y-10041700D01*
X10990651Y-9982200D02*
G75*
G03*
X10990651Y-9982200I-59500J0D01*
G01*
X11125651Y-9922700D02*
X11244651Y-10041700D01*
X11244651Y-9922700D02*
X11125651Y-10041700D01*
X11244651Y-9982200D02*
G75*
G03*
X11244651Y-9982200I-59500J0D01*
G01*
X11620951Y-10595800D02*
X11739951Y-10714800D01*
X11739951Y-10595800D02*
X11620951Y-10714800D01*
X11739951Y-10655300D02*
G75*
G03*
X11739951Y-10655300I-59500J0D01*
G01*
X11874951Y-10595800D02*
X11993951Y-10714800D01*
X11993951Y-10595800D02*
X11874951Y-10714800D01*
X11993951Y-10655300D02*
G75*
G03*
X11993951Y-10655300I-59500J0D01*
G01*
X12128951Y-10595800D02*
X12247951Y-10714800D01*
X12247951Y-10595800D02*
X12128951Y-10714800D01*
X12247951Y-10655300D02*
G75*
G03*
X12247951Y-10655300I-59500J0D01*
G01*
X12382951Y-10595800D02*
X12501951Y-10714800D01*
X12501951Y-10595800D02*
X12382951Y-10714800D01*
X12501951Y-10655300D02*
G75*
G03*
X12501951Y-10655300I-59500J0D01*
G01*
X12789351Y-6328600D02*
X12908351Y-6447600D01*
X12908351Y-6328600D02*
X12789351Y-6447600D01*
X12908351Y-6388100D02*
G75*
G03*
X12908351Y-6388100I-59500J0D01*
G01*
X12789351Y-6582600D02*
X12908351Y-6701600D01*
X12908351Y-6582600D02*
X12789351Y-6701600D01*
X12908351Y-6642100D02*
G75*
G03*
X12908351Y-6642100I-59500J0D01*
G01*
X12789351Y-6836600D02*
X12908351Y-6955600D01*
X12908351Y-6836600D02*
X12789351Y-6955600D01*
X12908351Y-6896100D02*
G75*
G03*
X12908351Y-6896100I-59500J0D01*
G01*
X12789351Y-7090600D02*
X12908351Y-7209600D01*
X12908351Y-7090600D02*
X12789351Y-7209600D01*
X12908351Y-7150100D02*
G75*
G03*
X12908351Y-7150100I-59500J0D01*
G01*
X12881800Y-7611300D02*
X13000800Y-7730300D01*
X13000800Y-7611300D02*
X12881800Y-7730300D01*
X13000800Y-7670800D02*
G75*
G03*
X13000800Y-7670800I-59500J0D01*
G01*
X12881800Y-7865300D02*
X13000800Y-7984300D01*
X13000800Y-7865300D02*
X12881800Y-7984300D01*
X13000800Y-7924800D02*
G75*
G03*
X13000800Y-7924800I-59500J0D01*
G01*
X15969500Y-12056300D02*
X16088500Y-12175300D01*
X16088500Y-12056300D02*
X15969500Y-12175300D01*
X16088500Y-12115800D02*
G75*
G03*
X16088500Y-12115800I-59500J0D01*
G01*
X15969500Y-12310300D02*
X16088500Y-12429300D01*
X16088500Y-12310300D02*
X15969500Y-12429300D01*
X16088500Y-12369800D02*
G75*
G03*
X16088500Y-12369800I-59500J0D01*
G01*
X15969500Y-12564300D02*
X16088500Y-12683300D01*
X16088500Y-12564300D02*
X15969500Y-12683300D01*
X16088500Y-12623800D02*
G75*
G03*
X16088500Y-12623800I-59500J0D01*
G01*
X15969500Y-12818300D02*
X16088500Y-12937300D01*
X16088500Y-12818300D02*
X15969500Y-12937300D01*
X16088500Y-12877800D02*
G75*
G03*
X16088500Y-12877800I-59500J0D01*
G01*
X15969500Y-13072300D02*
X16088500Y-13191300D01*
X16088500Y-13072300D02*
X15969500Y-13191300D01*
X16088500Y-13131800D02*
G75*
G03*
X16088500Y-13131800I-59500J0D01*
G01*
X16152351Y-4705449D02*
X16271351Y-4824449D01*
X16271351Y-4705449D02*
X16152351Y-4824449D01*
X16271351Y-4764949D02*
G75*
G03*
X16271351Y-4764949I-59500J0D01*
G01*
X16406351Y-4705449D02*
X16525351Y-4824449D01*
X16525351Y-4705449D02*
X16406351Y-4824449D01*
X16525351Y-4764949D02*
G75*
G03*
X16525351Y-4764949I-59500J0D01*
G01*
X17422351Y-8020149D02*
X17541351Y-8139149D01*
X17541351Y-8020149D02*
X17422351Y-8139149D01*
X17541351Y-8079649D02*
G75*
G03*
X17541351Y-8079649I-59500J0D01*
G01*
X17422351Y-8274149D02*
X17541351Y-8393149D01*
X17541351Y-8274149D02*
X17422351Y-8393149D01*
X17541351Y-8333649D02*
G75*
G03*
X17541351Y-8333649I-59500J0D01*
G01*
X17422351Y-8528149D02*
X17541351Y-8647149D01*
X17541351Y-8528149D02*
X17422351Y-8647149D01*
X17541351Y-8587649D02*
G75*
G03*
X17541351Y-8587649I-59500J0D01*
G01*
X17422351Y-8782149D02*
X17541351Y-8901149D01*
X17541351Y-8782149D02*
X17422351Y-8901149D01*
X17541351Y-8841649D02*
G75*
G03*
X17541351Y-8841649I-59500J0D01*
G01*
X18014200Y-12145200D02*
X18133200Y-12264200D01*
X18133200Y-12145200D02*
X18014200Y-12264200D01*
X18133200Y-12204700D02*
G75*
G03*
X18133200Y-12204700I-59500J0D01*
G01*
X18014200Y-12399200D02*
X18133200Y-12518200D01*
X18133200Y-12399200D02*
X18014200Y-12518200D01*
X18133200Y-12458700D02*
G75*
G03*
X18133200Y-12458700I-59500J0D01*
G01*
X18014200Y-12653200D02*
X18133200Y-12772200D01*
X18133200Y-12653200D02*
X18014200Y-12772200D01*
X18133200Y-12712700D02*
G75*
G03*
X18133200Y-12712700I-59500J0D01*
G01*
X18014200Y-12907200D02*
X18133200Y-13026200D01*
X18133200Y-12907200D02*
X18014200Y-13026200D01*
X18133200Y-12966700D02*
G75*
G03*
X18133200Y-12966700I-59500J0D01*
G01*
X18014200Y-13161200D02*
X18133200Y-13280200D01*
X18133200Y-13161200D02*
X18014200Y-13280200D01*
X18133200Y-13220700D02*
G75*
G03*
X18133200Y-13220700I-59500J0D01*
G01*
X18014200Y-13415200D02*
X18133200Y-13534200D01*
X18133200Y-13415200D02*
X18014200Y-13534200D01*
X18133200Y-13474700D02*
G75*
G03*
X18133200Y-13474700I-59500J0D01*
G01*
X18014200Y-13669200D02*
X18133200Y-13788200D01*
X18133200Y-13669200D02*
X18014200Y-13788200D01*
X18133200Y-13728700D02*
G75*
G03*
X18133200Y-13728700I-59500J0D01*
G01*
X18014200Y-13923200D02*
X18133200Y-14042200D01*
X18133200Y-13923200D02*
X18014200Y-14042200D01*
X18133200Y-13982700D02*
G75*
G03*
X18133200Y-13982700I-59500J0D01*
G01*
X18133551Y-9927649D02*
X18252551Y-10046649D01*
X18252551Y-9927649D02*
X18133551Y-10046649D01*
X18252551Y-9987149D02*
G75*
G03*
X18252551Y-9987149I-59500J0D01*
G01*
X18171651Y-5873849D02*
X18290651Y-5992849D01*
X18290651Y-5873849D02*
X18171651Y-5992849D01*
X18290651Y-5933349D02*
G75*
G03*
X18290651Y-5933349I-59500J0D01*
G01*
X18209751Y-8553549D02*
X18328751Y-8672549D01*
X18328751Y-8553549D02*
X18209751Y-8672549D01*
X18328751Y-8613049D02*
G75*
G03*
X18328751Y-8613049I-59500J0D01*
G01*
X18285951Y-7689949D02*
X18404951Y-7808949D01*
X18404951Y-7689949D02*
X18285951Y-7808949D01*
X18404951Y-7749449D02*
G75*
G03*
X18404951Y-7749449I-59500J0D01*
G01*
X18387551Y-9927649D02*
X18506551Y-10046649D01*
X18506551Y-9927649D02*
X18387551Y-10046649D01*
X18506551Y-9987149D02*
G75*
G03*
X18506551Y-9987149I-59500J0D01*
G01*
X18425651Y-5873849D02*
X18544651Y-5992849D01*
X18544651Y-5873849D02*
X18425651Y-5992849D01*
X18544651Y-5933349D02*
G75*
G03*
X18544651Y-5933349I-59500J0D01*
G01*
X18463751Y-8553549D02*
X18582751Y-8672549D01*
X18582751Y-8553549D02*
X18463751Y-8672549D01*
X18582751Y-8613049D02*
G75*
G03*
X18582751Y-8613049I-59500J0D01*
G01*
X18539951Y-7689949D02*
X18658951Y-7808949D01*
X18658951Y-7689949D02*
X18539951Y-7808949D01*
X18658951Y-7749449D02*
G75*
G03*
X18658951Y-7749449I-59500J0D01*
G01*
X18641551Y-9927649D02*
X18760551Y-10046649D01*
X18760551Y-9927649D02*
X18641551Y-10046649D01*
X18760551Y-9987149D02*
G75*
G03*
X18760551Y-9987149I-59500J0D01*
G01*
X18679651Y-5873849D02*
X18798651Y-5992849D01*
X18798651Y-5873849D02*
X18679651Y-5992849D01*
X18798651Y-5933349D02*
G75*
G03*
X18798651Y-5933349I-59500J0D01*
G01*
X18717751Y-8553549D02*
X18836751Y-8672549D01*
X18836751Y-8553549D02*
X18717751Y-8672549D01*
X18836751Y-8613049D02*
G75*
G03*
X18836751Y-8613049I-59500J0D01*
G01*
X18793951Y-7689949D02*
X18912951Y-7808949D01*
X18912951Y-7689949D02*
X18793951Y-7808949D01*
X18912951Y-7749449D02*
G75*
G03*
X18912951Y-7749449I-59500J0D01*
G01*
X18971751Y-8553549D02*
X19090751Y-8672549D01*
X19090751Y-8553549D02*
X18971751Y-8672549D01*
X19090751Y-8613049D02*
G75*
G03*
X19090751Y-8613049I-59500J0D01*
G01*
D18*
X14226251Y-5394949D02*
X14456251Y-5624949D01*
X14456251Y-5394949D02*
X14226251Y-5624949D01*
X14341251Y-5394949D02*
X14341251Y-5624949D01*
X14226251Y-5509949D02*
X14456251Y-5509949D01*
X15540251Y-5394949D02*
X15770251Y-5624949D01*
X15770251Y-5394949D02*
X15540251Y-5624949D01*
X15655251Y-5394949D02*
X15655251Y-5624949D01*
X15540251Y-5509949D02*
X15770251Y-5509949D01*
D11*
X9942719Y-14666476D02*
X9942719Y-14466476D01*
X9990338Y-14466476D01*
X10018910Y-14476000D01*
X10037957Y-14495048D01*
X10047481Y-14514095D01*
X10057005Y-14552190D01*
X10057005Y-14580762D01*
X10047481Y-14618857D01*
X10037957Y-14637905D01*
X10018910Y-14656952D01*
X9990338Y-14666476D01*
X9942719Y-14666476D01*
X10142719Y-14666476D02*
X10142719Y-14533143D01*
X10142719Y-14571238D02*
X10152243Y-14552190D01*
X10161767Y-14542667D01*
X10180814Y-14533143D01*
X10199862Y-14533143D01*
X10266529Y-14666476D02*
X10266529Y-14533143D01*
X10266529Y-14466476D02*
X10257005Y-14476000D01*
X10266529Y-14485524D01*
X10276052Y-14476000D01*
X10266529Y-14466476D01*
X10266529Y-14485524D01*
X10390338Y-14666476D02*
X10371290Y-14656952D01*
X10361767Y-14637905D01*
X10361767Y-14466476D01*
X10495100Y-14666476D02*
X10476052Y-14656952D01*
X10466529Y-14637905D01*
X10466529Y-14466476D01*
X10723671Y-14666476D02*
X10723671Y-14466476D01*
X10790338Y-14609333D01*
X10857005Y-14466476D01*
X10857005Y-14666476D01*
X11037957Y-14666476D02*
X11037957Y-14561714D01*
X11028433Y-14542667D01*
X11009386Y-14533143D01*
X10971290Y-14533143D01*
X10952243Y-14542667D01*
X11037957Y-14656952D02*
X11018910Y-14666476D01*
X10971290Y-14666476D01*
X10952243Y-14656952D01*
X10942719Y-14637905D01*
X10942719Y-14618857D01*
X10952243Y-14599809D01*
X10971290Y-14590286D01*
X11018910Y-14590286D01*
X11037957Y-14580762D01*
X11133195Y-14533143D02*
X11133195Y-14733143D01*
X11133195Y-14542667D02*
X11152243Y-14533143D01*
X11190338Y-14533143D01*
X11209386Y-14542667D01*
X11218909Y-14552190D01*
X11228433Y-14571238D01*
X11228433Y-14628381D01*
X11218909Y-14647428D01*
X11209386Y-14656952D01*
X11190338Y-14666476D01*
X11152243Y-14666476D01*
X11133195Y-14656952D01*
X11314148Y-14647428D02*
X11323671Y-14656952D01*
X11314148Y-14666476D01*
X11304624Y-14656952D01*
X11314148Y-14647428D01*
X11314148Y-14666476D01*
X11314148Y-14542667D02*
X11323671Y-14552190D01*
X11314148Y-14561714D01*
X11304624Y-14552190D01*
X11314148Y-14542667D01*
X11314148Y-14561714D01*
D12*
X9645100Y-14976000D02*
X9685100Y-15016000D01*
X9685100Y-14976000D02*
X9645100Y-15016000D01*
D11*
X9980814Y-14886476D02*
X9999862Y-14886476D01*
X10018910Y-14896000D01*
X10028433Y-14905524D01*
X10037957Y-14924571D01*
X10047481Y-14962667D01*
X10047481Y-15010286D01*
X10037957Y-15048381D01*
X10028433Y-15067428D01*
X10018910Y-15076952D01*
X9999862Y-15086476D01*
X9980814Y-15086476D01*
X9961767Y-15076952D01*
X9952243Y-15067428D01*
X9942719Y-15048381D01*
X9933195Y-15010286D01*
X9933195Y-14962667D01*
X9942719Y-14924571D01*
X9952243Y-14905524D01*
X9961767Y-14896000D01*
X9980814Y-14886476D01*
X10133195Y-15067428D02*
X10142719Y-15076952D01*
X10133195Y-15086476D01*
X10123671Y-15076952D01*
X10133195Y-15067428D01*
X10133195Y-15086476D01*
X10314148Y-14953143D02*
X10314148Y-15086476D01*
X10266529Y-14876952D02*
X10218910Y-15019809D01*
X10342719Y-15019809D01*
X10457005Y-14886476D02*
X10476052Y-14886476D01*
X10495100Y-14896000D01*
X10504624Y-14905524D01*
X10514148Y-14924571D01*
X10523671Y-14962667D01*
X10523671Y-15010286D01*
X10514148Y-15048381D01*
X10504624Y-15067428D01*
X10495100Y-15076952D01*
X10476052Y-15086476D01*
X10457005Y-15086476D01*
X10437957Y-15076952D01*
X10428433Y-15067428D01*
X10418910Y-15048381D01*
X10409386Y-15010286D01*
X10409386Y-14962667D01*
X10418910Y-14924571D01*
X10428433Y-14905524D01*
X10437957Y-14896000D01*
X10457005Y-14886476D01*
X10647481Y-14886476D02*
X10666529Y-14886476D01*
X10685576Y-14896000D01*
X10695100Y-14905524D01*
X10704624Y-14924571D01*
X10714148Y-14962667D01*
X10714148Y-15010286D01*
X10704624Y-15048381D01*
X10695100Y-15067428D01*
X10685576Y-15076952D01*
X10666529Y-15086476D01*
X10647481Y-15086476D01*
X10628433Y-15076952D01*
X10618910Y-15067428D01*
X10609386Y-15048381D01*
X10599862Y-15010286D01*
X10599862Y-14962667D01*
X10609386Y-14924571D01*
X10618910Y-14905524D01*
X10628433Y-14896000D01*
X10647481Y-14886476D01*
X10799862Y-15086476D02*
X10799862Y-14953143D01*
X10799862Y-14972190D02*
X10809386Y-14962667D01*
X10828433Y-14953143D01*
X10857005Y-14953143D01*
X10876052Y-14962667D01*
X10885576Y-14981714D01*
X10885576Y-15086476D01*
X10885576Y-14981714D02*
X10895100Y-14962667D01*
X10914148Y-14953143D01*
X10942719Y-14953143D01*
X10961767Y-14962667D01*
X10971290Y-14981714D01*
X10971290Y-15086476D01*
X11066529Y-15086476D02*
X11066529Y-14953143D01*
X11066529Y-14972190D02*
X11076052Y-14962667D01*
X11095100Y-14953143D01*
X11123671Y-14953143D01*
X11142719Y-14962667D01*
X11152243Y-14981714D01*
X11152243Y-15086476D01*
X11152243Y-14981714D02*
X11161767Y-14962667D01*
X11180814Y-14953143D01*
X11209386Y-14953143D01*
X11228433Y-14962667D01*
X11237957Y-14981714D01*
X11237957Y-15086476D01*
X11628433Y-14876952D02*
X11457005Y-15134095D01*
X11885576Y-14886476D02*
X11904624Y-14886476D01*
X11923671Y-14896000D01*
X11933195Y-14905524D01*
X11942719Y-14924571D01*
X11952243Y-14962667D01*
X11952243Y-15010286D01*
X11942719Y-15048381D01*
X11933195Y-15067428D01*
X11923671Y-15076952D01*
X11904624Y-15086476D01*
X11885576Y-15086476D01*
X11866528Y-15076952D01*
X11857005Y-15067428D01*
X11847481Y-15048381D01*
X11837957Y-15010286D01*
X11837957Y-14962667D01*
X11847481Y-14924571D01*
X11857005Y-14905524D01*
X11866528Y-14896000D01*
X11885576Y-14886476D01*
X12037957Y-15067428D02*
X12047481Y-15076952D01*
X12037957Y-15086476D01*
X12028433Y-15076952D01*
X12037957Y-15067428D01*
X12037957Y-15086476D01*
X12171290Y-14886476D02*
X12190338Y-14886476D01*
X12209386Y-14896000D01*
X12218909Y-14905524D01*
X12228433Y-14924571D01*
X12237957Y-14962667D01*
X12237957Y-15010286D01*
X12228433Y-15048381D01*
X12218909Y-15067428D01*
X12209386Y-15076952D01*
X12190338Y-15086476D01*
X12171290Y-15086476D01*
X12152243Y-15076952D01*
X12142719Y-15067428D01*
X12133195Y-15048381D01*
X12123671Y-15010286D01*
X12123671Y-14962667D01*
X12133195Y-14924571D01*
X12142719Y-14905524D01*
X12152243Y-14896000D01*
X12171290Y-14886476D01*
X12428433Y-15086476D02*
X12314148Y-15086476D01*
X12371290Y-15086476D02*
X12371290Y-14886476D01*
X12352243Y-14915048D01*
X12333195Y-14934095D01*
X12314148Y-14943619D01*
X12609386Y-14886476D02*
X12514148Y-14886476D01*
X12504624Y-14981714D01*
X12514148Y-14972190D01*
X12533195Y-14962667D01*
X12580814Y-14962667D01*
X12599862Y-14972190D01*
X12609386Y-14981714D01*
X12618909Y-15000762D01*
X12618909Y-15048381D01*
X12609386Y-15067428D01*
X12599862Y-15076952D01*
X12580814Y-15086476D01*
X12533195Y-15086476D01*
X12514148Y-15076952D01*
X12504624Y-15067428D01*
X12685576Y-14886476D02*
X12818909Y-14886476D01*
X12733195Y-15086476D01*
X12885576Y-14886476D02*
X12885576Y-14924571D01*
X12961767Y-14886476D02*
X12961767Y-14924571D01*
X13257005Y-15162667D02*
X13247481Y-15153143D01*
X13228433Y-15124571D01*
X13218909Y-15105524D01*
X13209386Y-15076952D01*
X13199862Y-15029333D01*
X13199862Y-14991238D01*
X13209386Y-14943619D01*
X13218909Y-14915048D01*
X13228433Y-14896000D01*
X13247481Y-14867428D01*
X13257005Y-14857905D01*
X13437957Y-15086476D02*
X13323671Y-15086476D01*
X13380814Y-15086476D02*
X13380814Y-14886476D01*
X13361767Y-14915048D01*
X13342719Y-14934095D01*
X13323671Y-14943619D01*
X13504624Y-14886476D02*
X13628433Y-14886476D01*
X13561767Y-14962667D01*
X13590338Y-14962667D01*
X13609386Y-14972190D01*
X13618909Y-14981714D01*
X13628433Y-15000762D01*
X13628433Y-15048381D01*
X13618909Y-15067428D01*
X13609386Y-15076952D01*
X13590338Y-15086476D01*
X13533195Y-15086476D01*
X13514148Y-15076952D01*
X13504624Y-15067428D01*
X13866528Y-15086476D02*
X13866528Y-14886476D01*
X13952243Y-15086476D02*
X13952243Y-14981714D01*
X13942719Y-14962667D01*
X13923671Y-14953143D01*
X13895100Y-14953143D01*
X13876052Y-14962667D01*
X13866528Y-14972190D01*
X14076052Y-15086476D02*
X14057005Y-15076952D01*
X14047481Y-15067428D01*
X14037957Y-15048381D01*
X14037957Y-14991238D01*
X14047481Y-14972190D01*
X14057005Y-14962667D01*
X14076052Y-14953143D01*
X14104624Y-14953143D01*
X14123671Y-14962667D01*
X14133195Y-14972190D01*
X14142719Y-14991238D01*
X14142719Y-15048381D01*
X14133195Y-15067428D01*
X14123671Y-15076952D01*
X14104624Y-15086476D01*
X14076052Y-15086476D01*
X14257005Y-15086476D02*
X14237957Y-15076952D01*
X14228433Y-15057905D01*
X14228433Y-14886476D01*
X14409386Y-15076952D02*
X14390338Y-15086476D01*
X14352243Y-15086476D01*
X14333195Y-15076952D01*
X14323671Y-15057905D01*
X14323671Y-14981714D01*
X14333195Y-14962667D01*
X14352243Y-14953143D01*
X14390338Y-14953143D01*
X14409386Y-14962667D01*
X14418909Y-14981714D01*
X14418909Y-15000762D01*
X14323671Y-15019809D01*
X14495100Y-15076952D02*
X14514148Y-15086476D01*
X14552243Y-15086476D01*
X14571290Y-15076952D01*
X14580814Y-15057905D01*
X14580814Y-15048381D01*
X14571290Y-15029333D01*
X14552243Y-15019809D01*
X14523671Y-15019809D01*
X14504624Y-15010286D01*
X14495100Y-14991238D01*
X14495100Y-14981714D01*
X14504624Y-14962667D01*
X14523671Y-14953143D01*
X14552243Y-14953143D01*
X14571290Y-14962667D01*
X14647481Y-15162667D02*
X14657005Y-15153143D01*
X14676052Y-15124571D01*
X14685576Y-15105524D01*
X14695100Y-15076952D01*
X14704624Y-15029333D01*
X14704624Y-14991238D01*
X14695100Y-14943619D01*
X14685576Y-14915048D01*
X14676052Y-14896000D01*
X14657005Y-14867428D01*
X14647481Y-14857905D01*
D13*
X9685100Y-15260000D02*
G75*
G03*
X9685100Y-15260000I-40000J0D01*
G01*
D11*
X9980814Y-15150476D02*
X9999862Y-15150476D01*
X10018910Y-15160000D01*
X10028433Y-15169524D01*
X10037957Y-15188571D01*
X10047481Y-15226667D01*
X10047481Y-15274286D01*
X10037957Y-15312381D01*
X10028433Y-15331428D01*
X10018910Y-15340952D01*
X9999862Y-15350476D01*
X9980814Y-15350476D01*
X9961767Y-15340952D01*
X9952243Y-15331428D01*
X9942719Y-15312381D01*
X9933195Y-15274286D01*
X9933195Y-15226667D01*
X9942719Y-15188571D01*
X9952243Y-15169524D01*
X9961767Y-15160000D01*
X9980814Y-15150476D01*
X10133195Y-15331428D02*
X10142719Y-15340952D01*
X10133195Y-15350476D01*
X10123671Y-15340952D01*
X10133195Y-15331428D01*
X10133195Y-15350476D01*
X10257005Y-15236190D02*
X10237957Y-15226667D01*
X10228433Y-15217143D01*
X10218910Y-15198095D01*
X10218910Y-15188571D01*
X10228433Y-15169524D01*
X10237957Y-15160000D01*
X10257005Y-15150476D01*
X10295100Y-15150476D01*
X10314148Y-15160000D01*
X10323671Y-15169524D01*
X10333195Y-15188571D01*
X10333195Y-15198095D01*
X10323671Y-15217143D01*
X10314148Y-15226667D01*
X10295100Y-15236190D01*
X10257005Y-15236190D01*
X10237957Y-15245714D01*
X10228433Y-15255238D01*
X10218910Y-15274286D01*
X10218910Y-15312381D01*
X10228433Y-15331428D01*
X10237957Y-15340952D01*
X10257005Y-15350476D01*
X10295100Y-15350476D01*
X10314148Y-15340952D01*
X10323671Y-15331428D01*
X10333195Y-15312381D01*
X10333195Y-15274286D01*
X10323671Y-15255238D01*
X10314148Y-15245714D01*
X10295100Y-15236190D01*
X10457005Y-15150476D02*
X10476052Y-15150476D01*
X10495100Y-15160000D01*
X10504624Y-15169524D01*
X10514148Y-15188571D01*
X10523671Y-15226667D01*
X10523671Y-15274286D01*
X10514148Y-15312381D01*
X10504624Y-15331428D01*
X10495100Y-15340952D01*
X10476052Y-15350476D01*
X10457005Y-15350476D01*
X10437957Y-15340952D01*
X10428433Y-15331428D01*
X10418910Y-15312381D01*
X10409386Y-15274286D01*
X10409386Y-15226667D01*
X10418910Y-15188571D01*
X10428433Y-15169524D01*
X10437957Y-15160000D01*
X10457005Y-15150476D01*
X10647481Y-15150476D02*
X10666529Y-15150476D01*
X10685576Y-15160000D01*
X10695100Y-15169524D01*
X10704624Y-15188571D01*
X10714148Y-15226667D01*
X10714148Y-15274286D01*
X10704624Y-15312381D01*
X10695100Y-15331428D01*
X10685576Y-15340952D01*
X10666529Y-15350476D01*
X10647481Y-15350476D01*
X10628433Y-15340952D01*
X10618910Y-15331428D01*
X10609386Y-15312381D01*
X10599862Y-15274286D01*
X10599862Y-15226667D01*
X10609386Y-15188571D01*
X10618910Y-15169524D01*
X10628433Y-15160000D01*
X10647481Y-15150476D01*
X10799862Y-15350476D02*
X10799862Y-15217143D01*
X10799862Y-15236190D02*
X10809386Y-15226667D01*
X10828433Y-15217143D01*
X10857005Y-15217143D01*
X10876052Y-15226667D01*
X10885576Y-15245714D01*
X10885576Y-15350476D01*
X10885576Y-15245714D02*
X10895100Y-15226667D01*
X10914148Y-15217143D01*
X10942719Y-15217143D01*
X10961767Y-15226667D01*
X10971290Y-15245714D01*
X10971290Y-15350476D01*
X11066529Y-15350476D02*
X11066529Y-15217143D01*
X11066529Y-15236190D02*
X11076052Y-15226667D01*
X11095100Y-15217143D01*
X11123671Y-15217143D01*
X11142719Y-15226667D01*
X11152243Y-15245714D01*
X11152243Y-15350476D01*
X11152243Y-15245714D02*
X11161767Y-15226667D01*
X11180814Y-15217143D01*
X11209386Y-15217143D01*
X11228433Y-15226667D01*
X11237957Y-15245714D01*
X11237957Y-15350476D01*
X11628433Y-15140952D02*
X11457005Y-15398095D01*
X11885576Y-15150476D02*
X11904624Y-15150476D01*
X11923671Y-15160000D01*
X11933195Y-15169524D01*
X11942719Y-15188571D01*
X11952243Y-15226667D01*
X11952243Y-15274286D01*
X11942719Y-15312381D01*
X11933195Y-15331428D01*
X11923671Y-15340952D01*
X11904624Y-15350476D01*
X11885576Y-15350476D01*
X11866528Y-15340952D01*
X11857005Y-15331428D01*
X11847481Y-15312381D01*
X11837957Y-15274286D01*
X11837957Y-15226667D01*
X11847481Y-15188571D01*
X11857005Y-15169524D01*
X11866528Y-15160000D01*
X11885576Y-15150476D01*
X12037957Y-15331428D02*
X12047481Y-15340952D01*
X12037957Y-15350476D01*
X12028433Y-15340952D01*
X12037957Y-15331428D01*
X12037957Y-15350476D01*
X12171290Y-15150476D02*
X12190338Y-15150476D01*
X12209386Y-15160000D01*
X12218909Y-15169524D01*
X12228433Y-15188571D01*
X12237957Y-15226667D01*
X12237957Y-15274286D01*
X12228433Y-15312381D01*
X12218909Y-15331428D01*
X12209386Y-15340952D01*
X12190338Y-15350476D01*
X12171290Y-15350476D01*
X12152243Y-15340952D01*
X12142719Y-15331428D01*
X12133195Y-15312381D01*
X12123671Y-15274286D01*
X12123671Y-15226667D01*
X12133195Y-15188571D01*
X12142719Y-15169524D01*
X12152243Y-15160000D01*
X12171290Y-15150476D01*
X12304624Y-15150476D02*
X12428433Y-15150476D01*
X12361767Y-15226667D01*
X12390338Y-15226667D01*
X12409386Y-15236190D01*
X12418909Y-15245714D01*
X12428433Y-15264762D01*
X12428433Y-15312381D01*
X12418909Y-15331428D01*
X12409386Y-15340952D01*
X12390338Y-15350476D01*
X12333195Y-15350476D01*
X12314148Y-15340952D01*
X12304624Y-15331428D01*
X12618909Y-15350476D02*
X12504624Y-15350476D01*
X12561767Y-15350476D02*
X12561767Y-15150476D01*
X12542719Y-15179048D01*
X12523671Y-15198095D01*
X12504624Y-15207619D01*
X12799862Y-15150476D02*
X12704624Y-15150476D01*
X12695100Y-15245714D01*
X12704624Y-15236190D01*
X12723671Y-15226667D01*
X12771290Y-15226667D01*
X12790338Y-15236190D01*
X12799862Y-15245714D01*
X12809386Y-15264762D01*
X12809386Y-15312381D01*
X12799862Y-15331428D01*
X12790338Y-15340952D01*
X12771290Y-15350476D01*
X12723671Y-15350476D01*
X12704624Y-15340952D01*
X12695100Y-15331428D01*
X12885576Y-15150476D02*
X12885576Y-15188571D01*
X12961767Y-15150476D02*
X12961767Y-15188571D01*
X13257005Y-15426667D02*
X13247481Y-15417143D01*
X13228433Y-15388571D01*
X13218909Y-15369524D01*
X13209386Y-15340952D01*
X13199862Y-15293333D01*
X13199862Y-15255238D01*
X13209386Y-15207619D01*
X13218909Y-15179048D01*
X13228433Y-15160000D01*
X13247481Y-15131428D01*
X13257005Y-15121905D01*
X13418909Y-15217143D02*
X13418909Y-15350476D01*
X13371290Y-15140952D02*
X13323671Y-15283809D01*
X13447481Y-15283809D01*
X13609386Y-15150476D02*
X13571290Y-15150476D01*
X13552243Y-15160000D01*
X13542719Y-15169524D01*
X13523671Y-15198095D01*
X13514148Y-15236190D01*
X13514148Y-15312381D01*
X13523671Y-15331428D01*
X13533195Y-15340952D01*
X13552243Y-15350476D01*
X13590338Y-15350476D01*
X13609386Y-15340952D01*
X13618909Y-15331428D01*
X13628433Y-15312381D01*
X13628433Y-15264762D01*
X13618909Y-15245714D01*
X13609386Y-15236190D01*
X13590338Y-15226667D01*
X13552243Y-15226667D01*
X13533195Y-15236190D01*
X13523671Y-15245714D01*
X13514148Y-15264762D01*
X13866528Y-15350476D02*
X13866528Y-15150476D01*
X13952243Y-15350476D02*
X13952243Y-15245714D01*
X13942719Y-15226667D01*
X13923671Y-15217143D01*
X13895100Y-15217143D01*
X13876052Y-15226667D01*
X13866528Y-15236190D01*
X14076052Y-15350476D02*
X14057005Y-15340952D01*
X14047481Y-15331428D01*
X14037957Y-15312381D01*
X14037957Y-15255238D01*
X14047481Y-15236190D01*
X14057005Y-15226667D01*
X14076052Y-15217143D01*
X14104624Y-15217143D01*
X14123671Y-15226667D01*
X14133195Y-15236190D01*
X14142719Y-15255238D01*
X14142719Y-15312381D01*
X14133195Y-15331428D01*
X14123671Y-15340952D01*
X14104624Y-15350476D01*
X14076052Y-15350476D01*
X14257005Y-15350476D02*
X14237957Y-15340952D01*
X14228433Y-15321905D01*
X14228433Y-15150476D01*
X14409386Y-15340952D02*
X14390338Y-15350476D01*
X14352243Y-15350476D01*
X14333195Y-15340952D01*
X14323671Y-15321905D01*
X14323671Y-15245714D01*
X14333195Y-15226667D01*
X14352243Y-15217143D01*
X14390338Y-15217143D01*
X14409386Y-15226667D01*
X14418909Y-15245714D01*
X14418909Y-15264762D01*
X14323671Y-15283809D01*
X14495100Y-15340952D02*
X14514148Y-15350476D01*
X14552243Y-15350476D01*
X14571290Y-15340952D01*
X14580814Y-15321905D01*
X14580814Y-15312381D01*
X14571290Y-15293333D01*
X14552243Y-15283809D01*
X14523671Y-15283809D01*
X14504624Y-15274286D01*
X14495100Y-15255238D01*
X14495100Y-15245714D01*
X14504624Y-15226667D01*
X14523671Y-15217143D01*
X14552243Y-15217143D01*
X14571290Y-15226667D01*
X14647481Y-15426667D02*
X14657005Y-15417143D01*
X14676052Y-15388571D01*
X14685576Y-15369524D01*
X14695100Y-15340952D01*
X14704624Y-15293333D01*
X14704624Y-15255238D01*
X14695100Y-15207619D01*
X14685576Y-15179048D01*
X14676052Y-15160000D01*
X14657005Y-15131428D01*
X14647481Y-15121905D01*
D14*
X9639100Y-15478000D02*
X9639100Y-15570000D01*
X9593100Y-15524000D02*
X9685100Y-15524000D01*
D11*
X9980814Y-15414476D02*
X9999862Y-15414476D01*
X10018910Y-15424000D01*
X10028433Y-15433524D01*
X10037957Y-15452571D01*
X10047481Y-15490667D01*
X10047481Y-15538286D01*
X10037957Y-15576381D01*
X10028433Y-15595428D01*
X10018910Y-15604952D01*
X9999862Y-15614476D01*
X9980814Y-15614476D01*
X9961767Y-15604952D01*
X9952243Y-15595428D01*
X9942719Y-15576381D01*
X9933195Y-15538286D01*
X9933195Y-15490667D01*
X9942719Y-15452571D01*
X9952243Y-15433524D01*
X9961767Y-15424000D01*
X9980814Y-15414476D01*
X10133195Y-15595428D02*
X10142719Y-15604952D01*
X10133195Y-15614476D01*
X10123671Y-15604952D01*
X10133195Y-15595428D01*
X10133195Y-15614476D01*
X10237957Y-15614476D02*
X10276052Y-15614476D01*
X10295100Y-15604952D01*
X10304624Y-15595428D01*
X10323671Y-15566857D01*
X10333195Y-15528762D01*
X10333195Y-15452571D01*
X10323671Y-15433524D01*
X10314148Y-15424000D01*
X10295100Y-15414476D01*
X10257005Y-15414476D01*
X10237957Y-15424000D01*
X10228433Y-15433524D01*
X10218910Y-15452571D01*
X10218910Y-15500190D01*
X10228433Y-15519238D01*
X10237957Y-15528762D01*
X10257005Y-15538286D01*
X10295100Y-15538286D01*
X10314148Y-15528762D01*
X10323671Y-15519238D01*
X10333195Y-15500190D01*
X10409386Y-15433524D02*
X10418910Y-15424000D01*
X10437957Y-15414476D01*
X10485576Y-15414476D01*
X10504624Y-15424000D01*
X10514148Y-15433524D01*
X10523671Y-15452571D01*
X10523671Y-15471619D01*
X10514148Y-15500190D01*
X10399862Y-15614476D01*
X10523671Y-15614476D01*
X10647481Y-15414476D02*
X10666529Y-15414476D01*
X10685576Y-15424000D01*
X10695100Y-15433524D01*
X10704624Y-15452571D01*
X10714148Y-15490667D01*
X10714148Y-15538286D01*
X10704624Y-15576381D01*
X10695100Y-15595428D01*
X10685576Y-15604952D01*
X10666529Y-15614476D01*
X10647481Y-15614476D01*
X10628433Y-15604952D01*
X10618910Y-15595428D01*
X10609386Y-15576381D01*
X10599862Y-15538286D01*
X10599862Y-15490667D01*
X10609386Y-15452571D01*
X10618910Y-15433524D01*
X10628433Y-15424000D01*
X10647481Y-15414476D01*
X10799862Y-15614476D02*
X10799862Y-15481143D01*
X10799862Y-15500190D02*
X10809386Y-15490667D01*
X10828433Y-15481143D01*
X10857005Y-15481143D01*
X10876052Y-15490667D01*
X10885576Y-15509714D01*
X10885576Y-15614476D01*
X10885576Y-15509714D02*
X10895100Y-15490667D01*
X10914148Y-15481143D01*
X10942719Y-15481143D01*
X10961767Y-15490667D01*
X10971290Y-15509714D01*
X10971290Y-15614476D01*
X11066529Y-15614476D02*
X11066529Y-15481143D01*
X11066529Y-15500190D02*
X11076052Y-15490667D01*
X11095100Y-15481143D01*
X11123671Y-15481143D01*
X11142719Y-15490667D01*
X11152243Y-15509714D01*
X11152243Y-15614476D01*
X11152243Y-15509714D02*
X11161767Y-15490667D01*
X11180814Y-15481143D01*
X11209386Y-15481143D01*
X11228433Y-15490667D01*
X11237957Y-15509714D01*
X11237957Y-15614476D01*
X11628433Y-15404952D02*
X11457005Y-15662095D01*
X11885576Y-15414476D02*
X11904624Y-15414476D01*
X11923671Y-15424000D01*
X11933195Y-15433524D01*
X11942719Y-15452571D01*
X11952243Y-15490667D01*
X11952243Y-15538286D01*
X11942719Y-15576381D01*
X11933195Y-15595428D01*
X11923671Y-15604952D01*
X11904624Y-15614476D01*
X11885576Y-15614476D01*
X11866528Y-15604952D01*
X11857005Y-15595428D01*
X11847481Y-15576381D01*
X11837957Y-15538286D01*
X11837957Y-15490667D01*
X11847481Y-15452571D01*
X11857005Y-15433524D01*
X11866528Y-15424000D01*
X11885576Y-15414476D01*
X12037957Y-15595428D02*
X12047481Y-15604952D01*
X12037957Y-15614476D01*
X12028433Y-15604952D01*
X12037957Y-15595428D01*
X12037957Y-15614476D01*
X12171290Y-15414476D02*
X12190338Y-15414476D01*
X12209386Y-15424000D01*
X12218909Y-15433524D01*
X12228433Y-15452571D01*
X12237957Y-15490667D01*
X12237957Y-15538286D01*
X12228433Y-15576381D01*
X12218909Y-15595428D01*
X12209386Y-15604952D01*
X12190338Y-15614476D01*
X12171290Y-15614476D01*
X12152243Y-15604952D01*
X12142719Y-15595428D01*
X12133195Y-15576381D01*
X12123671Y-15538286D01*
X12123671Y-15490667D01*
X12133195Y-15452571D01*
X12142719Y-15433524D01*
X12152243Y-15424000D01*
X12171290Y-15414476D01*
X12304624Y-15414476D02*
X12428433Y-15414476D01*
X12361767Y-15490667D01*
X12390338Y-15490667D01*
X12409386Y-15500190D01*
X12418909Y-15509714D01*
X12428433Y-15528762D01*
X12428433Y-15576381D01*
X12418909Y-15595428D01*
X12409386Y-15604952D01*
X12390338Y-15614476D01*
X12333195Y-15614476D01*
X12314148Y-15604952D01*
X12304624Y-15595428D01*
X12599862Y-15414476D02*
X12561767Y-15414476D01*
X12542719Y-15424000D01*
X12533195Y-15433524D01*
X12514148Y-15462095D01*
X12504624Y-15500190D01*
X12504624Y-15576381D01*
X12514148Y-15595428D01*
X12523671Y-15604952D01*
X12542719Y-15614476D01*
X12580814Y-15614476D01*
X12599862Y-15604952D01*
X12609386Y-15595428D01*
X12618909Y-15576381D01*
X12618909Y-15528762D01*
X12609386Y-15509714D01*
X12599862Y-15500190D01*
X12580814Y-15490667D01*
X12542719Y-15490667D01*
X12523671Y-15500190D01*
X12514148Y-15509714D01*
X12504624Y-15528762D01*
X12695100Y-15433524D02*
X12704624Y-15424000D01*
X12723671Y-15414476D01*
X12771290Y-15414476D01*
X12790338Y-15424000D01*
X12799862Y-15433524D01*
X12809386Y-15452571D01*
X12809386Y-15471619D01*
X12799862Y-15500190D01*
X12685576Y-15614476D01*
X12809386Y-15614476D01*
X12885576Y-15414476D02*
X12885576Y-15452571D01*
X12961767Y-15414476D02*
X12961767Y-15452571D01*
X13257005Y-15690667D02*
X13247481Y-15681143D01*
X13228433Y-15652571D01*
X13218909Y-15633524D01*
X13209386Y-15604952D01*
X13199862Y-15557333D01*
X13199862Y-15519238D01*
X13209386Y-15471619D01*
X13218909Y-15443048D01*
X13228433Y-15424000D01*
X13247481Y-15395428D01*
X13257005Y-15385905D01*
X13418909Y-15481143D02*
X13418909Y-15614476D01*
X13371290Y-15404952D02*
X13323671Y-15547809D01*
X13447481Y-15547809D01*
X13676052Y-15614476D02*
X13676052Y-15414476D01*
X13761767Y-15614476D02*
X13761767Y-15509714D01*
X13752243Y-15490667D01*
X13733195Y-15481143D01*
X13704624Y-15481143D01*
X13685576Y-15490667D01*
X13676052Y-15500190D01*
X13885576Y-15614476D02*
X13866528Y-15604952D01*
X13857005Y-15595428D01*
X13847481Y-15576381D01*
X13847481Y-15519238D01*
X13857005Y-15500190D01*
X13866528Y-15490667D01*
X13885576Y-15481143D01*
X13914148Y-15481143D01*
X13933195Y-15490667D01*
X13942719Y-15500190D01*
X13952243Y-15519238D01*
X13952243Y-15576381D01*
X13942719Y-15595428D01*
X13933195Y-15604952D01*
X13914148Y-15614476D01*
X13885576Y-15614476D01*
X14066528Y-15614476D02*
X14047481Y-15604952D01*
X14037957Y-15585905D01*
X14037957Y-15414476D01*
X14218909Y-15604952D02*
X14199862Y-15614476D01*
X14161767Y-15614476D01*
X14142719Y-15604952D01*
X14133195Y-15585905D01*
X14133195Y-15509714D01*
X14142719Y-15490667D01*
X14161767Y-15481143D01*
X14199862Y-15481143D01*
X14218909Y-15490667D01*
X14228433Y-15509714D01*
X14228433Y-15528762D01*
X14133195Y-15547809D01*
X14304624Y-15604952D02*
X14323671Y-15614476D01*
X14361767Y-15614476D01*
X14380814Y-15604952D01*
X14390338Y-15585905D01*
X14390338Y-15576381D01*
X14380814Y-15557333D01*
X14361767Y-15547809D01*
X14333195Y-15547809D01*
X14314148Y-15538286D01*
X14304624Y-15519238D01*
X14304624Y-15509714D01*
X14314148Y-15490667D01*
X14333195Y-15481143D01*
X14361767Y-15481143D01*
X14380814Y-15490667D01*
X14457005Y-15690667D02*
X14466528Y-15681143D01*
X14485576Y-15652571D01*
X14495100Y-15633524D01*
X14504624Y-15604952D01*
X14514148Y-15557333D01*
X14514148Y-15519238D01*
X14504624Y-15471619D01*
X14495100Y-15443048D01*
X14485576Y-15424000D01*
X14466528Y-15395428D01*
X14457005Y-15385905D01*
D15*
X9670456Y-15823356D02*
X9670456Y-15752644D01*
X9599744Y-15752644D01*
X9599744Y-15823356D01*
X9670456Y-15823356D01*
D11*
X10047481Y-15878476D02*
X9933195Y-15878476D01*
X9990338Y-15878476D02*
X9990338Y-15678476D01*
X9971290Y-15707048D01*
X9952243Y-15726095D01*
X9933195Y-15735619D01*
X10133195Y-15859428D02*
X10142719Y-15868952D01*
X10133195Y-15878476D01*
X10123671Y-15868952D01*
X10133195Y-15859428D01*
X10133195Y-15878476D01*
X10266529Y-15678476D02*
X10285576Y-15678476D01*
X10304624Y-15688000D01*
X10314148Y-15697524D01*
X10323671Y-15716571D01*
X10333195Y-15754667D01*
X10333195Y-15802286D01*
X10323671Y-15840381D01*
X10314148Y-15859428D01*
X10304624Y-15868952D01*
X10285576Y-15878476D01*
X10266529Y-15878476D01*
X10247481Y-15868952D01*
X10237957Y-15859428D01*
X10228433Y-15840381D01*
X10218910Y-15802286D01*
X10218910Y-15754667D01*
X10228433Y-15716571D01*
X10237957Y-15697524D01*
X10247481Y-15688000D01*
X10266529Y-15678476D01*
X10457005Y-15678476D02*
X10476052Y-15678476D01*
X10495100Y-15688000D01*
X10504624Y-15697524D01*
X10514148Y-15716571D01*
X10523671Y-15754667D01*
X10523671Y-15802286D01*
X10514148Y-15840381D01*
X10504624Y-15859428D01*
X10495100Y-15868952D01*
X10476052Y-15878476D01*
X10457005Y-15878476D01*
X10437957Y-15868952D01*
X10428433Y-15859428D01*
X10418910Y-15840381D01*
X10409386Y-15802286D01*
X10409386Y-15754667D01*
X10418910Y-15716571D01*
X10428433Y-15697524D01*
X10437957Y-15688000D01*
X10457005Y-15678476D01*
X10647481Y-15678476D02*
X10666529Y-15678476D01*
X10685576Y-15688000D01*
X10695100Y-15697524D01*
X10704624Y-15716571D01*
X10714148Y-15754667D01*
X10714148Y-15802286D01*
X10704624Y-15840381D01*
X10695100Y-15859428D01*
X10685576Y-15868952D01*
X10666529Y-15878476D01*
X10647481Y-15878476D01*
X10628433Y-15868952D01*
X10618910Y-15859428D01*
X10609386Y-15840381D01*
X10599862Y-15802286D01*
X10599862Y-15754667D01*
X10609386Y-15716571D01*
X10618910Y-15697524D01*
X10628433Y-15688000D01*
X10647481Y-15678476D01*
X10799862Y-15878476D02*
X10799862Y-15745143D01*
X10799862Y-15764190D02*
X10809386Y-15754667D01*
X10828433Y-15745143D01*
X10857005Y-15745143D01*
X10876052Y-15754667D01*
X10885576Y-15773714D01*
X10885576Y-15878476D01*
X10885576Y-15773714D02*
X10895100Y-15754667D01*
X10914148Y-15745143D01*
X10942719Y-15745143D01*
X10961767Y-15754667D01*
X10971290Y-15773714D01*
X10971290Y-15878476D01*
X11066529Y-15878476D02*
X11066529Y-15745143D01*
X11066529Y-15764190D02*
X11076052Y-15754667D01*
X11095100Y-15745143D01*
X11123671Y-15745143D01*
X11142719Y-15754667D01*
X11152243Y-15773714D01*
X11152243Y-15878476D01*
X11152243Y-15773714D02*
X11161767Y-15754667D01*
X11180814Y-15745143D01*
X11209386Y-15745143D01*
X11228433Y-15754667D01*
X11237957Y-15773714D01*
X11237957Y-15878476D01*
X11628433Y-15668952D02*
X11457005Y-15926095D01*
X11885576Y-15678476D02*
X11904624Y-15678476D01*
X11923671Y-15688000D01*
X11933195Y-15697524D01*
X11942719Y-15716571D01*
X11952243Y-15754667D01*
X11952243Y-15802286D01*
X11942719Y-15840381D01*
X11933195Y-15859428D01*
X11923671Y-15868952D01*
X11904624Y-15878476D01*
X11885576Y-15878476D01*
X11866528Y-15868952D01*
X11857005Y-15859428D01*
X11847481Y-15840381D01*
X11837957Y-15802286D01*
X11837957Y-15754667D01*
X11847481Y-15716571D01*
X11857005Y-15697524D01*
X11866528Y-15688000D01*
X11885576Y-15678476D01*
X12037957Y-15859428D02*
X12047481Y-15868952D01*
X12037957Y-15878476D01*
X12028433Y-15868952D01*
X12037957Y-15859428D01*
X12037957Y-15878476D01*
X12171290Y-15678476D02*
X12190338Y-15678476D01*
X12209386Y-15688000D01*
X12218909Y-15697524D01*
X12228433Y-15716571D01*
X12237957Y-15754667D01*
X12237957Y-15802286D01*
X12228433Y-15840381D01*
X12218909Y-15859428D01*
X12209386Y-15868952D01*
X12190338Y-15878476D01*
X12171290Y-15878476D01*
X12152243Y-15868952D01*
X12142719Y-15859428D01*
X12133195Y-15840381D01*
X12123671Y-15802286D01*
X12123671Y-15754667D01*
X12133195Y-15716571D01*
X12142719Y-15697524D01*
X12152243Y-15688000D01*
X12171290Y-15678476D01*
X12304624Y-15678476D02*
X12428433Y-15678476D01*
X12361767Y-15754667D01*
X12390338Y-15754667D01*
X12409386Y-15764190D01*
X12418909Y-15773714D01*
X12428433Y-15792762D01*
X12428433Y-15840381D01*
X12418909Y-15859428D01*
X12409386Y-15868952D01*
X12390338Y-15878476D01*
X12333195Y-15878476D01*
X12314148Y-15868952D01*
X12304624Y-15859428D01*
X12523671Y-15878476D02*
X12561767Y-15878476D01*
X12580814Y-15868952D01*
X12590338Y-15859428D01*
X12609386Y-15830857D01*
X12618909Y-15792762D01*
X12618909Y-15716571D01*
X12609386Y-15697524D01*
X12599862Y-15688000D01*
X12580814Y-15678476D01*
X12542719Y-15678476D01*
X12523671Y-15688000D01*
X12514148Y-15697524D01*
X12504624Y-15716571D01*
X12504624Y-15764190D01*
X12514148Y-15783238D01*
X12523671Y-15792762D01*
X12542719Y-15802286D01*
X12580814Y-15802286D01*
X12599862Y-15792762D01*
X12609386Y-15783238D01*
X12618909Y-15764190D01*
X12790338Y-15745143D02*
X12790338Y-15878476D01*
X12742719Y-15668952D02*
X12695100Y-15811809D01*
X12818909Y-15811809D01*
X12885576Y-15678476D02*
X12885576Y-15716571D01*
X12961767Y-15678476D02*
X12961767Y-15716571D01*
X13257005Y-15954667D02*
X13247481Y-15945143D01*
X13228433Y-15916571D01*
X13218909Y-15897524D01*
X13209386Y-15868952D01*
X13199862Y-15821333D01*
X13199862Y-15783238D01*
X13209386Y-15735619D01*
X13218909Y-15707048D01*
X13228433Y-15688000D01*
X13247481Y-15659428D01*
X13257005Y-15649905D01*
X13437957Y-15878476D02*
X13323671Y-15878476D01*
X13380814Y-15878476D02*
X13380814Y-15678476D01*
X13361767Y-15707048D01*
X13342719Y-15726095D01*
X13323671Y-15735619D01*
X13514148Y-15697524D02*
X13523671Y-15688000D01*
X13542719Y-15678476D01*
X13590338Y-15678476D01*
X13609386Y-15688000D01*
X13618909Y-15697524D01*
X13628433Y-15716571D01*
X13628433Y-15735619D01*
X13618909Y-15764190D01*
X13504624Y-15878476D01*
X13628433Y-15878476D01*
X13866528Y-15878476D02*
X13866528Y-15678476D01*
X13952243Y-15878476D02*
X13952243Y-15773714D01*
X13942719Y-15754667D01*
X13923671Y-15745143D01*
X13895100Y-15745143D01*
X13876052Y-15754667D01*
X13866528Y-15764190D01*
X14076052Y-15878476D02*
X14057005Y-15868952D01*
X14047481Y-15859428D01*
X14037957Y-15840381D01*
X14037957Y-15783238D01*
X14047481Y-15764190D01*
X14057005Y-15754667D01*
X14076052Y-15745143D01*
X14104624Y-15745143D01*
X14123671Y-15754667D01*
X14133195Y-15764190D01*
X14142719Y-15783238D01*
X14142719Y-15840381D01*
X14133195Y-15859428D01*
X14123671Y-15868952D01*
X14104624Y-15878476D01*
X14076052Y-15878476D01*
X14257005Y-15878476D02*
X14237957Y-15868952D01*
X14228433Y-15849905D01*
X14228433Y-15678476D01*
X14409386Y-15868952D02*
X14390338Y-15878476D01*
X14352243Y-15878476D01*
X14333195Y-15868952D01*
X14323671Y-15849905D01*
X14323671Y-15773714D01*
X14333195Y-15754667D01*
X14352243Y-15745143D01*
X14390338Y-15745143D01*
X14409386Y-15754667D01*
X14418909Y-15773714D01*
X14418909Y-15792762D01*
X14323671Y-15811809D01*
X14495100Y-15868952D02*
X14514148Y-15878476D01*
X14552243Y-15878476D01*
X14571290Y-15868952D01*
X14580814Y-15849905D01*
X14580814Y-15840381D01*
X14571290Y-15821333D01*
X14552243Y-15811809D01*
X14523671Y-15811809D01*
X14504624Y-15802286D01*
X14495100Y-15783238D01*
X14495100Y-15773714D01*
X14504624Y-15754667D01*
X14523671Y-15745143D01*
X14552243Y-15745143D01*
X14571290Y-15754667D01*
X14647481Y-15954667D02*
X14657005Y-15945143D01*
X14676052Y-15916571D01*
X14685576Y-15897524D01*
X14695100Y-15868952D01*
X14704624Y-15821333D01*
X14704624Y-15783238D01*
X14695100Y-15735619D01*
X14685576Y-15707048D01*
X14676052Y-15688000D01*
X14657005Y-15659428D01*
X14647481Y-15649905D01*
D16*
X9634100Y-16103000D02*
X9685100Y-16052000D01*
X9634100Y-16001000D01*
X9583100Y-16052000D01*
X9634100Y-16103000D01*
D11*
X10047481Y-16142476D02*
X9933195Y-16142476D01*
X9990338Y-16142476D02*
X9990338Y-15942476D01*
X9971290Y-15971048D01*
X9952243Y-15990095D01*
X9933195Y-15999619D01*
X10133195Y-16123428D02*
X10142719Y-16132952D01*
X10133195Y-16142476D01*
X10123671Y-16132952D01*
X10133195Y-16123428D01*
X10133195Y-16142476D01*
X10266529Y-15942476D02*
X10285576Y-15942476D01*
X10304624Y-15952000D01*
X10314148Y-15961524D01*
X10323671Y-15980571D01*
X10333195Y-16018667D01*
X10333195Y-16066286D01*
X10323671Y-16104381D01*
X10314148Y-16123428D01*
X10304624Y-16132952D01*
X10285576Y-16142476D01*
X10266529Y-16142476D01*
X10247481Y-16132952D01*
X10237957Y-16123428D01*
X10228433Y-16104381D01*
X10218910Y-16066286D01*
X10218910Y-16018667D01*
X10228433Y-15980571D01*
X10237957Y-15961524D01*
X10247481Y-15952000D01*
X10266529Y-15942476D01*
X10409386Y-15961524D02*
X10418910Y-15952000D01*
X10437957Y-15942476D01*
X10485576Y-15942476D01*
X10504624Y-15952000D01*
X10514148Y-15961524D01*
X10523671Y-15980571D01*
X10523671Y-15999619D01*
X10514148Y-16028190D01*
X10399862Y-16142476D01*
X10523671Y-16142476D01*
X10647481Y-15942476D02*
X10666529Y-15942476D01*
X10685576Y-15952000D01*
X10695100Y-15961524D01*
X10704624Y-15980571D01*
X10714148Y-16018667D01*
X10714148Y-16066286D01*
X10704624Y-16104381D01*
X10695100Y-16123428D01*
X10685576Y-16132952D01*
X10666529Y-16142476D01*
X10647481Y-16142476D01*
X10628433Y-16132952D01*
X10618910Y-16123428D01*
X10609386Y-16104381D01*
X10599862Y-16066286D01*
X10599862Y-16018667D01*
X10609386Y-15980571D01*
X10618910Y-15961524D01*
X10628433Y-15952000D01*
X10647481Y-15942476D01*
X10799862Y-16142476D02*
X10799862Y-16009143D01*
X10799862Y-16028190D02*
X10809386Y-16018667D01*
X10828433Y-16009143D01*
X10857005Y-16009143D01*
X10876052Y-16018667D01*
X10885576Y-16037714D01*
X10885576Y-16142476D01*
X10885576Y-16037714D02*
X10895100Y-16018667D01*
X10914148Y-16009143D01*
X10942719Y-16009143D01*
X10961767Y-16018667D01*
X10971290Y-16037714D01*
X10971290Y-16142476D01*
X11066529Y-16142476D02*
X11066529Y-16009143D01*
X11066529Y-16028190D02*
X11076052Y-16018667D01*
X11095100Y-16009143D01*
X11123671Y-16009143D01*
X11142719Y-16018667D01*
X11152243Y-16037714D01*
X11152243Y-16142476D01*
X11152243Y-16037714D02*
X11161767Y-16018667D01*
X11180814Y-16009143D01*
X11209386Y-16009143D01*
X11228433Y-16018667D01*
X11237957Y-16037714D01*
X11237957Y-16142476D01*
X11628433Y-15932952D02*
X11457005Y-16190095D01*
X11885576Y-15942476D02*
X11904624Y-15942476D01*
X11923671Y-15952000D01*
X11933195Y-15961524D01*
X11942719Y-15980571D01*
X11952243Y-16018667D01*
X11952243Y-16066286D01*
X11942719Y-16104381D01*
X11933195Y-16123428D01*
X11923671Y-16132952D01*
X11904624Y-16142476D01*
X11885576Y-16142476D01*
X11866528Y-16132952D01*
X11857005Y-16123428D01*
X11847481Y-16104381D01*
X11837957Y-16066286D01*
X11837957Y-16018667D01*
X11847481Y-15980571D01*
X11857005Y-15961524D01*
X11866528Y-15952000D01*
X11885576Y-15942476D01*
X12037957Y-16123428D02*
X12047481Y-16132952D01*
X12037957Y-16142476D01*
X12028433Y-16132952D01*
X12037957Y-16123428D01*
X12037957Y-16142476D01*
X12171290Y-15942476D02*
X12190338Y-15942476D01*
X12209386Y-15952000D01*
X12218909Y-15961524D01*
X12228433Y-15980571D01*
X12237957Y-16018667D01*
X12237957Y-16066286D01*
X12228433Y-16104381D01*
X12218909Y-16123428D01*
X12209386Y-16132952D01*
X12190338Y-16142476D01*
X12171290Y-16142476D01*
X12152243Y-16132952D01*
X12142719Y-16123428D01*
X12133195Y-16104381D01*
X12123671Y-16066286D01*
X12123671Y-16018667D01*
X12133195Y-15980571D01*
X12142719Y-15961524D01*
X12152243Y-15952000D01*
X12171290Y-15942476D01*
X12409386Y-16009143D02*
X12409386Y-16142476D01*
X12361767Y-15932952D02*
X12314148Y-16075809D01*
X12437957Y-16075809D01*
X12552243Y-15942476D02*
X12571290Y-15942476D01*
X12590338Y-15952000D01*
X12599862Y-15961524D01*
X12609386Y-15980571D01*
X12618909Y-16018667D01*
X12618909Y-16066286D01*
X12609386Y-16104381D01*
X12599862Y-16123428D01*
X12590338Y-16132952D01*
X12571290Y-16142476D01*
X12552243Y-16142476D01*
X12533195Y-16132952D01*
X12523671Y-16123428D01*
X12514148Y-16104381D01*
X12504624Y-16066286D01*
X12504624Y-16018667D01*
X12514148Y-15980571D01*
X12523671Y-15961524D01*
X12533195Y-15952000D01*
X12552243Y-15942476D01*
X12695100Y-15961524D02*
X12704624Y-15952000D01*
X12723671Y-15942476D01*
X12771290Y-15942476D01*
X12790338Y-15952000D01*
X12799862Y-15961524D01*
X12809386Y-15980571D01*
X12809386Y-15999619D01*
X12799862Y-16028190D01*
X12685576Y-16142476D01*
X12809386Y-16142476D01*
X12885576Y-15942476D02*
X12885576Y-15980571D01*
X12961767Y-15942476D02*
X12961767Y-15980571D01*
X13257005Y-16218667D02*
X13247481Y-16209143D01*
X13228433Y-16180571D01*
X13218909Y-16161524D01*
X13209386Y-16132952D01*
X13199862Y-16085333D01*
X13199862Y-16047238D01*
X13209386Y-15999619D01*
X13218909Y-15971048D01*
X13228433Y-15952000D01*
X13247481Y-15923428D01*
X13257005Y-15913905D01*
X13323671Y-15961524D02*
X13333195Y-15952000D01*
X13352243Y-15942476D01*
X13399862Y-15942476D01*
X13418909Y-15952000D01*
X13428433Y-15961524D01*
X13437957Y-15980571D01*
X13437957Y-15999619D01*
X13428433Y-16028190D01*
X13314148Y-16142476D01*
X13437957Y-16142476D01*
X13561767Y-15942476D02*
X13580814Y-15942476D01*
X13599862Y-15952000D01*
X13609386Y-15961524D01*
X13618909Y-15980571D01*
X13628433Y-16018667D01*
X13628433Y-16066286D01*
X13618909Y-16104381D01*
X13609386Y-16123428D01*
X13599862Y-16132952D01*
X13580814Y-16142476D01*
X13561767Y-16142476D01*
X13542719Y-16132952D01*
X13533195Y-16123428D01*
X13523671Y-16104381D01*
X13514148Y-16066286D01*
X13514148Y-16018667D01*
X13523671Y-15980571D01*
X13533195Y-15961524D01*
X13542719Y-15952000D01*
X13561767Y-15942476D01*
X13866528Y-16142476D02*
X13866528Y-15942476D01*
X13952243Y-16142476D02*
X13952243Y-16037714D01*
X13942719Y-16018667D01*
X13923671Y-16009143D01*
X13895100Y-16009143D01*
X13876052Y-16018667D01*
X13866528Y-16028190D01*
X14076052Y-16142476D02*
X14057005Y-16132952D01*
X14047481Y-16123428D01*
X14037957Y-16104381D01*
X14037957Y-16047238D01*
X14047481Y-16028190D01*
X14057005Y-16018667D01*
X14076052Y-16009143D01*
X14104624Y-16009143D01*
X14123671Y-16018667D01*
X14133195Y-16028190D01*
X14142719Y-16047238D01*
X14142719Y-16104381D01*
X14133195Y-16123428D01*
X14123671Y-16132952D01*
X14104624Y-16142476D01*
X14076052Y-16142476D01*
X14257005Y-16142476D02*
X14237957Y-16132952D01*
X14228433Y-16113905D01*
X14228433Y-15942476D01*
X14409386Y-16132952D02*
X14390338Y-16142476D01*
X14352243Y-16142476D01*
X14333195Y-16132952D01*
X14323671Y-16113905D01*
X14323671Y-16037714D01*
X14333195Y-16018667D01*
X14352243Y-16009143D01*
X14390338Y-16009143D01*
X14409386Y-16018667D01*
X14418909Y-16037714D01*
X14418909Y-16056762D01*
X14323671Y-16075809D01*
X14495100Y-16132952D02*
X14514148Y-16142476D01*
X14552243Y-16142476D01*
X14571290Y-16132952D01*
X14580814Y-16113905D01*
X14580814Y-16104381D01*
X14571290Y-16085333D01*
X14552243Y-16075809D01*
X14523671Y-16075809D01*
X14504624Y-16066286D01*
X14495100Y-16047238D01*
X14495100Y-16037714D01*
X14504624Y-16018667D01*
X14523671Y-16009143D01*
X14552243Y-16009143D01*
X14571290Y-16018667D01*
X14647481Y-16218667D02*
X14657005Y-16209143D01*
X14676052Y-16180571D01*
X14685576Y-16161524D01*
X14695100Y-16132952D01*
X14704624Y-16085333D01*
X14704624Y-16047238D01*
X14695100Y-15999619D01*
X14685576Y-15971048D01*
X14676052Y-15952000D01*
X14657005Y-15923428D01*
X14647481Y-15913905D01*
D17*
X9566100Y-16256500D02*
X9685100Y-16375500D01*
X9685100Y-16256500D02*
X9566100Y-16375500D01*
X9685100Y-16316000D02*
G75*
G03*
X9685100Y-16316000I-59500J0D01*
G01*
D11*
X10047481Y-16406476D02*
X9933195Y-16406476D01*
X9990338Y-16406476D02*
X9990338Y-16206476D01*
X9971290Y-16235048D01*
X9952243Y-16254095D01*
X9933195Y-16263619D01*
X10133195Y-16387428D02*
X10142719Y-16396952D01*
X10133195Y-16406476D01*
X10123671Y-16396952D01*
X10133195Y-16387428D01*
X10133195Y-16406476D01*
X10333195Y-16406476D02*
X10218910Y-16406476D01*
X10276052Y-16406476D02*
X10276052Y-16206476D01*
X10257005Y-16235048D01*
X10237957Y-16254095D01*
X10218910Y-16263619D01*
X10428433Y-16406476D02*
X10466529Y-16406476D01*
X10485576Y-16396952D01*
X10495100Y-16387428D01*
X10514148Y-16358857D01*
X10523671Y-16320762D01*
X10523671Y-16244571D01*
X10514148Y-16225524D01*
X10504624Y-16216000D01*
X10485576Y-16206476D01*
X10447481Y-16206476D01*
X10428433Y-16216000D01*
X10418910Y-16225524D01*
X10409386Y-16244571D01*
X10409386Y-16292190D01*
X10418910Y-16311238D01*
X10428433Y-16320762D01*
X10447481Y-16330286D01*
X10485576Y-16330286D01*
X10504624Y-16320762D01*
X10514148Y-16311238D01*
X10523671Y-16292190D01*
X10647481Y-16206476D02*
X10666529Y-16206476D01*
X10685576Y-16216000D01*
X10695100Y-16225524D01*
X10704624Y-16244571D01*
X10714148Y-16282667D01*
X10714148Y-16330286D01*
X10704624Y-16368381D01*
X10695100Y-16387428D01*
X10685576Y-16396952D01*
X10666529Y-16406476D01*
X10647481Y-16406476D01*
X10628433Y-16396952D01*
X10618910Y-16387428D01*
X10609386Y-16368381D01*
X10599862Y-16330286D01*
X10599862Y-16282667D01*
X10609386Y-16244571D01*
X10618910Y-16225524D01*
X10628433Y-16216000D01*
X10647481Y-16206476D01*
X10799862Y-16406476D02*
X10799862Y-16273143D01*
X10799862Y-16292190D02*
X10809386Y-16282667D01*
X10828433Y-16273143D01*
X10857005Y-16273143D01*
X10876052Y-16282667D01*
X10885576Y-16301714D01*
X10885576Y-16406476D01*
X10885576Y-16301714D02*
X10895100Y-16282667D01*
X10914148Y-16273143D01*
X10942719Y-16273143D01*
X10961767Y-16282667D01*
X10971290Y-16301714D01*
X10971290Y-16406476D01*
X11066529Y-16406476D02*
X11066529Y-16273143D01*
X11066529Y-16292190D02*
X11076052Y-16282667D01*
X11095100Y-16273143D01*
X11123671Y-16273143D01*
X11142719Y-16282667D01*
X11152243Y-16301714D01*
X11152243Y-16406476D01*
X11152243Y-16301714D02*
X11161767Y-16282667D01*
X11180814Y-16273143D01*
X11209386Y-16273143D01*
X11228433Y-16282667D01*
X11237957Y-16301714D01*
X11237957Y-16406476D01*
X11628433Y-16196952D02*
X11457005Y-16454095D01*
X11885576Y-16206476D02*
X11904624Y-16206476D01*
X11923671Y-16216000D01*
X11933195Y-16225524D01*
X11942719Y-16244571D01*
X11952243Y-16282667D01*
X11952243Y-16330286D01*
X11942719Y-16368381D01*
X11933195Y-16387428D01*
X11923671Y-16396952D01*
X11904624Y-16406476D01*
X11885576Y-16406476D01*
X11866528Y-16396952D01*
X11857005Y-16387428D01*
X11847481Y-16368381D01*
X11837957Y-16330286D01*
X11837957Y-16282667D01*
X11847481Y-16244571D01*
X11857005Y-16225524D01*
X11866528Y-16216000D01*
X11885576Y-16206476D01*
X12037957Y-16387428D02*
X12047481Y-16396952D01*
X12037957Y-16406476D01*
X12028433Y-16396952D01*
X12037957Y-16387428D01*
X12037957Y-16406476D01*
X12171290Y-16206476D02*
X12190338Y-16206476D01*
X12209386Y-16216000D01*
X12218909Y-16225524D01*
X12228433Y-16244571D01*
X12237957Y-16282667D01*
X12237957Y-16330286D01*
X12228433Y-16368381D01*
X12218909Y-16387428D01*
X12209386Y-16396952D01*
X12190338Y-16406476D01*
X12171290Y-16406476D01*
X12152243Y-16396952D01*
X12142719Y-16387428D01*
X12133195Y-16368381D01*
X12123671Y-16330286D01*
X12123671Y-16282667D01*
X12133195Y-16244571D01*
X12142719Y-16225524D01*
X12152243Y-16216000D01*
X12171290Y-16206476D01*
X12409386Y-16273143D02*
X12409386Y-16406476D01*
X12361767Y-16196952D02*
X12314148Y-16339809D01*
X12437957Y-16339809D01*
X12599862Y-16206476D02*
X12561767Y-16206476D01*
X12542719Y-16216000D01*
X12533195Y-16225524D01*
X12514148Y-16254095D01*
X12504624Y-16292190D01*
X12504624Y-16368381D01*
X12514148Y-16387428D01*
X12523671Y-16396952D01*
X12542719Y-16406476D01*
X12580814Y-16406476D01*
X12599862Y-16396952D01*
X12609386Y-16387428D01*
X12618909Y-16368381D01*
X12618909Y-16320762D01*
X12609386Y-16301714D01*
X12599862Y-16292190D01*
X12580814Y-16282667D01*
X12542719Y-16282667D01*
X12523671Y-16292190D01*
X12514148Y-16301714D01*
X12504624Y-16320762D01*
X12714148Y-16406476D02*
X12752243Y-16406476D01*
X12771290Y-16396952D01*
X12780814Y-16387428D01*
X12799862Y-16358857D01*
X12809386Y-16320762D01*
X12809386Y-16244571D01*
X12799862Y-16225524D01*
X12790338Y-16216000D01*
X12771290Y-16206476D01*
X12733195Y-16206476D01*
X12714148Y-16216000D01*
X12704624Y-16225524D01*
X12695100Y-16244571D01*
X12695100Y-16292190D01*
X12704624Y-16311238D01*
X12714148Y-16320762D01*
X12733195Y-16330286D01*
X12771290Y-16330286D01*
X12790338Y-16320762D01*
X12799862Y-16311238D01*
X12809386Y-16292190D01*
X12885576Y-16206476D02*
X12885576Y-16244571D01*
X12961767Y-16206476D02*
X12961767Y-16244571D01*
X13257005Y-16482667D02*
X13247481Y-16473143D01*
X13228433Y-16444571D01*
X13218909Y-16425524D01*
X13209386Y-16396952D01*
X13199862Y-16349333D01*
X13199862Y-16311238D01*
X13209386Y-16263619D01*
X13218909Y-16235048D01*
X13228433Y-16216000D01*
X13247481Y-16187428D01*
X13257005Y-16177905D01*
X13428433Y-16206476D02*
X13333195Y-16206476D01*
X13323671Y-16301714D01*
X13333195Y-16292190D01*
X13352243Y-16282667D01*
X13399862Y-16282667D01*
X13418909Y-16292190D01*
X13428433Y-16301714D01*
X13437957Y-16320762D01*
X13437957Y-16368381D01*
X13428433Y-16387428D01*
X13418909Y-16396952D01*
X13399862Y-16406476D01*
X13352243Y-16406476D01*
X13333195Y-16396952D01*
X13323671Y-16387428D01*
X13628433Y-16406476D02*
X13514148Y-16406476D01*
X13571290Y-16406476D02*
X13571290Y-16206476D01*
X13552243Y-16235048D01*
X13533195Y-16254095D01*
X13514148Y-16263619D01*
X13866528Y-16406476D02*
X13866528Y-16206476D01*
X13952243Y-16406476D02*
X13952243Y-16301714D01*
X13942719Y-16282667D01*
X13923671Y-16273143D01*
X13895100Y-16273143D01*
X13876052Y-16282667D01*
X13866528Y-16292190D01*
X14076052Y-16406476D02*
X14057005Y-16396952D01*
X14047481Y-16387428D01*
X14037957Y-16368381D01*
X14037957Y-16311238D01*
X14047481Y-16292190D01*
X14057005Y-16282667D01*
X14076052Y-16273143D01*
X14104624Y-16273143D01*
X14123671Y-16282667D01*
X14133195Y-16292190D01*
X14142719Y-16311238D01*
X14142719Y-16368381D01*
X14133195Y-16387428D01*
X14123671Y-16396952D01*
X14104624Y-16406476D01*
X14076052Y-16406476D01*
X14257005Y-16406476D02*
X14237957Y-16396952D01*
X14228433Y-16377905D01*
X14228433Y-16206476D01*
X14409386Y-16396952D02*
X14390338Y-16406476D01*
X14352243Y-16406476D01*
X14333195Y-16396952D01*
X14323671Y-16377905D01*
X14323671Y-16301714D01*
X14333195Y-16282667D01*
X14352243Y-16273143D01*
X14390338Y-16273143D01*
X14409386Y-16282667D01*
X14418909Y-16301714D01*
X14418909Y-16320762D01*
X14323671Y-16339809D01*
X14495100Y-16396952D02*
X14514148Y-16406476D01*
X14552243Y-16406476D01*
X14571290Y-16396952D01*
X14580814Y-16377905D01*
X14580814Y-16368381D01*
X14571290Y-16349333D01*
X14552243Y-16339809D01*
X14523671Y-16339809D01*
X14504624Y-16330286D01*
X14495100Y-16311238D01*
X14495100Y-16301714D01*
X14504624Y-16282667D01*
X14523671Y-16273143D01*
X14552243Y-16273143D01*
X14571290Y-16282667D01*
X14647481Y-16482667D02*
X14657005Y-16473143D01*
X14676052Y-16444571D01*
X14685576Y-16425524D01*
X14695100Y-16396952D01*
X14704624Y-16349333D01*
X14704624Y-16311238D01*
X14695100Y-16263619D01*
X14685576Y-16235048D01*
X14676052Y-16216000D01*
X14657005Y-16187428D01*
X14647481Y-16177905D01*
X9485100Y-16480000D02*
X9685100Y-16680000D01*
X9685100Y-16480000D02*
X9485100Y-16680000D01*
X9585100Y-16480000D02*
X9585100Y-16680000D01*
X9485100Y-16580000D02*
X9685100Y-16580000D01*
X9933195Y-16489524D02*
X9942719Y-16480000D01*
X9961767Y-16470476D01*
X10009386Y-16470476D01*
X10028433Y-16480000D01*
X10037957Y-16489524D01*
X10047481Y-16508571D01*
X10047481Y-16527619D01*
X10037957Y-16556190D01*
X9923671Y-16670476D01*
X10047481Y-16670476D01*
X10133195Y-16651428D02*
X10142719Y-16660952D01*
X10133195Y-16670476D01*
X10123671Y-16660952D01*
X10133195Y-16651428D01*
X10133195Y-16670476D01*
X10209386Y-16470476D02*
X10333195Y-16470476D01*
X10266529Y-16546667D01*
X10295100Y-16546667D01*
X10314148Y-16556190D01*
X10323671Y-16565714D01*
X10333195Y-16584762D01*
X10333195Y-16632381D01*
X10323671Y-16651428D01*
X10314148Y-16660952D01*
X10295100Y-16670476D01*
X10237957Y-16670476D01*
X10218910Y-16660952D01*
X10209386Y-16651428D01*
X10457005Y-16470476D02*
X10476052Y-16470476D01*
X10495100Y-16480000D01*
X10504624Y-16489524D01*
X10514148Y-16508571D01*
X10523671Y-16546667D01*
X10523671Y-16594286D01*
X10514148Y-16632381D01*
X10504624Y-16651428D01*
X10495100Y-16660952D01*
X10476052Y-16670476D01*
X10457005Y-16670476D01*
X10437957Y-16660952D01*
X10428433Y-16651428D01*
X10418910Y-16632381D01*
X10409386Y-16594286D01*
X10409386Y-16546667D01*
X10418910Y-16508571D01*
X10428433Y-16489524D01*
X10437957Y-16480000D01*
X10457005Y-16470476D01*
X10647481Y-16470476D02*
X10666529Y-16470476D01*
X10685576Y-16480000D01*
X10695100Y-16489524D01*
X10704624Y-16508571D01*
X10714148Y-16546667D01*
X10714148Y-16594286D01*
X10704624Y-16632381D01*
X10695100Y-16651428D01*
X10685576Y-16660952D01*
X10666529Y-16670476D01*
X10647481Y-16670476D01*
X10628433Y-16660952D01*
X10618910Y-16651428D01*
X10609386Y-16632381D01*
X10599862Y-16594286D01*
X10599862Y-16546667D01*
X10609386Y-16508571D01*
X10618910Y-16489524D01*
X10628433Y-16480000D01*
X10647481Y-16470476D01*
X10799862Y-16670476D02*
X10799862Y-16537143D01*
X10799862Y-16556190D02*
X10809386Y-16546667D01*
X10828433Y-16537143D01*
X10857005Y-16537143D01*
X10876052Y-16546667D01*
X10885576Y-16565714D01*
X10885576Y-16670476D01*
X10885576Y-16565714D02*
X10895100Y-16546667D01*
X10914148Y-16537143D01*
X10942719Y-16537143D01*
X10961767Y-16546667D01*
X10971290Y-16565714D01*
X10971290Y-16670476D01*
X11066529Y-16670476D02*
X11066529Y-16537143D01*
X11066529Y-16556190D02*
X11076052Y-16546667D01*
X11095100Y-16537143D01*
X11123671Y-16537143D01*
X11142719Y-16546667D01*
X11152243Y-16565714D01*
X11152243Y-16670476D01*
X11152243Y-16565714D02*
X11161767Y-16546667D01*
X11180814Y-16537143D01*
X11209386Y-16537143D01*
X11228433Y-16546667D01*
X11237957Y-16565714D01*
X11237957Y-16670476D01*
X11628433Y-16460952D02*
X11457005Y-16718095D01*
X11885576Y-16470476D02*
X11904624Y-16470476D01*
X11923671Y-16480000D01*
X11933195Y-16489524D01*
X11942719Y-16508571D01*
X11952243Y-16546667D01*
X11952243Y-16594286D01*
X11942719Y-16632381D01*
X11933195Y-16651428D01*
X11923671Y-16660952D01*
X11904624Y-16670476D01*
X11885576Y-16670476D01*
X11866528Y-16660952D01*
X11857005Y-16651428D01*
X11847481Y-16632381D01*
X11837957Y-16594286D01*
X11837957Y-16546667D01*
X11847481Y-16508571D01*
X11857005Y-16489524D01*
X11866528Y-16480000D01*
X11885576Y-16470476D01*
X12037957Y-16651428D02*
X12047481Y-16660952D01*
X12037957Y-16670476D01*
X12028433Y-16660952D01*
X12037957Y-16651428D01*
X12037957Y-16670476D01*
X12171290Y-16470476D02*
X12190338Y-16470476D01*
X12209386Y-16480000D01*
X12218909Y-16489524D01*
X12228433Y-16508571D01*
X12237957Y-16546667D01*
X12237957Y-16594286D01*
X12228433Y-16632381D01*
X12218909Y-16651428D01*
X12209386Y-16660952D01*
X12190338Y-16670476D01*
X12171290Y-16670476D01*
X12152243Y-16660952D01*
X12142719Y-16651428D01*
X12133195Y-16632381D01*
X12123671Y-16594286D01*
X12123671Y-16546667D01*
X12133195Y-16508571D01*
X12142719Y-16489524D01*
X12152243Y-16480000D01*
X12171290Y-16470476D01*
X12333195Y-16670476D02*
X12371290Y-16670476D01*
X12390338Y-16660952D01*
X12399862Y-16651428D01*
X12418909Y-16622857D01*
X12428433Y-16584762D01*
X12428433Y-16508571D01*
X12418909Y-16489524D01*
X12409386Y-16480000D01*
X12390338Y-16470476D01*
X12352243Y-16470476D01*
X12333195Y-16480000D01*
X12323671Y-16489524D01*
X12314148Y-16508571D01*
X12314148Y-16556190D01*
X12323671Y-16575238D01*
X12333195Y-16584762D01*
X12352243Y-16594286D01*
X12390338Y-16594286D01*
X12409386Y-16584762D01*
X12418909Y-16575238D01*
X12428433Y-16556190D01*
X12552243Y-16470476D02*
X12571290Y-16470476D01*
X12590338Y-16480000D01*
X12599862Y-16489524D01*
X12609386Y-16508571D01*
X12618909Y-16546667D01*
X12618909Y-16594286D01*
X12609386Y-16632381D01*
X12599862Y-16651428D01*
X12590338Y-16660952D01*
X12571290Y-16670476D01*
X12552243Y-16670476D01*
X12533195Y-16660952D01*
X12523671Y-16651428D01*
X12514148Y-16632381D01*
X12504624Y-16594286D01*
X12504624Y-16546667D01*
X12514148Y-16508571D01*
X12523671Y-16489524D01*
X12533195Y-16480000D01*
X12552243Y-16470476D01*
X12790338Y-16470476D02*
X12752243Y-16470476D01*
X12733195Y-16480000D01*
X12723671Y-16489524D01*
X12704624Y-16518095D01*
X12695100Y-16556190D01*
X12695100Y-16632381D01*
X12704624Y-16651428D01*
X12714148Y-16660952D01*
X12733195Y-16670476D01*
X12771290Y-16670476D01*
X12790338Y-16660952D01*
X12799862Y-16651428D01*
X12809386Y-16632381D01*
X12809386Y-16584762D01*
X12799862Y-16565714D01*
X12790338Y-16556190D01*
X12771290Y-16546667D01*
X12733195Y-16546667D01*
X12714148Y-16556190D01*
X12704624Y-16565714D01*
X12695100Y-16584762D01*
X12885576Y-16470476D02*
X12885576Y-16508571D01*
X12961767Y-16470476D02*
X12961767Y-16508571D01*
X13257005Y-16746667D02*
X13247481Y-16737143D01*
X13228433Y-16708571D01*
X13218909Y-16689524D01*
X13209386Y-16660952D01*
X13199862Y-16613333D01*
X13199862Y-16575238D01*
X13209386Y-16527619D01*
X13218909Y-16499048D01*
X13228433Y-16480000D01*
X13247481Y-16451428D01*
X13257005Y-16441905D01*
X13323671Y-16489524D02*
X13333195Y-16480000D01*
X13352243Y-16470476D01*
X13399862Y-16470476D01*
X13418909Y-16480000D01*
X13428433Y-16489524D01*
X13437957Y-16508571D01*
X13437957Y-16527619D01*
X13428433Y-16556190D01*
X13314148Y-16670476D01*
X13437957Y-16670476D01*
X13676052Y-16670476D02*
X13676052Y-16470476D01*
X13761767Y-16670476D02*
X13761767Y-16565714D01*
X13752243Y-16546667D01*
X13733195Y-16537143D01*
X13704624Y-16537143D01*
X13685576Y-16546667D01*
X13676052Y-16556190D01*
X13885576Y-16670476D02*
X13866528Y-16660952D01*
X13857005Y-16651428D01*
X13847481Y-16632381D01*
X13847481Y-16575238D01*
X13857005Y-16556190D01*
X13866528Y-16546667D01*
X13885576Y-16537143D01*
X13914148Y-16537143D01*
X13933195Y-16546667D01*
X13942719Y-16556190D01*
X13952243Y-16575238D01*
X13952243Y-16632381D01*
X13942719Y-16651428D01*
X13933195Y-16660952D01*
X13914148Y-16670476D01*
X13885576Y-16670476D01*
X14066528Y-16670476D02*
X14047481Y-16660952D01*
X14037957Y-16641905D01*
X14037957Y-16470476D01*
X14218909Y-16660952D02*
X14199862Y-16670476D01*
X14161767Y-16670476D01*
X14142719Y-16660952D01*
X14133195Y-16641905D01*
X14133195Y-16565714D01*
X14142719Y-16546667D01*
X14161767Y-16537143D01*
X14199862Y-16537143D01*
X14218909Y-16546667D01*
X14228433Y-16565714D01*
X14228433Y-16584762D01*
X14133195Y-16603809D01*
X14304624Y-16660952D02*
X14323671Y-16670476D01*
X14361767Y-16670476D01*
X14380814Y-16660952D01*
X14390338Y-16641905D01*
X14390338Y-16632381D01*
X14380814Y-16613333D01*
X14361767Y-16603809D01*
X14333195Y-16603809D01*
X14314148Y-16594286D01*
X14304624Y-16575238D01*
X14304624Y-16565714D01*
X14314148Y-16546667D01*
X14333195Y-16537143D01*
X14361767Y-16537143D01*
X14380814Y-16546667D01*
X14457005Y-16746667D02*
X14466528Y-16737143D01*
X14485576Y-16708571D01*
X14495100Y-16689524D01*
X14504624Y-16660952D01*
X14514148Y-16613333D01*
X14514148Y-16575238D01*
X14504624Y-16527619D01*
X14495100Y-16499048D01*
X14485576Y-16480000D01*
X14466528Y-16451428D01*
X14457005Y-16441905D01*
M02*
