%TF.GenerationSoftware,KiCad,Pcbnew,(6.0.1)*%
%TF.CreationDate,2022-03-10T19:24:07-06:00*%
%TF.ProjectId,arliang2_good2go,61726c69-616e-4673-925f-676f6f643267,rev?*%
%TF.SameCoordinates,Original*%
%TF.FileFunction,Soldermask,Bot*%
%TF.FilePolarity,Negative*%
%FSLAX46Y46*%
G04 Gerber Fmt 4.6, Leading zero omitted, Abs format (unit mm)*
G04 Created by KiCad (PCBNEW (6.0.1)) date 2022-03-10 19:24:07*
%MOMM*%
%LPD*%
G01*
G04 APERTURE LIST*
G04 Aperture macros list*
%AMRoundRect*
0 Rectangle with rounded corners*
0 $1 Rounding radius*
0 $2 $3 $4 $5 $6 $7 $8 $9 X,Y pos of 4 corners*
0 Add a 4 corners polygon primitive as box body*
4,1,4,$2,$3,$4,$5,$6,$7,$8,$9,$2,$3,0*
0 Add four circle primitives for the rounded corners*
1,1,$1+$1,$2,$3*
1,1,$1+$1,$4,$5*
1,1,$1+$1,$6,$7*
1,1,$1+$1,$8,$9*
0 Add four rect primitives between the rounded corners*
20,1,$1+$1,$2,$3,$4,$5,0*
20,1,$1+$1,$4,$5,$6,$7,0*
20,1,$1+$1,$6,$7,$8,$9,0*
20,1,$1+$1,$8,$9,$2,$3,0*%
G04 Aperture macros list end*
%ADD10RoundRect,0.250000X-0.620000X-0.845000X0.620000X-0.845000X0.620000X0.845000X-0.620000X0.845000X0*%
%ADD11O,1.740000X2.190000*%
%ADD12C,1.500000*%
%ADD13C,3.200000*%
%ADD14C,2.900000*%
%ADD15R,2.100000X1.900000*%
%ADD16O,2.100000X1.900000*%
%ADD17R,1.600000X1.600000*%
%ADD18O,1.600000X1.600000*%
%ADD19RoundRect,0.250000X0.620000X0.845000X-0.620000X0.845000X-0.620000X-0.845000X0.620000X-0.845000X0*%
%ADD20RoundRect,0.250000X0.600000X0.600000X-0.600000X0.600000X-0.600000X-0.600000X0.600000X-0.600000X0*%
%ADD21C,1.700000*%
%ADD22RoundRect,0.250000X0.845000X-0.620000X0.845000X0.620000X-0.845000X0.620000X-0.845000X-0.620000X0*%
%ADD23O,2.190000X1.740000*%
%ADD24C,1.600000*%
%ADD25C,3.000000*%
%ADD26RoundRect,0.250000X-0.600000X-0.600000X0.600000X-0.600000X0.600000X0.600000X-0.600000X0.600000X0*%
%ADD27RoundRect,0.250000X-0.845000X0.620000X-0.845000X-0.620000X0.845000X-0.620000X0.845000X0.620000X0*%
G04 APERTURE END LIST*
D10*
%TO.C,J12*%
X181930511Y-99871489D03*
D11*
X184470511Y-99871489D03*
X187010511Y-99871489D03*
%TD*%
D12*
%TO.C,Y1*%
X109728000Y-86106000D03*
X109728000Y-90986000D03*
%TD*%
D13*
%TO.C,H2*%
X102108000Y-112014000D03*
%TD*%
%TO.C,H9*%
X188341000Y-121031000D03*
%TD*%
D14*
%TO.C,A1*%
X161483511Y-102894489D03*
X141163511Y-102894489D03*
X141163511Y-69874489D03*
X161483511Y-69874489D03*
D15*
X141163511Y-73684489D03*
D16*
X141163511Y-76224489D03*
X141163511Y-78764489D03*
X141163511Y-81304489D03*
X141163511Y-83844489D03*
X141163511Y-86384489D03*
X141163511Y-88924489D03*
X141163511Y-91464489D03*
X141163511Y-94004489D03*
X141163511Y-96544489D03*
X161483511Y-96544489D03*
X161483511Y-94004489D03*
X161483511Y-91464489D03*
X161483511Y-88924489D03*
X161483511Y-86384489D03*
X161483511Y-83844489D03*
X161483511Y-81304489D03*
X161483511Y-78764489D03*
X161483511Y-76224489D03*
X161483511Y-73684489D03*
%TD*%
D17*
%TO.C,U1*%
X115417511Y-66558000D03*
D18*
X115417511Y-69098000D03*
X115417511Y-71638000D03*
X115417511Y-74178000D03*
X115417511Y-76718000D03*
X115417511Y-79258000D03*
X115417511Y-81798000D03*
X115417511Y-84338000D03*
X115417511Y-86878000D03*
X115417511Y-89418000D03*
X115417511Y-91958000D03*
X115417511Y-94498000D03*
X115417511Y-97038000D03*
X115417511Y-99578000D03*
X123037511Y-99578000D03*
X123037511Y-97038000D03*
X123037511Y-94498000D03*
X123037511Y-91958000D03*
X123037511Y-89418000D03*
X123037511Y-86878000D03*
X123037511Y-84338000D03*
X123037511Y-81798000D03*
X123037511Y-79258000D03*
X123037511Y-76718000D03*
X123037511Y-74178000D03*
X123037511Y-71638000D03*
X123037511Y-69098000D03*
X123037511Y-66558000D03*
%TD*%
D19*
%TO.C,J8*%
X164658511Y-47649489D03*
D11*
X162118511Y-47649489D03*
%TD*%
D10*
%TO.C,J2*%
X104231511Y-99822000D03*
D11*
X106771511Y-99822000D03*
X109311511Y-99822000D03*
X111851511Y-99822000D03*
%TD*%
D20*
%TO.C,J15*%
X175072511Y-58444489D03*
D21*
X172532511Y-58444489D03*
X175072511Y-55904489D03*
X172532511Y-55904489D03*
X175072511Y-53364489D03*
X172532511Y-53364489D03*
%TD*%
D13*
%TO.C,H10*%
X158893000Y-138176000D03*
%TD*%
D22*
%TO.C,J3*%
X128488511Y-71501000D03*
D23*
X128488511Y-68961000D03*
X128488511Y-66421000D03*
X128488511Y-63881000D03*
%TD*%
D13*
%TO.C,H1*%
X102108000Y-48514000D03*
%TD*%
%TO.C,H5*%
X132588000Y-48514000D03*
%TD*%
%TO.C,H3*%
X132588000Y-112014000D03*
%TD*%
D17*
%TO.C,J9*%
X153482511Y-57809489D03*
D24*
X150982511Y-57809489D03*
X148982511Y-57809489D03*
X146482511Y-57809489D03*
D25*
X143412511Y-55099489D03*
X156552511Y-55099489D03*
%TD*%
D10*
%TO.C,J13*%
X182692511Y-86130489D03*
D11*
X185232511Y-86130489D03*
X187772511Y-86130489D03*
X190312511Y-86130489D03*
%TD*%
D10*
%TO.C,J1*%
X116804511Y-106553000D03*
D11*
X119344511Y-106553000D03*
X121884511Y-106553000D03*
X124424511Y-106553000D03*
%TD*%
D26*
%TO.C,J4*%
X130565500Y-92832000D03*
D21*
X133105500Y-92832000D03*
X130565500Y-95372000D03*
X133105500Y-95372000D03*
X130565500Y-97912000D03*
X133105500Y-97912000D03*
%TD*%
D13*
%TO.C,H7*%
X184277000Y-111760000D03*
%TD*%
D10*
%TO.C,J10*%
X182311511Y-59333489D03*
D11*
X184851511Y-59333489D03*
X187391511Y-59333489D03*
%TD*%
D17*
%TO.C,U7*%
X166132000Y-121158000D03*
D18*
X166132000Y-123698000D03*
X166132000Y-126238000D03*
X166132000Y-128778000D03*
X166132000Y-131318000D03*
X166132000Y-133858000D03*
X166132000Y-136398000D03*
X166132000Y-138938000D03*
X173752000Y-138938000D03*
X173752000Y-136398000D03*
X173752000Y-133858000D03*
X173752000Y-131318000D03*
X173752000Y-128778000D03*
X173752000Y-126238000D03*
X173752000Y-123698000D03*
X173752000Y-121158000D03*
%TD*%
D22*
%TO.C,J14*%
X174818511Y-88416489D03*
D23*
X174818511Y-85876489D03*
X174818511Y-83336489D03*
X174818511Y-80796489D03*
%TD*%
D10*
%TO.C,J11*%
X183454511Y-77494489D03*
D11*
X185994511Y-77494489D03*
X188534511Y-77494489D03*
%TD*%
D22*
%TO.C,J7*%
X129413000Y-79248000D03*
D23*
X129413000Y-76708000D03*
%TD*%
D27*
%TO.C,J6*%
X107533511Y-74549000D03*
D23*
X107533511Y-77089000D03*
X107533511Y-79629000D03*
%TD*%
D22*
%TO.C,J5*%
X102707511Y-58039000D03*
D23*
X102707511Y-55499000D03*
%TD*%
D13*
%TO.C,H6*%
X184277000Y-48514000D03*
%TD*%
D27*
%TO.C,J16*%
X180737000Y-122047000D03*
D23*
X180737000Y-124587000D03*
X180737000Y-127127000D03*
X180737000Y-129667000D03*
X180737000Y-132207000D03*
X180737000Y-134747000D03*
X180737000Y-137287000D03*
X180737000Y-139827000D03*
%TD*%
D27*
%TO.C,J17*%
X160290000Y-121158000D03*
D23*
X160290000Y-123698000D03*
X160290000Y-126238000D03*
X160290000Y-128778000D03*
X160290000Y-131318000D03*
%TD*%
M02*
